G04 #@! TF.GenerationSoftware,KiCad,Pcbnew,(5.0.2)-1*
G04 #@! TF.CreationDate,2019-04-22T21:15:54+05:30*
G04 #@! TF.ProjectId,parking_sense_1,7061726b-696e-4675-9f73-656e73655f31,rev?*
G04 #@! TF.SameCoordinates,Original*
G04 #@! TF.FileFunction,Paste,Top*
G04 #@! TF.FilePolarity,Positive*
%FSLAX46Y46*%
G04 Gerber Fmt 4.6, Leading zero omitted, Abs format (unit mm)*
G04 Created by KiCad (PCBNEW (5.0.2)-1) date 04/22/19 21:15:54*
%MOMM*%
%LPD*%
G01*
G04 APERTURE LIST*
%ADD10R,1.000000X1.000000*%
%ADD11R,0.800000X0.900000*%
%ADD12C,0.100000*%
%ADD13C,0.950000*%
%ADD14C,0.875000*%
%ADD15O,0.750000X0.300000*%
%ADD16O,0.300000X0.750000*%
%ADD17R,0.730000X0.730000*%
%ADD18R,1.500000X0.600000*%
%ADD19R,2.000000X1.500000*%
%ADD20R,2.000000X3.800000*%
G04 APERTURE END LIST*
D10*
G04 #@! TO.C,D1*
X79395000Y-46990000D03*
X81895000Y-46990000D03*
G04 #@! TD*
G04 #@! TO.C,D3*
X74930000Y-48875000D03*
X74930000Y-46375000D03*
G04 #@! TD*
G04 #@! TO.C,D2*
X76180000Y-56515000D03*
X73680000Y-56515000D03*
G04 #@! TD*
D11*
G04 #@! TO.C,Q2*
X38100000Y-57515000D03*
X37150000Y-55515000D03*
X39050000Y-55515000D03*
G04 #@! TD*
G04 #@! TO.C,Q1*
X79690000Y-50435000D03*
X77790000Y-50435000D03*
X78740000Y-52435000D03*
G04 #@! TD*
D12*
G04 #@! TO.C,C1*
G36*
X71380779Y-46226144D02*
X71403834Y-46229563D01*
X71426443Y-46235227D01*
X71448387Y-46243079D01*
X71469457Y-46253044D01*
X71489448Y-46265026D01*
X71508168Y-46278910D01*
X71525438Y-46294562D01*
X71541090Y-46311832D01*
X71554974Y-46330552D01*
X71566956Y-46350543D01*
X71576921Y-46371613D01*
X71584773Y-46393557D01*
X71590437Y-46416166D01*
X71593856Y-46439221D01*
X71595000Y-46462500D01*
X71595000Y-47037500D01*
X71593856Y-47060779D01*
X71590437Y-47083834D01*
X71584773Y-47106443D01*
X71576921Y-47128387D01*
X71566956Y-47149457D01*
X71554974Y-47169448D01*
X71541090Y-47188168D01*
X71525438Y-47205438D01*
X71508168Y-47221090D01*
X71489448Y-47234974D01*
X71469457Y-47246956D01*
X71448387Y-47256921D01*
X71426443Y-47264773D01*
X71403834Y-47270437D01*
X71380779Y-47273856D01*
X71357500Y-47275000D01*
X70882500Y-47275000D01*
X70859221Y-47273856D01*
X70836166Y-47270437D01*
X70813557Y-47264773D01*
X70791613Y-47256921D01*
X70770543Y-47246956D01*
X70750552Y-47234974D01*
X70731832Y-47221090D01*
X70714562Y-47205438D01*
X70698910Y-47188168D01*
X70685026Y-47169448D01*
X70673044Y-47149457D01*
X70663079Y-47128387D01*
X70655227Y-47106443D01*
X70649563Y-47083834D01*
X70646144Y-47060779D01*
X70645000Y-47037500D01*
X70645000Y-46462500D01*
X70646144Y-46439221D01*
X70649563Y-46416166D01*
X70655227Y-46393557D01*
X70663079Y-46371613D01*
X70673044Y-46350543D01*
X70685026Y-46330552D01*
X70698910Y-46311832D01*
X70714562Y-46294562D01*
X70731832Y-46278910D01*
X70750552Y-46265026D01*
X70770543Y-46253044D01*
X70791613Y-46243079D01*
X70813557Y-46235227D01*
X70836166Y-46229563D01*
X70859221Y-46226144D01*
X70882500Y-46225000D01*
X71357500Y-46225000D01*
X71380779Y-46226144D01*
X71380779Y-46226144D01*
G37*
D13*
X71120000Y-46750000D03*
D12*
G36*
X71380779Y-47976144D02*
X71403834Y-47979563D01*
X71426443Y-47985227D01*
X71448387Y-47993079D01*
X71469457Y-48003044D01*
X71489448Y-48015026D01*
X71508168Y-48028910D01*
X71525438Y-48044562D01*
X71541090Y-48061832D01*
X71554974Y-48080552D01*
X71566956Y-48100543D01*
X71576921Y-48121613D01*
X71584773Y-48143557D01*
X71590437Y-48166166D01*
X71593856Y-48189221D01*
X71595000Y-48212500D01*
X71595000Y-48787500D01*
X71593856Y-48810779D01*
X71590437Y-48833834D01*
X71584773Y-48856443D01*
X71576921Y-48878387D01*
X71566956Y-48899457D01*
X71554974Y-48919448D01*
X71541090Y-48938168D01*
X71525438Y-48955438D01*
X71508168Y-48971090D01*
X71489448Y-48984974D01*
X71469457Y-48996956D01*
X71448387Y-49006921D01*
X71426443Y-49014773D01*
X71403834Y-49020437D01*
X71380779Y-49023856D01*
X71357500Y-49025000D01*
X70882500Y-49025000D01*
X70859221Y-49023856D01*
X70836166Y-49020437D01*
X70813557Y-49014773D01*
X70791613Y-49006921D01*
X70770543Y-48996956D01*
X70750552Y-48984974D01*
X70731832Y-48971090D01*
X70714562Y-48955438D01*
X70698910Y-48938168D01*
X70685026Y-48919448D01*
X70673044Y-48899457D01*
X70663079Y-48878387D01*
X70655227Y-48856443D01*
X70649563Y-48833834D01*
X70646144Y-48810779D01*
X70645000Y-48787500D01*
X70645000Y-48212500D01*
X70646144Y-48189221D01*
X70649563Y-48166166D01*
X70655227Y-48143557D01*
X70663079Y-48121613D01*
X70673044Y-48100543D01*
X70685026Y-48080552D01*
X70698910Y-48061832D01*
X70714562Y-48044562D01*
X70731832Y-48028910D01*
X70750552Y-48015026D01*
X70770543Y-48003044D01*
X70791613Y-47993079D01*
X70813557Y-47985227D01*
X70836166Y-47979563D01*
X70859221Y-47976144D01*
X70882500Y-47975000D01*
X71357500Y-47975000D01*
X71380779Y-47976144D01*
X71380779Y-47976144D01*
G37*
D13*
X71120000Y-48500000D03*
G04 #@! TD*
D12*
G04 #@! TO.C,C2*
G36*
X67570779Y-55596144D02*
X67593834Y-55599563D01*
X67616443Y-55605227D01*
X67638387Y-55613079D01*
X67659457Y-55623044D01*
X67679448Y-55635026D01*
X67698168Y-55648910D01*
X67715438Y-55664562D01*
X67731090Y-55681832D01*
X67744974Y-55700552D01*
X67756956Y-55720543D01*
X67766921Y-55741613D01*
X67774773Y-55763557D01*
X67780437Y-55786166D01*
X67783856Y-55809221D01*
X67785000Y-55832500D01*
X67785000Y-56407500D01*
X67783856Y-56430779D01*
X67780437Y-56453834D01*
X67774773Y-56476443D01*
X67766921Y-56498387D01*
X67756956Y-56519457D01*
X67744974Y-56539448D01*
X67731090Y-56558168D01*
X67715438Y-56575438D01*
X67698168Y-56591090D01*
X67679448Y-56604974D01*
X67659457Y-56616956D01*
X67638387Y-56626921D01*
X67616443Y-56634773D01*
X67593834Y-56640437D01*
X67570779Y-56643856D01*
X67547500Y-56645000D01*
X67072500Y-56645000D01*
X67049221Y-56643856D01*
X67026166Y-56640437D01*
X67003557Y-56634773D01*
X66981613Y-56626921D01*
X66960543Y-56616956D01*
X66940552Y-56604974D01*
X66921832Y-56591090D01*
X66904562Y-56575438D01*
X66888910Y-56558168D01*
X66875026Y-56539448D01*
X66863044Y-56519457D01*
X66853079Y-56498387D01*
X66845227Y-56476443D01*
X66839563Y-56453834D01*
X66836144Y-56430779D01*
X66835000Y-56407500D01*
X66835000Y-55832500D01*
X66836144Y-55809221D01*
X66839563Y-55786166D01*
X66845227Y-55763557D01*
X66853079Y-55741613D01*
X66863044Y-55720543D01*
X66875026Y-55700552D01*
X66888910Y-55681832D01*
X66904562Y-55664562D01*
X66921832Y-55648910D01*
X66940552Y-55635026D01*
X66960543Y-55623044D01*
X66981613Y-55613079D01*
X67003557Y-55605227D01*
X67026166Y-55599563D01*
X67049221Y-55596144D01*
X67072500Y-55595000D01*
X67547500Y-55595000D01*
X67570779Y-55596144D01*
X67570779Y-55596144D01*
G37*
D13*
X67310000Y-56120000D03*
D12*
G36*
X67570779Y-53846144D02*
X67593834Y-53849563D01*
X67616443Y-53855227D01*
X67638387Y-53863079D01*
X67659457Y-53873044D01*
X67679448Y-53885026D01*
X67698168Y-53898910D01*
X67715438Y-53914562D01*
X67731090Y-53931832D01*
X67744974Y-53950552D01*
X67756956Y-53970543D01*
X67766921Y-53991613D01*
X67774773Y-54013557D01*
X67780437Y-54036166D01*
X67783856Y-54059221D01*
X67785000Y-54082500D01*
X67785000Y-54657500D01*
X67783856Y-54680779D01*
X67780437Y-54703834D01*
X67774773Y-54726443D01*
X67766921Y-54748387D01*
X67756956Y-54769457D01*
X67744974Y-54789448D01*
X67731090Y-54808168D01*
X67715438Y-54825438D01*
X67698168Y-54841090D01*
X67679448Y-54854974D01*
X67659457Y-54866956D01*
X67638387Y-54876921D01*
X67616443Y-54884773D01*
X67593834Y-54890437D01*
X67570779Y-54893856D01*
X67547500Y-54895000D01*
X67072500Y-54895000D01*
X67049221Y-54893856D01*
X67026166Y-54890437D01*
X67003557Y-54884773D01*
X66981613Y-54876921D01*
X66960543Y-54866956D01*
X66940552Y-54854974D01*
X66921832Y-54841090D01*
X66904562Y-54825438D01*
X66888910Y-54808168D01*
X66875026Y-54789448D01*
X66863044Y-54769457D01*
X66853079Y-54748387D01*
X66845227Y-54726443D01*
X66839563Y-54703834D01*
X66836144Y-54680779D01*
X66835000Y-54657500D01*
X66835000Y-54082500D01*
X66836144Y-54059221D01*
X66839563Y-54036166D01*
X66845227Y-54013557D01*
X66853079Y-53991613D01*
X66863044Y-53970543D01*
X66875026Y-53950552D01*
X66888910Y-53931832D01*
X66904562Y-53914562D01*
X66921832Y-53898910D01*
X66940552Y-53885026D01*
X66960543Y-53873044D01*
X66981613Y-53863079D01*
X67003557Y-53855227D01*
X67026166Y-53849563D01*
X67049221Y-53846144D01*
X67072500Y-53845000D01*
X67547500Y-53845000D01*
X67570779Y-53846144D01*
X67570779Y-53846144D01*
G37*
D13*
X67310000Y-54370000D03*
G04 #@! TD*
D12*
G04 #@! TO.C,C3*
G36*
X61855779Y-53846144D02*
X61878834Y-53849563D01*
X61901443Y-53855227D01*
X61923387Y-53863079D01*
X61944457Y-53873044D01*
X61964448Y-53885026D01*
X61983168Y-53898910D01*
X62000438Y-53914562D01*
X62016090Y-53931832D01*
X62029974Y-53950552D01*
X62041956Y-53970543D01*
X62051921Y-53991613D01*
X62059773Y-54013557D01*
X62065437Y-54036166D01*
X62068856Y-54059221D01*
X62070000Y-54082500D01*
X62070000Y-54657500D01*
X62068856Y-54680779D01*
X62065437Y-54703834D01*
X62059773Y-54726443D01*
X62051921Y-54748387D01*
X62041956Y-54769457D01*
X62029974Y-54789448D01*
X62016090Y-54808168D01*
X62000438Y-54825438D01*
X61983168Y-54841090D01*
X61964448Y-54854974D01*
X61944457Y-54866956D01*
X61923387Y-54876921D01*
X61901443Y-54884773D01*
X61878834Y-54890437D01*
X61855779Y-54893856D01*
X61832500Y-54895000D01*
X61357500Y-54895000D01*
X61334221Y-54893856D01*
X61311166Y-54890437D01*
X61288557Y-54884773D01*
X61266613Y-54876921D01*
X61245543Y-54866956D01*
X61225552Y-54854974D01*
X61206832Y-54841090D01*
X61189562Y-54825438D01*
X61173910Y-54808168D01*
X61160026Y-54789448D01*
X61148044Y-54769457D01*
X61138079Y-54748387D01*
X61130227Y-54726443D01*
X61124563Y-54703834D01*
X61121144Y-54680779D01*
X61120000Y-54657500D01*
X61120000Y-54082500D01*
X61121144Y-54059221D01*
X61124563Y-54036166D01*
X61130227Y-54013557D01*
X61138079Y-53991613D01*
X61148044Y-53970543D01*
X61160026Y-53950552D01*
X61173910Y-53931832D01*
X61189562Y-53914562D01*
X61206832Y-53898910D01*
X61225552Y-53885026D01*
X61245543Y-53873044D01*
X61266613Y-53863079D01*
X61288557Y-53855227D01*
X61311166Y-53849563D01*
X61334221Y-53846144D01*
X61357500Y-53845000D01*
X61832500Y-53845000D01*
X61855779Y-53846144D01*
X61855779Y-53846144D01*
G37*
D13*
X61595000Y-54370000D03*
D12*
G36*
X61855779Y-55596144D02*
X61878834Y-55599563D01*
X61901443Y-55605227D01*
X61923387Y-55613079D01*
X61944457Y-55623044D01*
X61964448Y-55635026D01*
X61983168Y-55648910D01*
X62000438Y-55664562D01*
X62016090Y-55681832D01*
X62029974Y-55700552D01*
X62041956Y-55720543D01*
X62051921Y-55741613D01*
X62059773Y-55763557D01*
X62065437Y-55786166D01*
X62068856Y-55809221D01*
X62070000Y-55832500D01*
X62070000Y-56407500D01*
X62068856Y-56430779D01*
X62065437Y-56453834D01*
X62059773Y-56476443D01*
X62051921Y-56498387D01*
X62041956Y-56519457D01*
X62029974Y-56539448D01*
X62016090Y-56558168D01*
X62000438Y-56575438D01*
X61983168Y-56591090D01*
X61964448Y-56604974D01*
X61944457Y-56616956D01*
X61923387Y-56626921D01*
X61901443Y-56634773D01*
X61878834Y-56640437D01*
X61855779Y-56643856D01*
X61832500Y-56645000D01*
X61357500Y-56645000D01*
X61334221Y-56643856D01*
X61311166Y-56640437D01*
X61288557Y-56634773D01*
X61266613Y-56626921D01*
X61245543Y-56616956D01*
X61225552Y-56604974D01*
X61206832Y-56591090D01*
X61189562Y-56575438D01*
X61173910Y-56558168D01*
X61160026Y-56539448D01*
X61148044Y-56519457D01*
X61138079Y-56498387D01*
X61130227Y-56476443D01*
X61124563Y-56453834D01*
X61121144Y-56430779D01*
X61120000Y-56407500D01*
X61120000Y-55832500D01*
X61121144Y-55809221D01*
X61124563Y-55786166D01*
X61130227Y-55763557D01*
X61138079Y-55741613D01*
X61148044Y-55720543D01*
X61160026Y-55700552D01*
X61173910Y-55681832D01*
X61189562Y-55664562D01*
X61206832Y-55648910D01*
X61225552Y-55635026D01*
X61245543Y-55623044D01*
X61266613Y-55613079D01*
X61288557Y-55605227D01*
X61311166Y-55599563D01*
X61334221Y-55596144D01*
X61357500Y-55595000D01*
X61832500Y-55595000D01*
X61855779Y-55596144D01*
X61855779Y-55596144D01*
G37*
D13*
X61595000Y-56120000D03*
G04 #@! TD*
D12*
G04 #@! TO.C,C4*
G36*
X56140779Y-53846144D02*
X56163834Y-53849563D01*
X56186443Y-53855227D01*
X56208387Y-53863079D01*
X56229457Y-53873044D01*
X56249448Y-53885026D01*
X56268168Y-53898910D01*
X56285438Y-53914562D01*
X56301090Y-53931832D01*
X56314974Y-53950552D01*
X56326956Y-53970543D01*
X56336921Y-53991613D01*
X56344773Y-54013557D01*
X56350437Y-54036166D01*
X56353856Y-54059221D01*
X56355000Y-54082500D01*
X56355000Y-54657500D01*
X56353856Y-54680779D01*
X56350437Y-54703834D01*
X56344773Y-54726443D01*
X56336921Y-54748387D01*
X56326956Y-54769457D01*
X56314974Y-54789448D01*
X56301090Y-54808168D01*
X56285438Y-54825438D01*
X56268168Y-54841090D01*
X56249448Y-54854974D01*
X56229457Y-54866956D01*
X56208387Y-54876921D01*
X56186443Y-54884773D01*
X56163834Y-54890437D01*
X56140779Y-54893856D01*
X56117500Y-54895000D01*
X55642500Y-54895000D01*
X55619221Y-54893856D01*
X55596166Y-54890437D01*
X55573557Y-54884773D01*
X55551613Y-54876921D01*
X55530543Y-54866956D01*
X55510552Y-54854974D01*
X55491832Y-54841090D01*
X55474562Y-54825438D01*
X55458910Y-54808168D01*
X55445026Y-54789448D01*
X55433044Y-54769457D01*
X55423079Y-54748387D01*
X55415227Y-54726443D01*
X55409563Y-54703834D01*
X55406144Y-54680779D01*
X55405000Y-54657500D01*
X55405000Y-54082500D01*
X55406144Y-54059221D01*
X55409563Y-54036166D01*
X55415227Y-54013557D01*
X55423079Y-53991613D01*
X55433044Y-53970543D01*
X55445026Y-53950552D01*
X55458910Y-53931832D01*
X55474562Y-53914562D01*
X55491832Y-53898910D01*
X55510552Y-53885026D01*
X55530543Y-53873044D01*
X55551613Y-53863079D01*
X55573557Y-53855227D01*
X55596166Y-53849563D01*
X55619221Y-53846144D01*
X55642500Y-53845000D01*
X56117500Y-53845000D01*
X56140779Y-53846144D01*
X56140779Y-53846144D01*
G37*
D13*
X55880000Y-54370000D03*
D12*
G36*
X56140779Y-55596144D02*
X56163834Y-55599563D01*
X56186443Y-55605227D01*
X56208387Y-55613079D01*
X56229457Y-55623044D01*
X56249448Y-55635026D01*
X56268168Y-55648910D01*
X56285438Y-55664562D01*
X56301090Y-55681832D01*
X56314974Y-55700552D01*
X56326956Y-55720543D01*
X56336921Y-55741613D01*
X56344773Y-55763557D01*
X56350437Y-55786166D01*
X56353856Y-55809221D01*
X56355000Y-55832500D01*
X56355000Y-56407500D01*
X56353856Y-56430779D01*
X56350437Y-56453834D01*
X56344773Y-56476443D01*
X56336921Y-56498387D01*
X56326956Y-56519457D01*
X56314974Y-56539448D01*
X56301090Y-56558168D01*
X56285438Y-56575438D01*
X56268168Y-56591090D01*
X56249448Y-56604974D01*
X56229457Y-56616956D01*
X56208387Y-56626921D01*
X56186443Y-56634773D01*
X56163834Y-56640437D01*
X56140779Y-56643856D01*
X56117500Y-56645000D01*
X55642500Y-56645000D01*
X55619221Y-56643856D01*
X55596166Y-56640437D01*
X55573557Y-56634773D01*
X55551613Y-56626921D01*
X55530543Y-56616956D01*
X55510552Y-56604974D01*
X55491832Y-56591090D01*
X55474562Y-56575438D01*
X55458910Y-56558168D01*
X55445026Y-56539448D01*
X55433044Y-56519457D01*
X55423079Y-56498387D01*
X55415227Y-56476443D01*
X55409563Y-56453834D01*
X55406144Y-56430779D01*
X55405000Y-56407500D01*
X55405000Y-55832500D01*
X55406144Y-55809221D01*
X55409563Y-55786166D01*
X55415227Y-55763557D01*
X55423079Y-55741613D01*
X55433044Y-55720543D01*
X55445026Y-55700552D01*
X55458910Y-55681832D01*
X55474562Y-55664562D01*
X55491832Y-55648910D01*
X55510552Y-55635026D01*
X55530543Y-55623044D01*
X55551613Y-55613079D01*
X55573557Y-55605227D01*
X55596166Y-55599563D01*
X55619221Y-55596144D01*
X55642500Y-55595000D01*
X56117500Y-55595000D01*
X56140779Y-55596144D01*
X56140779Y-55596144D01*
G37*
D13*
X55880000Y-56120000D03*
G04 #@! TD*
D12*
G04 #@! TO.C,C5*
G36*
X54680779Y-59216144D02*
X54703834Y-59219563D01*
X54726443Y-59225227D01*
X54748387Y-59233079D01*
X54769457Y-59243044D01*
X54789448Y-59255026D01*
X54808168Y-59268910D01*
X54825438Y-59284562D01*
X54841090Y-59301832D01*
X54854974Y-59320552D01*
X54866956Y-59340543D01*
X54876921Y-59361613D01*
X54884773Y-59383557D01*
X54890437Y-59406166D01*
X54893856Y-59429221D01*
X54895000Y-59452500D01*
X54895000Y-59927500D01*
X54893856Y-59950779D01*
X54890437Y-59973834D01*
X54884773Y-59996443D01*
X54876921Y-60018387D01*
X54866956Y-60039457D01*
X54854974Y-60059448D01*
X54841090Y-60078168D01*
X54825438Y-60095438D01*
X54808168Y-60111090D01*
X54789448Y-60124974D01*
X54769457Y-60136956D01*
X54748387Y-60146921D01*
X54726443Y-60154773D01*
X54703834Y-60160437D01*
X54680779Y-60163856D01*
X54657500Y-60165000D01*
X54082500Y-60165000D01*
X54059221Y-60163856D01*
X54036166Y-60160437D01*
X54013557Y-60154773D01*
X53991613Y-60146921D01*
X53970543Y-60136956D01*
X53950552Y-60124974D01*
X53931832Y-60111090D01*
X53914562Y-60095438D01*
X53898910Y-60078168D01*
X53885026Y-60059448D01*
X53873044Y-60039457D01*
X53863079Y-60018387D01*
X53855227Y-59996443D01*
X53849563Y-59973834D01*
X53846144Y-59950779D01*
X53845000Y-59927500D01*
X53845000Y-59452500D01*
X53846144Y-59429221D01*
X53849563Y-59406166D01*
X53855227Y-59383557D01*
X53863079Y-59361613D01*
X53873044Y-59340543D01*
X53885026Y-59320552D01*
X53898910Y-59301832D01*
X53914562Y-59284562D01*
X53931832Y-59268910D01*
X53950552Y-59255026D01*
X53970543Y-59243044D01*
X53991613Y-59233079D01*
X54013557Y-59225227D01*
X54036166Y-59219563D01*
X54059221Y-59216144D01*
X54082500Y-59215000D01*
X54657500Y-59215000D01*
X54680779Y-59216144D01*
X54680779Y-59216144D01*
G37*
D13*
X54370000Y-59690000D03*
D12*
G36*
X56430779Y-59216144D02*
X56453834Y-59219563D01*
X56476443Y-59225227D01*
X56498387Y-59233079D01*
X56519457Y-59243044D01*
X56539448Y-59255026D01*
X56558168Y-59268910D01*
X56575438Y-59284562D01*
X56591090Y-59301832D01*
X56604974Y-59320552D01*
X56616956Y-59340543D01*
X56626921Y-59361613D01*
X56634773Y-59383557D01*
X56640437Y-59406166D01*
X56643856Y-59429221D01*
X56645000Y-59452500D01*
X56645000Y-59927500D01*
X56643856Y-59950779D01*
X56640437Y-59973834D01*
X56634773Y-59996443D01*
X56626921Y-60018387D01*
X56616956Y-60039457D01*
X56604974Y-60059448D01*
X56591090Y-60078168D01*
X56575438Y-60095438D01*
X56558168Y-60111090D01*
X56539448Y-60124974D01*
X56519457Y-60136956D01*
X56498387Y-60146921D01*
X56476443Y-60154773D01*
X56453834Y-60160437D01*
X56430779Y-60163856D01*
X56407500Y-60165000D01*
X55832500Y-60165000D01*
X55809221Y-60163856D01*
X55786166Y-60160437D01*
X55763557Y-60154773D01*
X55741613Y-60146921D01*
X55720543Y-60136956D01*
X55700552Y-60124974D01*
X55681832Y-60111090D01*
X55664562Y-60095438D01*
X55648910Y-60078168D01*
X55635026Y-60059448D01*
X55623044Y-60039457D01*
X55613079Y-60018387D01*
X55605227Y-59996443D01*
X55599563Y-59973834D01*
X55596144Y-59950779D01*
X55595000Y-59927500D01*
X55595000Y-59452500D01*
X55596144Y-59429221D01*
X55599563Y-59406166D01*
X55605227Y-59383557D01*
X55613079Y-59361613D01*
X55623044Y-59340543D01*
X55635026Y-59320552D01*
X55648910Y-59301832D01*
X55664562Y-59284562D01*
X55681832Y-59268910D01*
X55700552Y-59255026D01*
X55720543Y-59243044D01*
X55741613Y-59233079D01*
X55763557Y-59225227D01*
X55786166Y-59219563D01*
X55809221Y-59216144D01*
X55832500Y-59215000D01*
X56407500Y-59215000D01*
X56430779Y-59216144D01*
X56430779Y-59216144D01*
G37*
D13*
X56120000Y-59690000D03*
G04 #@! TD*
D12*
G04 #@! TO.C,D4*
G36*
X37107691Y-46071053D02*
X37128926Y-46074203D01*
X37149750Y-46079419D01*
X37169962Y-46086651D01*
X37189368Y-46095830D01*
X37207781Y-46106866D01*
X37225024Y-46119654D01*
X37240930Y-46134070D01*
X37255346Y-46149976D01*
X37268134Y-46167219D01*
X37279170Y-46185632D01*
X37288349Y-46205038D01*
X37295581Y-46225250D01*
X37300797Y-46246074D01*
X37303947Y-46267309D01*
X37305000Y-46288750D01*
X37305000Y-46726250D01*
X37303947Y-46747691D01*
X37300797Y-46768926D01*
X37295581Y-46789750D01*
X37288349Y-46809962D01*
X37279170Y-46829368D01*
X37268134Y-46847781D01*
X37255346Y-46865024D01*
X37240930Y-46880930D01*
X37225024Y-46895346D01*
X37207781Y-46908134D01*
X37189368Y-46919170D01*
X37169962Y-46928349D01*
X37149750Y-46935581D01*
X37128926Y-46940797D01*
X37107691Y-46943947D01*
X37086250Y-46945000D01*
X36573750Y-46945000D01*
X36552309Y-46943947D01*
X36531074Y-46940797D01*
X36510250Y-46935581D01*
X36490038Y-46928349D01*
X36470632Y-46919170D01*
X36452219Y-46908134D01*
X36434976Y-46895346D01*
X36419070Y-46880930D01*
X36404654Y-46865024D01*
X36391866Y-46847781D01*
X36380830Y-46829368D01*
X36371651Y-46809962D01*
X36364419Y-46789750D01*
X36359203Y-46768926D01*
X36356053Y-46747691D01*
X36355000Y-46726250D01*
X36355000Y-46288750D01*
X36356053Y-46267309D01*
X36359203Y-46246074D01*
X36364419Y-46225250D01*
X36371651Y-46205038D01*
X36380830Y-46185632D01*
X36391866Y-46167219D01*
X36404654Y-46149976D01*
X36419070Y-46134070D01*
X36434976Y-46119654D01*
X36452219Y-46106866D01*
X36470632Y-46095830D01*
X36490038Y-46086651D01*
X36510250Y-46079419D01*
X36531074Y-46074203D01*
X36552309Y-46071053D01*
X36573750Y-46070000D01*
X37086250Y-46070000D01*
X37107691Y-46071053D01*
X37107691Y-46071053D01*
G37*
D14*
X36830000Y-46507500D03*
D12*
G36*
X37107691Y-44496053D02*
X37128926Y-44499203D01*
X37149750Y-44504419D01*
X37169962Y-44511651D01*
X37189368Y-44520830D01*
X37207781Y-44531866D01*
X37225024Y-44544654D01*
X37240930Y-44559070D01*
X37255346Y-44574976D01*
X37268134Y-44592219D01*
X37279170Y-44610632D01*
X37288349Y-44630038D01*
X37295581Y-44650250D01*
X37300797Y-44671074D01*
X37303947Y-44692309D01*
X37305000Y-44713750D01*
X37305000Y-45151250D01*
X37303947Y-45172691D01*
X37300797Y-45193926D01*
X37295581Y-45214750D01*
X37288349Y-45234962D01*
X37279170Y-45254368D01*
X37268134Y-45272781D01*
X37255346Y-45290024D01*
X37240930Y-45305930D01*
X37225024Y-45320346D01*
X37207781Y-45333134D01*
X37189368Y-45344170D01*
X37169962Y-45353349D01*
X37149750Y-45360581D01*
X37128926Y-45365797D01*
X37107691Y-45368947D01*
X37086250Y-45370000D01*
X36573750Y-45370000D01*
X36552309Y-45368947D01*
X36531074Y-45365797D01*
X36510250Y-45360581D01*
X36490038Y-45353349D01*
X36470632Y-45344170D01*
X36452219Y-45333134D01*
X36434976Y-45320346D01*
X36419070Y-45305930D01*
X36404654Y-45290024D01*
X36391866Y-45272781D01*
X36380830Y-45254368D01*
X36371651Y-45234962D01*
X36364419Y-45214750D01*
X36359203Y-45193926D01*
X36356053Y-45172691D01*
X36355000Y-45151250D01*
X36355000Y-44713750D01*
X36356053Y-44692309D01*
X36359203Y-44671074D01*
X36364419Y-44650250D01*
X36371651Y-44630038D01*
X36380830Y-44610632D01*
X36391866Y-44592219D01*
X36404654Y-44574976D01*
X36419070Y-44559070D01*
X36434976Y-44544654D01*
X36452219Y-44531866D01*
X36470632Y-44520830D01*
X36490038Y-44511651D01*
X36510250Y-44504419D01*
X36531074Y-44499203D01*
X36552309Y-44496053D01*
X36573750Y-44495000D01*
X37086250Y-44495000D01*
X37107691Y-44496053D01*
X37107691Y-44496053D01*
G37*
D14*
X36830000Y-44932500D03*
G04 #@! TD*
D15*
G04 #@! TO.C,U2*
X49775000Y-54680000D03*
X49775000Y-55180000D03*
X49775000Y-55680000D03*
X49775000Y-56180000D03*
D16*
X50500000Y-56905000D03*
X51000000Y-56905000D03*
X51500000Y-56905000D03*
X52000000Y-56905000D03*
D15*
X52725000Y-56180000D03*
X52725000Y-55680000D03*
X52725000Y-55180000D03*
X52725000Y-54680000D03*
D16*
X52000000Y-53955000D03*
X51500000Y-53955000D03*
X51000000Y-53955000D03*
X50500000Y-53955000D03*
D17*
X50800000Y-55880000D03*
X51700000Y-55880000D03*
X51700000Y-54980000D03*
X50800000Y-54980000D03*
G04 #@! TD*
D18*
G04 #@! TO.C,U1*
X39845000Y-44450000D03*
X39845000Y-45720000D03*
X39845000Y-46990000D03*
X39845000Y-48260000D03*
X39845000Y-49530000D03*
X39845000Y-50800000D03*
X39845000Y-52070000D03*
X45245000Y-52070000D03*
X45245000Y-50800000D03*
X45245000Y-49530000D03*
X45245000Y-48260000D03*
X45245000Y-46990000D03*
X45245000Y-45720000D03*
X45245000Y-44450000D03*
G04 #@! TD*
D19*
G04 #@! TO.C,U4*
X67920000Y-49925000D03*
X67920000Y-45325000D03*
X67920000Y-47625000D03*
D20*
X61620000Y-47625000D03*
G04 #@! TD*
G04 #@! TO.C,U5*
X52095000Y-47625000D03*
D19*
X58395000Y-47625000D03*
X58395000Y-45325000D03*
X58395000Y-49925000D03*
G04 #@! TD*
D12*
G04 #@! TO.C,R1*
G36*
X83445779Y-49401144D02*
X83468834Y-49404563D01*
X83491443Y-49410227D01*
X83513387Y-49418079D01*
X83534457Y-49428044D01*
X83554448Y-49440026D01*
X83573168Y-49453910D01*
X83590438Y-49469562D01*
X83606090Y-49486832D01*
X83619974Y-49505552D01*
X83631956Y-49525543D01*
X83641921Y-49546613D01*
X83649773Y-49568557D01*
X83655437Y-49591166D01*
X83658856Y-49614221D01*
X83660000Y-49637500D01*
X83660000Y-50212500D01*
X83658856Y-50235779D01*
X83655437Y-50258834D01*
X83649773Y-50281443D01*
X83641921Y-50303387D01*
X83631956Y-50324457D01*
X83619974Y-50344448D01*
X83606090Y-50363168D01*
X83590438Y-50380438D01*
X83573168Y-50396090D01*
X83554448Y-50409974D01*
X83534457Y-50421956D01*
X83513387Y-50431921D01*
X83491443Y-50439773D01*
X83468834Y-50445437D01*
X83445779Y-50448856D01*
X83422500Y-50450000D01*
X82947500Y-50450000D01*
X82924221Y-50448856D01*
X82901166Y-50445437D01*
X82878557Y-50439773D01*
X82856613Y-50431921D01*
X82835543Y-50421956D01*
X82815552Y-50409974D01*
X82796832Y-50396090D01*
X82779562Y-50380438D01*
X82763910Y-50363168D01*
X82750026Y-50344448D01*
X82738044Y-50324457D01*
X82728079Y-50303387D01*
X82720227Y-50281443D01*
X82714563Y-50258834D01*
X82711144Y-50235779D01*
X82710000Y-50212500D01*
X82710000Y-49637500D01*
X82711144Y-49614221D01*
X82714563Y-49591166D01*
X82720227Y-49568557D01*
X82728079Y-49546613D01*
X82738044Y-49525543D01*
X82750026Y-49505552D01*
X82763910Y-49486832D01*
X82779562Y-49469562D01*
X82796832Y-49453910D01*
X82815552Y-49440026D01*
X82835543Y-49428044D01*
X82856613Y-49418079D01*
X82878557Y-49410227D01*
X82901166Y-49404563D01*
X82924221Y-49401144D01*
X82947500Y-49400000D01*
X83422500Y-49400000D01*
X83445779Y-49401144D01*
X83445779Y-49401144D01*
G37*
D13*
X83185000Y-49925000D03*
D12*
G36*
X83445779Y-51151144D02*
X83468834Y-51154563D01*
X83491443Y-51160227D01*
X83513387Y-51168079D01*
X83534457Y-51178044D01*
X83554448Y-51190026D01*
X83573168Y-51203910D01*
X83590438Y-51219562D01*
X83606090Y-51236832D01*
X83619974Y-51255552D01*
X83631956Y-51275543D01*
X83641921Y-51296613D01*
X83649773Y-51318557D01*
X83655437Y-51341166D01*
X83658856Y-51364221D01*
X83660000Y-51387500D01*
X83660000Y-51962500D01*
X83658856Y-51985779D01*
X83655437Y-52008834D01*
X83649773Y-52031443D01*
X83641921Y-52053387D01*
X83631956Y-52074457D01*
X83619974Y-52094448D01*
X83606090Y-52113168D01*
X83590438Y-52130438D01*
X83573168Y-52146090D01*
X83554448Y-52159974D01*
X83534457Y-52171956D01*
X83513387Y-52181921D01*
X83491443Y-52189773D01*
X83468834Y-52195437D01*
X83445779Y-52198856D01*
X83422500Y-52200000D01*
X82947500Y-52200000D01*
X82924221Y-52198856D01*
X82901166Y-52195437D01*
X82878557Y-52189773D01*
X82856613Y-52181921D01*
X82835543Y-52171956D01*
X82815552Y-52159974D01*
X82796832Y-52146090D01*
X82779562Y-52130438D01*
X82763910Y-52113168D01*
X82750026Y-52094448D01*
X82738044Y-52074457D01*
X82728079Y-52053387D01*
X82720227Y-52031443D01*
X82714563Y-52008834D01*
X82711144Y-51985779D01*
X82710000Y-51962500D01*
X82710000Y-51387500D01*
X82711144Y-51364221D01*
X82714563Y-51341166D01*
X82720227Y-51318557D01*
X82728079Y-51296613D01*
X82738044Y-51275543D01*
X82750026Y-51255552D01*
X82763910Y-51236832D01*
X82779562Y-51219562D01*
X82796832Y-51203910D01*
X82815552Y-51190026D01*
X82835543Y-51178044D01*
X82856613Y-51168079D01*
X82878557Y-51160227D01*
X82901166Y-51154563D01*
X82924221Y-51151144D01*
X82947500Y-51150000D01*
X83422500Y-51150000D01*
X83445779Y-51151144D01*
X83445779Y-51151144D01*
G37*
D13*
X83185000Y-51675000D03*
G04 #@! TD*
D12*
G04 #@! TO.C,R2*
G36*
X83445779Y-55596144D02*
X83468834Y-55599563D01*
X83491443Y-55605227D01*
X83513387Y-55613079D01*
X83534457Y-55623044D01*
X83554448Y-55635026D01*
X83573168Y-55648910D01*
X83590438Y-55664562D01*
X83606090Y-55681832D01*
X83619974Y-55700552D01*
X83631956Y-55720543D01*
X83641921Y-55741613D01*
X83649773Y-55763557D01*
X83655437Y-55786166D01*
X83658856Y-55809221D01*
X83660000Y-55832500D01*
X83660000Y-56407500D01*
X83658856Y-56430779D01*
X83655437Y-56453834D01*
X83649773Y-56476443D01*
X83641921Y-56498387D01*
X83631956Y-56519457D01*
X83619974Y-56539448D01*
X83606090Y-56558168D01*
X83590438Y-56575438D01*
X83573168Y-56591090D01*
X83554448Y-56604974D01*
X83534457Y-56616956D01*
X83513387Y-56626921D01*
X83491443Y-56634773D01*
X83468834Y-56640437D01*
X83445779Y-56643856D01*
X83422500Y-56645000D01*
X82947500Y-56645000D01*
X82924221Y-56643856D01*
X82901166Y-56640437D01*
X82878557Y-56634773D01*
X82856613Y-56626921D01*
X82835543Y-56616956D01*
X82815552Y-56604974D01*
X82796832Y-56591090D01*
X82779562Y-56575438D01*
X82763910Y-56558168D01*
X82750026Y-56539448D01*
X82738044Y-56519457D01*
X82728079Y-56498387D01*
X82720227Y-56476443D01*
X82714563Y-56453834D01*
X82711144Y-56430779D01*
X82710000Y-56407500D01*
X82710000Y-55832500D01*
X82711144Y-55809221D01*
X82714563Y-55786166D01*
X82720227Y-55763557D01*
X82728079Y-55741613D01*
X82738044Y-55720543D01*
X82750026Y-55700552D01*
X82763910Y-55681832D01*
X82779562Y-55664562D01*
X82796832Y-55648910D01*
X82815552Y-55635026D01*
X82835543Y-55623044D01*
X82856613Y-55613079D01*
X82878557Y-55605227D01*
X82901166Y-55599563D01*
X82924221Y-55596144D01*
X82947500Y-55595000D01*
X83422500Y-55595000D01*
X83445779Y-55596144D01*
X83445779Y-55596144D01*
G37*
D13*
X83185000Y-56120000D03*
D12*
G36*
X83445779Y-53846144D02*
X83468834Y-53849563D01*
X83491443Y-53855227D01*
X83513387Y-53863079D01*
X83534457Y-53873044D01*
X83554448Y-53885026D01*
X83573168Y-53898910D01*
X83590438Y-53914562D01*
X83606090Y-53931832D01*
X83619974Y-53950552D01*
X83631956Y-53970543D01*
X83641921Y-53991613D01*
X83649773Y-54013557D01*
X83655437Y-54036166D01*
X83658856Y-54059221D01*
X83660000Y-54082500D01*
X83660000Y-54657500D01*
X83658856Y-54680779D01*
X83655437Y-54703834D01*
X83649773Y-54726443D01*
X83641921Y-54748387D01*
X83631956Y-54769457D01*
X83619974Y-54789448D01*
X83606090Y-54808168D01*
X83590438Y-54825438D01*
X83573168Y-54841090D01*
X83554448Y-54854974D01*
X83534457Y-54866956D01*
X83513387Y-54876921D01*
X83491443Y-54884773D01*
X83468834Y-54890437D01*
X83445779Y-54893856D01*
X83422500Y-54895000D01*
X82947500Y-54895000D01*
X82924221Y-54893856D01*
X82901166Y-54890437D01*
X82878557Y-54884773D01*
X82856613Y-54876921D01*
X82835543Y-54866956D01*
X82815552Y-54854974D01*
X82796832Y-54841090D01*
X82779562Y-54825438D01*
X82763910Y-54808168D01*
X82750026Y-54789448D01*
X82738044Y-54769457D01*
X82728079Y-54748387D01*
X82720227Y-54726443D01*
X82714563Y-54703834D01*
X82711144Y-54680779D01*
X82710000Y-54657500D01*
X82710000Y-54082500D01*
X82711144Y-54059221D01*
X82714563Y-54036166D01*
X82720227Y-54013557D01*
X82728079Y-53991613D01*
X82738044Y-53970543D01*
X82750026Y-53950552D01*
X82763910Y-53931832D01*
X82779562Y-53914562D01*
X82796832Y-53898910D01*
X82815552Y-53885026D01*
X82835543Y-53873044D01*
X82856613Y-53863079D01*
X82878557Y-53855227D01*
X82901166Y-53849563D01*
X82924221Y-53846144D01*
X82947500Y-53845000D01*
X83422500Y-53845000D01*
X83445779Y-53846144D01*
X83445779Y-53846144D01*
G37*
D13*
X83185000Y-54370000D03*
G04 #@! TD*
D12*
G04 #@! TO.C,R3*
G36*
X45980779Y-57501144D02*
X46003834Y-57504563D01*
X46026443Y-57510227D01*
X46048387Y-57518079D01*
X46069457Y-57528044D01*
X46089448Y-57540026D01*
X46108168Y-57553910D01*
X46125438Y-57569562D01*
X46141090Y-57586832D01*
X46154974Y-57605552D01*
X46166956Y-57625543D01*
X46176921Y-57646613D01*
X46184773Y-57668557D01*
X46190437Y-57691166D01*
X46193856Y-57714221D01*
X46195000Y-57737500D01*
X46195000Y-58312500D01*
X46193856Y-58335779D01*
X46190437Y-58358834D01*
X46184773Y-58381443D01*
X46176921Y-58403387D01*
X46166956Y-58424457D01*
X46154974Y-58444448D01*
X46141090Y-58463168D01*
X46125438Y-58480438D01*
X46108168Y-58496090D01*
X46089448Y-58509974D01*
X46069457Y-58521956D01*
X46048387Y-58531921D01*
X46026443Y-58539773D01*
X46003834Y-58545437D01*
X45980779Y-58548856D01*
X45957500Y-58550000D01*
X45482500Y-58550000D01*
X45459221Y-58548856D01*
X45436166Y-58545437D01*
X45413557Y-58539773D01*
X45391613Y-58531921D01*
X45370543Y-58521956D01*
X45350552Y-58509974D01*
X45331832Y-58496090D01*
X45314562Y-58480438D01*
X45298910Y-58463168D01*
X45285026Y-58444448D01*
X45273044Y-58424457D01*
X45263079Y-58403387D01*
X45255227Y-58381443D01*
X45249563Y-58358834D01*
X45246144Y-58335779D01*
X45245000Y-58312500D01*
X45245000Y-57737500D01*
X45246144Y-57714221D01*
X45249563Y-57691166D01*
X45255227Y-57668557D01*
X45263079Y-57646613D01*
X45273044Y-57625543D01*
X45285026Y-57605552D01*
X45298910Y-57586832D01*
X45314562Y-57569562D01*
X45331832Y-57553910D01*
X45350552Y-57540026D01*
X45370543Y-57528044D01*
X45391613Y-57518079D01*
X45413557Y-57510227D01*
X45436166Y-57504563D01*
X45459221Y-57501144D01*
X45482500Y-57500000D01*
X45957500Y-57500000D01*
X45980779Y-57501144D01*
X45980779Y-57501144D01*
G37*
D13*
X45720000Y-58025000D03*
D12*
G36*
X45980779Y-55751144D02*
X46003834Y-55754563D01*
X46026443Y-55760227D01*
X46048387Y-55768079D01*
X46069457Y-55778044D01*
X46089448Y-55790026D01*
X46108168Y-55803910D01*
X46125438Y-55819562D01*
X46141090Y-55836832D01*
X46154974Y-55855552D01*
X46166956Y-55875543D01*
X46176921Y-55896613D01*
X46184773Y-55918557D01*
X46190437Y-55941166D01*
X46193856Y-55964221D01*
X46195000Y-55987500D01*
X46195000Y-56562500D01*
X46193856Y-56585779D01*
X46190437Y-56608834D01*
X46184773Y-56631443D01*
X46176921Y-56653387D01*
X46166956Y-56674457D01*
X46154974Y-56694448D01*
X46141090Y-56713168D01*
X46125438Y-56730438D01*
X46108168Y-56746090D01*
X46089448Y-56759974D01*
X46069457Y-56771956D01*
X46048387Y-56781921D01*
X46026443Y-56789773D01*
X46003834Y-56795437D01*
X45980779Y-56798856D01*
X45957500Y-56800000D01*
X45482500Y-56800000D01*
X45459221Y-56798856D01*
X45436166Y-56795437D01*
X45413557Y-56789773D01*
X45391613Y-56781921D01*
X45370543Y-56771956D01*
X45350552Y-56759974D01*
X45331832Y-56746090D01*
X45314562Y-56730438D01*
X45298910Y-56713168D01*
X45285026Y-56694448D01*
X45273044Y-56674457D01*
X45263079Y-56653387D01*
X45255227Y-56631443D01*
X45249563Y-56608834D01*
X45246144Y-56585779D01*
X45245000Y-56562500D01*
X45245000Y-55987500D01*
X45246144Y-55964221D01*
X45249563Y-55941166D01*
X45255227Y-55918557D01*
X45263079Y-55896613D01*
X45273044Y-55875543D01*
X45285026Y-55855552D01*
X45298910Y-55836832D01*
X45314562Y-55819562D01*
X45331832Y-55803910D01*
X45350552Y-55790026D01*
X45370543Y-55778044D01*
X45391613Y-55768079D01*
X45413557Y-55760227D01*
X45436166Y-55754563D01*
X45459221Y-55751144D01*
X45482500Y-55750000D01*
X45957500Y-55750000D01*
X45980779Y-55751144D01*
X45980779Y-55751144D01*
G37*
D13*
X45720000Y-56275000D03*
G04 #@! TD*
D12*
G04 #@! TO.C,R4*
G36*
X48330779Y-50326144D02*
X48353834Y-50329563D01*
X48376443Y-50335227D01*
X48398387Y-50343079D01*
X48419457Y-50353044D01*
X48439448Y-50365026D01*
X48458168Y-50378910D01*
X48475438Y-50394562D01*
X48491090Y-50411832D01*
X48504974Y-50430552D01*
X48516956Y-50450543D01*
X48526921Y-50471613D01*
X48534773Y-50493557D01*
X48540437Y-50516166D01*
X48543856Y-50539221D01*
X48545000Y-50562500D01*
X48545000Y-51037500D01*
X48543856Y-51060779D01*
X48540437Y-51083834D01*
X48534773Y-51106443D01*
X48526921Y-51128387D01*
X48516956Y-51149457D01*
X48504974Y-51169448D01*
X48491090Y-51188168D01*
X48475438Y-51205438D01*
X48458168Y-51221090D01*
X48439448Y-51234974D01*
X48419457Y-51246956D01*
X48398387Y-51256921D01*
X48376443Y-51264773D01*
X48353834Y-51270437D01*
X48330779Y-51273856D01*
X48307500Y-51275000D01*
X47732500Y-51275000D01*
X47709221Y-51273856D01*
X47686166Y-51270437D01*
X47663557Y-51264773D01*
X47641613Y-51256921D01*
X47620543Y-51246956D01*
X47600552Y-51234974D01*
X47581832Y-51221090D01*
X47564562Y-51205438D01*
X47548910Y-51188168D01*
X47535026Y-51169448D01*
X47523044Y-51149457D01*
X47513079Y-51128387D01*
X47505227Y-51106443D01*
X47499563Y-51083834D01*
X47496144Y-51060779D01*
X47495000Y-51037500D01*
X47495000Y-50562500D01*
X47496144Y-50539221D01*
X47499563Y-50516166D01*
X47505227Y-50493557D01*
X47513079Y-50471613D01*
X47523044Y-50450543D01*
X47535026Y-50430552D01*
X47548910Y-50411832D01*
X47564562Y-50394562D01*
X47581832Y-50378910D01*
X47600552Y-50365026D01*
X47620543Y-50353044D01*
X47641613Y-50343079D01*
X47663557Y-50335227D01*
X47686166Y-50329563D01*
X47709221Y-50326144D01*
X47732500Y-50325000D01*
X48307500Y-50325000D01*
X48330779Y-50326144D01*
X48330779Y-50326144D01*
G37*
D13*
X48020000Y-50800000D03*
D12*
G36*
X50080779Y-50326144D02*
X50103834Y-50329563D01*
X50126443Y-50335227D01*
X50148387Y-50343079D01*
X50169457Y-50353044D01*
X50189448Y-50365026D01*
X50208168Y-50378910D01*
X50225438Y-50394562D01*
X50241090Y-50411832D01*
X50254974Y-50430552D01*
X50266956Y-50450543D01*
X50276921Y-50471613D01*
X50284773Y-50493557D01*
X50290437Y-50516166D01*
X50293856Y-50539221D01*
X50295000Y-50562500D01*
X50295000Y-51037500D01*
X50293856Y-51060779D01*
X50290437Y-51083834D01*
X50284773Y-51106443D01*
X50276921Y-51128387D01*
X50266956Y-51149457D01*
X50254974Y-51169448D01*
X50241090Y-51188168D01*
X50225438Y-51205438D01*
X50208168Y-51221090D01*
X50189448Y-51234974D01*
X50169457Y-51246956D01*
X50148387Y-51256921D01*
X50126443Y-51264773D01*
X50103834Y-51270437D01*
X50080779Y-51273856D01*
X50057500Y-51275000D01*
X49482500Y-51275000D01*
X49459221Y-51273856D01*
X49436166Y-51270437D01*
X49413557Y-51264773D01*
X49391613Y-51256921D01*
X49370543Y-51246956D01*
X49350552Y-51234974D01*
X49331832Y-51221090D01*
X49314562Y-51205438D01*
X49298910Y-51188168D01*
X49285026Y-51169448D01*
X49273044Y-51149457D01*
X49263079Y-51128387D01*
X49255227Y-51106443D01*
X49249563Y-51083834D01*
X49246144Y-51060779D01*
X49245000Y-51037500D01*
X49245000Y-50562500D01*
X49246144Y-50539221D01*
X49249563Y-50516166D01*
X49255227Y-50493557D01*
X49263079Y-50471613D01*
X49273044Y-50450543D01*
X49285026Y-50430552D01*
X49298910Y-50411832D01*
X49314562Y-50394562D01*
X49331832Y-50378910D01*
X49350552Y-50365026D01*
X49370543Y-50353044D01*
X49391613Y-50343079D01*
X49413557Y-50335227D01*
X49436166Y-50329563D01*
X49459221Y-50326144D01*
X49482500Y-50325000D01*
X50057500Y-50325000D01*
X50080779Y-50326144D01*
X50080779Y-50326144D01*
G37*
D13*
X49770000Y-50800000D03*
G04 #@! TD*
D12*
G04 #@! TO.C,R5*
G36*
X37090779Y-48766144D02*
X37113834Y-48769563D01*
X37136443Y-48775227D01*
X37158387Y-48783079D01*
X37179457Y-48793044D01*
X37199448Y-48805026D01*
X37218168Y-48818910D01*
X37235438Y-48834562D01*
X37251090Y-48851832D01*
X37264974Y-48870552D01*
X37276956Y-48890543D01*
X37286921Y-48911613D01*
X37294773Y-48933557D01*
X37300437Y-48956166D01*
X37303856Y-48979221D01*
X37305000Y-49002500D01*
X37305000Y-49577500D01*
X37303856Y-49600779D01*
X37300437Y-49623834D01*
X37294773Y-49646443D01*
X37286921Y-49668387D01*
X37276956Y-49689457D01*
X37264974Y-49709448D01*
X37251090Y-49728168D01*
X37235438Y-49745438D01*
X37218168Y-49761090D01*
X37199448Y-49774974D01*
X37179457Y-49786956D01*
X37158387Y-49796921D01*
X37136443Y-49804773D01*
X37113834Y-49810437D01*
X37090779Y-49813856D01*
X37067500Y-49815000D01*
X36592500Y-49815000D01*
X36569221Y-49813856D01*
X36546166Y-49810437D01*
X36523557Y-49804773D01*
X36501613Y-49796921D01*
X36480543Y-49786956D01*
X36460552Y-49774974D01*
X36441832Y-49761090D01*
X36424562Y-49745438D01*
X36408910Y-49728168D01*
X36395026Y-49709448D01*
X36383044Y-49689457D01*
X36373079Y-49668387D01*
X36365227Y-49646443D01*
X36359563Y-49623834D01*
X36356144Y-49600779D01*
X36355000Y-49577500D01*
X36355000Y-49002500D01*
X36356144Y-48979221D01*
X36359563Y-48956166D01*
X36365227Y-48933557D01*
X36373079Y-48911613D01*
X36383044Y-48890543D01*
X36395026Y-48870552D01*
X36408910Y-48851832D01*
X36424562Y-48834562D01*
X36441832Y-48818910D01*
X36460552Y-48805026D01*
X36480543Y-48793044D01*
X36501613Y-48783079D01*
X36523557Y-48775227D01*
X36546166Y-48769563D01*
X36569221Y-48766144D01*
X36592500Y-48765000D01*
X37067500Y-48765000D01*
X37090779Y-48766144D01*
X37090779Y-48766144D01*
G37*
D13*
X36830000Y-49290000D03*
D12*
G36*
X37090779Y-50516144D02*
X37113834Y-50519563D01*
X37136443Y-50525227D01*
X37158387Y-50533079D01*
X37179457Y-50543044D01*
X37199448Y-50555026D01*
X37218168Y-50568910D01*
X37235438Y-50584562D01*
X37251090Y-50601832D01*
X37264974Y-50620552D01*
X37276956Y-50640543D01*
X37286921Y-50661613D01*
X37294773Y-50683557D01*
X37300437Y-50706166D01*
X37303856Y-50729221D01*
X37305000Y-50752500D01*
X37305000Y-51327500D01*
X37303856Y-51350779D01*
X37300437Y-51373834D01*
X37294773Y-51396443D01*
X37286921Y-51418387D01*
X37276956Y-51439457D01*
X37264974Y-51459448D01*
X37251090Y-51478168D01*
X37235438Y-51495438D01*
X37218168Y-51511090D01*
X37199448Y-51524974D01*
X37179457Y-51536956D01*
X37158387Y-51546921D01*
X37136443Y-51554773D01*
X37113834Y-51560437D01*
X37090779Y-51563856D01*
X37067500Y-51565000D01*
X36592500Y-51565000D01*
X36569221Y-51563856D01*
X36546166Y-51560437D01*
X36523557Y-51554773D01*
X36501613Y-51546921D01*
X36480543Y-51536956D01*
X36460552Y-51524974D01*
X36441832Y-51511090D01*
X36424562Y-51495438D01*
X36408910Y-51478168D01*
X36395026Y-51459448D01*
X36383044Y-51439457D01*
X36373079Y-51418387D01*
X36365227Y-51396443D01*
X36359563Y-51373834D01*
X36356144Y-51350779D01*
X36355000Y-51327500D01*
X36355000Y-50752500D01*
X36356144Y-50729221D01*
X36359563Y-50706166D01*
X36365227Y-50683557D01*
X36373079Y-50661613D01*
X36383044Y-50640543D01*
X36395026Y-50620552D01*
X36408910Y-50601832D01*
X36424562Y-50584562D01*
X36441832Y-50568910D01*
X36460552Y-50555026D01*
X36480543Y-50543044D01*
X36501613Y-50533079D01*
X36523557Y-50525227D01*
X36546166Y-50519563D01*
X36569221Y-50516144D01*
X36592500Y-50515000D01*
X37067500Y-50515000D01*
X37090779Y-50516144D01*
X37090779Y-50516144D01*
G37*
D13*
X36830000Y-51040000D03*
G04 #@! TD*
M02*
