G04 #@! TF.GenerationSoftware,KiCad,Pcbnew,(5.0.2)-1*
G04 #@! TF.CreationDate,2019-04-22T21:15:55+05:30*
G04 #@! TF.ProjectId,parking_sense_1,7061726b-696e-4675-9f73-656e73655f31,rev?*
G04 #@! TF.SameCoordinates,Original*
G04 #@! TF.FileFunction,Other,Fab,Top*
%FSLAX46Y46*%
G04 Gerber Fmt 4.6, Leading zero omitted, Abs format (unit mm)*
G04 Created by KiCad (PCBNEW (5.0.2)-1) date 04/22/19 21:15:55*
%MOMM*%
%LPD*%
G01*
G04 APERTURE LIST*
%ADD10C,0.100000*%
%ADD11C,0.150000*%
%ADD12C,0.075000*%
%ADD13C,0.060000*%
%ADD14C,0.105000*%
%ADD15C,0.135000*%
%ADD16C,0.120000*%
G04 APERTURE END LIST*
D10*
G04 #@! TO.C,D1*
X81545000Y-47690000D02*
X79745000Y-47690000D01*
X79745000Y-47690000D02*
X79745000Y-46290000D01*
X79745000Y-46290000D02*
X81545000Y-46290000D01*
X81545000Y-46290000D02*
X81545000Y-47690000D01*
X80945000Y-47340000D02*
X80945000Y-46640000D01*
X80945000Y-46990000D02*
X81145000Y-46990000D01*
X80945000Y-46990000D02*
X80445000Y-47340000D01*
X80445000Y-47340000D02*
X80445000Y-46640000D01*
X80445000Y-46640000D02*
X80945000Y-46990000D01*
X80445000Y-46990000D02*
X80195000Y-46990000D01*
G04 #@! TO.C,D3*
X75630000Y-46725000D02*
X75630000Y-48525000D01*
X75630000Y-48525000D02*
X74230000Y-48525000D01*
X74230000Y-48525000D02*
X74230000Y-46725000D01*
X74230000Y-46725000D02*
X75630000Y-46725000D01*
X75280000Y-47325000D02*
X74580000Y-47325000D01*
X74930000Y-47325000D02*
X74930000Y-47125000D01*
X74930000Y-47325000D02*
X75280000Y-47825000D01*
X75280000Y-47825000D02*
X74580000Y-47825000D01*
X74580000Y-47825000D02*
X74930000Y-47325000D01*
X74930000Y-47825000D02*
X74930000Y-48075000D01*
G04 #@! TO.C,J3*
X66675000Y-62365000D02*
X65725000Y-60865000D01*
X67625000Y-60865000D02*
X66675000Y-62365000D01*
X85425000Y-60865000D02*
X62925000Y-60865000D01*
X85425000Y-72865000D02*
X85425000Y-60865000D01*
X62925000Y-72865000D02*
X85425000Y-72865000D01*
X62925000Y-60865000D02*
X62925000Y-72865000D01*
G04 #@! TO.C,D2*
X74730000Y-56515000D02*
X74480000Y-56515000D01*
X74730000Y-56165000D02*
X75230000Y-56515000D01*
X74730000Y-56865000D02*
X74730000Y-56165000D01*
X75230000Y-56515000D02*
X74730000Y-56865000D01*
X75230000Y-56515000D02*
X75430000Y-56515000D01*
X75230000Y-56865000D02*
X75230000Y-56165000D01*
X75830000Y-55815000D02*
X75830000Y-57215000D01*
X74030000Y-55815000D02*
X75830000Y-55815000D01*
X74030000Y-57215000D02*
X74030000Y-55815000D01*
X75830000Y-57215000D02*
X74030000Y-57215000D01*
G04 #@! TO.C,Q2*
X36580000Y-55815000D02*
X36580000Y-57215000D01*
X39620000Y-57215000D02*
X36580000Y-57215000D01*
X39050000Y-55815000D02*
X39620000Y-56365000D01*
X39620000Y-56365000D02*
X39620000Y-57215000D01*
X39050000Y-55815000D02*
X36600000Y-55815000D01*
G04 #@! TO.C,Q1*
X79690000Y-50735000D02*
X77240000Y-50735000D01*
X80260000Y-51285000D02*
X80260000Y-52135000D01*
X79690000Y-50735000D02*
X80260000Y-51285000D01*
X80260000Y-52135000D02*
X77220000Y-52135000D01*
X77220000Y-50735000D02*
X77220000Y-52135000D01*
G04 #@! TO.C,C1*
X70720000Y-46825000D02*
X71520000Y-46825000D01*
X71520000Y-46825000D02*
X71520000Y-48425000D01*
X71520000Y-48425000D02*
X70720000Y-48425000D01*
X70720000Y-48425000D02*
X70720000Y-46825000D01*
G04 #@! TO.C,C2*
X66910000Y-56045000D02*
X66910000Y-54445000D01*
X67710000Y-56045000D02*
X66910000Y-56045000D01*
X67710000Y-54445000D02*
X67710000Y-56045000D01*
X66910000Y-54445000D02*
X67710000Y-54445000D01*
G04 #@! TO.C,C3*
X61195000Y-54445000D02*
X61995000Y-54445000D01*
X61995000Y-54445000D02*
X61995000Y-56045000D01*
X61995000Y-56045000D02*
X61195000Y-56045000D01*
X61195000Y-56045000D02*
X61195000Y-54445000D01*
G04 #@! TO.C,C4*
X56280000Y-54445000D02*
X56280000Y-56045000D01*
X55480000Y-54445000D02*
X56280000Y-54445000D01*
X55480000Y-56045000D02*
X55480000Y-54445000D01*
X56280000Y-56045000D02*
X55480000Y-56045000D01*
G04 #@! TO.C,C5*
X54445000Y-60090000D02*
X54445000Y-59290000D01*
X54445000Y-59290000D02*
X56045000Y-59290000D01*
X56045000Y-59290000D02*
X56045000Y-60090000D01*
X56045000Y-60090000D02*
X54445000Y-60090000D01*
G04 #@! TO.C,J1*
X85785425Y-42541787D02*
X85030000Y-43345000D01*
X85780000Y-32345000D02*
X76780000Y-32345000D01*
X85780000Y-28845000D02*
X76780000Y-28845000D01*
X76780000Y-28845000D02*
X76780000Y-43345000D01*
X76780000Y-43345000D02*
X85030000Y-43345000D01*
X85780000Y-42545000D02*
X85780000Y-28845000D01*
G04 #@! TO.C,J2*
X35620000Y-60865000D02*
X35620000Y-72865000D01*
X35620000Y-72865000D02*
X50620000Y-72865000D01*
X50620000Y-72865000D02*
X50620000Y-60865000D01*
X50620000Y-60865000D02*
X35620000Y-60865000D01*
X40320000Y-60865000D02*
X39370000Y-62365000D01*
X39370000Y-62365000D02*
X38420000Y-60865000D01*
G04 #@! TO.C,J4*
X73660000Y-41370000D02*
X73660000Y-29370000D01*
X73660000Y-29370000D02*
X35560000Y-29370000D01*
X35560000Y-29370000D02*
X35560000Y-41370000D01*
X35560000Y-41370000D02*
X73660000Y-41370000D01*
X68900000Y-41370000D02*
X69850000Y-39870000D01*
X69850000Y-39870000D02*
X70800000Y-41370000D01*
G04 #@! TO.C,D4*
X36430000Y-44920000D02*
X36430000Y-46220000D01*
X36430000Y-46220000D02*
X36730000Y-46520000D01*
X36730000Y-46520000D02*
X37230000Y-46520000D01*
X37230000Y-46520000D02*
X37230000Y-44920000D01*
X37230000Y-44920000D02*
X36430000Y-44920000D01*
D11*
G04 #@! TO.C,U2*
X50750000Y-53930000D02*
X52750000Y-53930000D01*
X52750000Y-53930000D02*
X52750000Y-56930000D01*
X52750000Y-56930000D02*
X49750000Y-56930000D01*
X49750000Y-56930000D02*
X49750000Y-54930000D01*
X49750000Y-54930000D02*
X50750000Y-53930000D01*
G04 #@! TO.C,U1*
X41595000Y-43910000D02*
X44495000Y-43910000D01*
X44495000Y-43910000D02*
X44495000Y-52610000D01*
X44495000Y-52610000D02*
X40595000Y-52610000D01*
X40595000Y-52610000D02*
X40595000Y-44910000D01*
X40595000Y-44910000D02*
X41595000Y-43910000D01*
D10*
G04 #@! TO.C,U4*
X62920000Y-50975000D02*
X62920000Y-44275000D01*
X66620000Y-44275000D02*
X62920000Y-44275000D01*
X65620000Y-50975000D02*
X62920000Y-50975000D01*
X66620000Y-49975000D02*
X66620000Y-44275000D01*
X66620000Y-49975000D02*
X65620000Y-50975000D01*
G04 #@! TO.C,U5*
X57095000Y-49975000D02*
X56095000Y-50975000D01*
X57095000Y-49975000D02*
X57095000Y-44275000D01*
X56095000Y-50975000D02*
X53395000Y-50975000D01*
X57095000Y-44275000D02*
X53395000Y-44275000D01*
X53395000Y-50975000D02*
X53395000Y-44275000D01*
G04 #@! TO.C,R1*
X82785000Y-50000000D02*
X83585000Y-50000000D01*
X83585000Y-50000000D02*
X83585000Y-51600000D01*
X83585000Y-51600000D02*
X82785000Y-51600000D01*
X82785000Y-51600000D02*
X82785000Y-50000000D01*
G04 #@! TO.C,R2*
X82785000Y-56045000D02*
X82785000Y-54445000D01*
X83585000Y-56045000D02*
X82785000Y-56045000D01*
X83585000Y-54445000D02*
X83585000Y-56045000D01*
X82785000Y-54445000D02*
X83585000Y-54445000D01*
G04 #@! TO.C,R3*
X46120000Y-57950000D02*
X45320000Y-57950000D01*
X45320000Y-57950000D02*
X45320000Y-56350000D01*
X45320000Y-56350000D02*
X46120000Y-56350000D01*
X46120000Y-56350000D02*
X46120000Y-57950000D01*
G04 #@! TO.C,R4*
X48095000Y-50400000D02*
X49695000Y-50400000D01*
X48095000Y-51200000D02*
X48095000Y-50400000D01*
X49695000Y-51200000D02*
X48095000Y-51200000D01*
X49695000Y-50400000D02*
X49695000Y-51200000D01*
G04 #@! TO.C,R5*
X36430000Y-49365000D02*
X37230000Y-49365000D01*
X37230000Y-49365000D02*
X37230000Y-50965000D01*
X37230000Y-50965000D02*
X36430000Y-50965000D01*
X36430000Y-50965000D02*
X36430000Y-49365000D01*
G04 #@! TD*
G04 #@! TO.C,D1*
D11*
X78616428Y-45542380D02*
X78616428Y-44542380D01*
X78854523Y-44542380D01*
X78997380Y-44590000D01*
X79092619Y-44685238D01*
X79140238Y-44780476D01*
X79187857Y-44970952D01*
X79187857Y-45113809D01*
X79140238Y-45304285D01*
X79092619Y-45399523D01*
X78997380Y-45494761D01*
X78854523Y-45542380D01*
X78616428Y-45542380D01*
X79378333Y-45637619D02*
X80140238Y-45637619D01*
X80235476Y-44542380D02*
X80806904Y-44542380D01*
X80521190Y-45542380D02*
X80521190Y-44542380D01*
X80997380Y-44542380D02*
X81330714Y-45542380D01*
X81664047Y-44542380D01*
X81949761Y-45494761D02*
X82092619Y-45542380D01*
X82330714Y-45542380D01*
X82425952Y-45494761D01*
X82473571Y-45447142D01*
X82521190Y-45351904D01*
X82521190Y-45256666D01*
X82473571Y-45161428D01*
X82425952Y-45113809D01*
X82330714Y-45066190D01*
X82140238Y-45018571D01*
X82045000Y-44970952D01*
X81997380Y-44923333D01*
X81949761Y-44828095D01*
X81949761Y-44732857D01*
X81997380Y-44637619D01*
X82045000Y-44590000D01*
X82140238Y-44542380D01*
X82378333Y-44542380D01*
X82521190Y-44590000D01*
X79906904Y-49292380D02*
X79906904Y-48292380D01*
X80145000Y-48292380D01*
X80287857Y-48340000D01*
X80383095Y-48435238D01*
X80430714Y-48530476D01*
X80478333Y-48720952D01*
X80478333Y-48863809D01*
X80430714Y-49054285D01*
X80383095Y-49149523D01*
X80287857Y-49244761D01*
X80145000Y-49292380D01*
X79906904Y-49292380D01*
X81430714Y-49292380D02*
X80859285Y-49292380D01*
X81145000Y-49292380D02*
X81145000Y-48292380D01*
X81049761Y-48435238D01*
X80954523Y-48530476D01*
X80859285Y-48578095D01*
G04 #@! TO.C,D3*
X73482380Y-58629761D02*
X72482380Y-58629761D01*
X72482380Y-58391666D01*
X72530000Y-58248809D01*
X72625238Y-58153571D01*
X72720476Y-58105952D01*
X72910952Y-58058333D01*
X73053809Y-58058333D01*
X73244285Y-58105952D01*
X73339523Y-58153571D01*
X73434761Y-58248809D01*
X73482380Y-58391666D01*
X73482380Y-58629761D01*
X73577619Y-57867857D02*
X73577619Y-57105952D01*
X73434761Y-56915476D02*
X73482380Y-56772619D01*
X73482380Y-56534523D01*
X73434761Y-56439285D01*
X73387142Y-56391666D01*
X73291904Y-56344047D01*
X73196666Y-56344047D01*
X73101428Y-56391666D01*
X73053809Y-56439285D01*
X73006190Y-56534523D01*
X72958571Y-56725000D01*
X72910952Y-56820238D01*
X72863333Y-56867857D01*
X72768095Y-56915476D01*
X72672857Y-56915476D01*
X72577619Y-56867857D01*
X72530000Y-56820238D01*
X72482380Y-56725000D01*
X72482380Y-56486904D01*
X72530000Y-56344047D01*
X73434761Y-55486904D02*
X73482380Y-55582142D01*
X73482380Y-55772619D01*
X73434761Y-55867857D01*
X73387142Y-55915476D01*
X73291904Y-55963095D01*
X73006190Y-55963095D01*
X72910952Y-55915476D01*
X72863333Y-55867857D01*
X72815714Y-55772619D01*
X72815714Y-55582142D01*
X72863333Y-55486904D01*
X73482380Y-55058333D02*
X72482380Y-55058333D01*
X73482380Y-54629761D02*
X72958571Y-54629761D01*
X72863333Y-54677380D01*
X72815714Y-54772619D01*
X72815714Y-54915476D01*
X72863333Y-55010714D01*
X72910952Y-55058333D01*
X73482380Y-54010714D02*
X73434761Y-54105952D01*
X73387142Y-54153571D01*
X73291904Y-54201190D01*
X73006190Y-54201190D01*
X72910952Y-54153571D01*
X72863333Y-54105952D01*
X72815714Y-54010714D01*
X72815714Y-53867857D01*
X72863333Y-53772619D01*
X72910952Y-53725000D01*
X73006190Y-53677380D01*
X73291904Y-53677380D01*
X73387142Y-53725000D01*
X73434761Y-53772619D01*
X73482380Y-53867857D01*
X73482380Y-54010714D01*
X72815714Y-53391666D02*
X72815714Y-53010714D01*
X72482380Y-53248809D02*
X73339523Y-53248809D01*
X73434761Y-53201190D01*
X73482380Y-53105952D01*
X73482380Y-53010714D01*
X72815714Y-52820238D02*
X72815714Y-52439285D01*
X72482380Y-52677380D02*
X73339523Y-52677380D01*
X73434761Y-52629761D01*
X73482380Y-52534523D01*
X73482380Y-52439285D01*
X73482380Y-52105952D02*
X72482380Y-52105952D01*
X73101428Y-52010714D02*
X73482380Y-51725000D01*
X72815714Y-51725000D02*
X73196666Y-52105952D01*
X72815714Y-51391666D02*
X73482380Y-51153571D01*
X72815714Y-50915476D02*
X73482380Y-51153571D01*
X73720476Y-51248809D01*
X73768095Y-51296428D01*
X73815714Y-51391666D01*
X73577619Y-50772619D02*
X73577619Y-50010714D01*
X73434761Y-49820238D02*
X73482380Y-49677380D01*
X73482380Y-49439285D01*
X73434761Y-49344047D01*
X73387142Y-49296428D01*
X73291904Y-49248809D01*
X73196666Y-49248809D01*
X73101428Y-49296428D01*
X73053809Y-49344047D01*
X73006190Y-49439285D01*
X72958571Y-49629761D01*
X72910952Y-49725000D01*
X72863333Y-49772619D01*
X72768095Y-49820238D01*
X72672857Y-49820238D01*
X72577619Y-49772619D01*
X72530000Y-49725000D01*
X72482380Y-49629761D01*
X72482380Y-49391666D01*
X72530000Y-49248809D01*
X73482380Y-48820238D02*
X72482380Y-48820238D01*
X72482380Y-48582142D01*
X72530000Y-48439285D01*
X72625238Y-48344047D01*
X72720476Y-48296428D01*
X72910952Y-48248809D01*
X73053809Y-48248809D01*
X73244285Y-48296428D01*
X73339523Y-48344047D01*
X73434761Y-48439285D01*
X73482380Y-48582142D01*
X73482380Y-48820238D01*
X72482380Y-47629761D02*
X72482380Y-47534523D01*
X72530000Y-47439285D01*
X72577619Y-47391666D01*
X72672857Y-47344047D01*
X72863333Y-47296428D01*
X73101428Y-47296428D01*
X73291904Y-47344047D01*
X73387142Y-47391666D01*
X73434761Y-47439285D01*
X73482380Y-47534523D01*
X73482380Y-47629761D01*
X73434761Y-47725000D01*
X73387142Y-47772619D01*
X73291904Y-47820238D01*
X73101428Y-47867857D01*
X72863333Y-47867857D01*
X72672857Y-47820238D01*
X72577619Y-47772619D01*
X72530000Y-47725000D01*
X72482380Y-47629761D01*
X72482380Y-46439285D02*
X72482380Y-46629761D01*
X72530000Y-46725000D01*
X72577619Y-46772619D01*
X72720476Y-46867857D01*
X72910952Y-46915476D01*
X73291904Y-46915476D01*
X73387142Y-46867857D01*
X73434761Y-46820238D01*
X73482380Y-46725000D01*
X73482380Y-46534523D01*
X73434761Y-46439285D01*
X73387142Y-46391666D01*
X73291904Y-46344047D01*
X73053809Y-46344047D01*
X72958571Y-46391666D01*
X72910952Y-46439285D01*
X72863333Y-46534523D01*
X72863333Y-46725000D01*
X72910952Y-46820238D01*
X72958571Y-46867857D01*
X73053809Y-46915476D01*
X72482380Y-45725000D02*
X72482380Y-45629761D01*
X72530000Y-45534523D01*
X72577619Y-45486904D01*
X72672857Y-45439285D01*
X72863333Y-45391666D01*
X73101428Y-45391666D01*
X73291904Y-45439285D01*
X73387142Y-45486904D01*
X73434761Y-45534523D01*
X73482380Y-45629761D01*
X73482380Y-45725000D01*
X73434761Y-45820238D01*
X73387142Y-45867857D01*
X73291904Y-45915476D01*
X73101428Y-45963095D01*
X72863333Y-45963095D01*
X72672857Y-45915476D01*
X72577619Y-45867857D01*
X72530000Y-45820238D01*
X72482380Y-45725000D01*
X72482380Y-45058333D02*
X72482380Y-44439285D01*
X72863333Y-44772619D01*
X72863333Y-44629761D01*
X72910952Y-44534523D01*
X72958571Y-44486904D01*
X73053809Y-44439285D01*
X73291904Y-44439285D01*
X73387142Y-44486904D01*
X73434761Y-44534523D01*
X73482380Y-44629761D01*
X73482380Y-44915476D01*
X73434761Y-45010714D01*
X73387142Y-45058333D01*
X73434761Y-44058333D02*
X73482380Y-43915476D01*
X73482380Y-43677380D01*
X73434761Y-43582142D01*
X73387142Y-43534523D01*
X73291904Y-43486904D01*
X73196666Y-43486904D01*
X73101428Y-43534523D01*
X73053809Y-43582142D01*
X73006190Y-43677380D01*
X72958571Y-43867857D01*
X72910952Y-43963095D01*
X72863333Y-44010714D01*
X72768095Y-44058333D01*
X72672857Y-44058333D01*
X72577619Y-44010714D01*
X72530000Y-43963095D01*
X72482380Y-43867857D01*
X72482380Y-43629761D01*
X72530000Y-43486904D01*
X72482380Y-42867857D02*
X72482380Y-42772619D01*
X72530000Y-42677380D01*
X72577619Y-42629761D01*
X72672857Y-42582142D01*
X72863333Y-42534523D01*
X73101428Y-42534523D01*
X73291904Y-42582142D01*
X73387142Y-42629761D01*
X73434761Y-42677380D01*
X73482380Y-42772619D01*
X73482380Y-42867857D01*
X73434761Y-42963095D01*
X73387142Y-43010714D01*
X73291904Y-43058333D01*
X73101428Y-43105952D01*
X72863333Y-43105952D01*
X72672857Y-43058333D01*
X72577619Y-43010714D01*
X72530000Y-42963095D01*
X72482380Y-42867857D01*
X72577619Y-42153571D02*
X72530000Y-42105952D01*
X72482380Y-42010714D01*
X72482380Y-41772619D01*
X72530000Y-41677380D01*
X72577619Y-41629761D01*
X72672857Y-41582142D01*
X72768095Y-41582142D01*
X72910952Y-41629761D01*
X73482380Y-42201190D01*
X73482380Y-41582142D01*
X72482380Y-40963095D02*
X72482380Y-40867857D01*
X72530000Y-40772619D01*
X72577619Y-40725000D01*
X72672857Y-40677380D01*
X72863333Y-40629761D01*
X73101428Y-40629761D01*
X73291904Y-40677380D01*
X73387142Y-40725000D01*
X73434761Y-40772619D01*
X73482380Y-40867857D01*
X73482380Y-40963095D01*
X73434761Y-41058333D01*
X73387142Y-41105952D01*
X73291904Y-41153571D01*
X73101428Y-41201190D01*
X72863333Y-41201190D01*
X72672857Y-41153571D01*
X72577619Y-41105952D01*
X72530000Y-41058333D01*
X72482380Y-40963095D01*
X73434761Y-40248809D02*
X73482380Y-40105952D01*
X73482380Y-39867857D01*
X73434761Y-39772619D01*
X73387142Y-39725000D01*
X73291904Y-39677380D01*
X73196666Y-39677380D01*
X73101428Y-39725000D01*
X73053809Y-39772619D01*
X73006190Y-39867857D01*
X72958571Y-40058333D01*
X72910952Y-40153571D01*
X72863333Y-40201190D01*
X72768095Y-40248809D01*
X72672857Y-40248809D01*
X72577619Y-40201190D01*
X72530000Y-40153571D01*
X72482380Y-40058333D01*
X72482380Y-39820238D01*
X72530000Y-39677380D01*
X72482380Y-39058333D02*
X72482380Y-38963095D01*
X72530000Y-38867857D01*
X72577619Y-38820238D01*
X72672857Y-38772619D01*
X72863333Y-38725000D01*
X73101428Y-38725000D01*
X73291904Y-38772619D01*
X73387142Y-38820238D01*
X73434761Y-38867857D01*
X73482380Y-38963095D01*
X73482380Y-39058333D01*
X73434761Y-39153571D01*
X73387142Y-39201190D01*
X73291904Y-39248809D01*
X73101428Y-39296428D01*
X72863333Y-39296428D01*
X72672857Y-39248809D01*
X72577619Y-39201190D01*
X72530000Y-39153571D01*
X72482380Y-39058333D01*
X73482380Y-37725000D02*
X73006190Y-38058333D01*
X73482380Y-38296428D02*
X72482380Y-38296428D01*
X72482380Y-37915476D01*
X72530000Y-37820238D01*
X72577619Y-37772619D01*
X72672857Y-37725000D01*
X72815714Y-37725000D01*
X72910952Y-37772619D01*
X72958571Y-37820238D01*
X73006190Y-37915476D01*
X73006190Y-38296428D01*
X72482380Y-37391666D02*
X72482380Y-36772619D01*
X72863333Y-37105952D01*
X72863333Y-36963095D01*
X72910952Y-36867857D01*
X72958571Y-36820238D01*
X73053809Y-36772619D01*
X73291904Y-36772619D01*
X73387142Y-36820238D01*
X73434761Y-36867857D01*
X73482380Y-36963095D01*
X73482380Y-37248809D01*
X73434761Y-37344047D01*
X73387142Y-37391666D01*
X77232380Y-48363095D02*
X76232380Y-48363095D01*
X76232380Y-48125000D01*
X76280000Y-47982142D01*
X76375238Y-47886904D01*
X76470476Y-47839285D01*
X76660952Y-47791666D01*
X76803809Y-47791666D01*
X76994285Y-47839285D01*
X77089523Y-47886904D01*
X77184761Y-47982142D01*
X77232380Y-48125000D01*
X77232380Y-48363095D01*
X76232380Y-47458333D02*
X76232380Y-46839285D01*
X76613333Y-47172619D01*
X76613333Y-47029761D01*
X76660952Y-46934523D01*
X76708571Y-46886904D01*
X76803809Y-46839285D01*
X77041904Y-46839285D01*
X77137142Y-46886904D01*
X77184761Y-46934523D01*
X77232380Y-47029761D01*
X77232380Y-47315476D01*
X77184761Y-47410714D01*
X77137142Y-47458333D01*
G04 #@! TO.C,J3*
X61523571Y-71762619D02*
X61523571Y-71429285D01*
X62047380Y-71286428D02*
X62047380Y-71762619D01*
X61047380Y-71762619D01*
X61047380Y-71286428D01*
X62047380Y-70953095D02*
X61380714Y-70429285D01*
X61380714Y-70953095D02*
X62047380Y-70429285D01*
X61380714Y-70191190D02*
X61380714Y-69810238D01*
X61047380Y-70048333D02*
X61904523Y-70048333D01*
X61999761Y-70000714D01*
X62047380Y-69905476D01*
X62047380Y-69810238D01*
X62047380Y-68715000D02*
X61047380Y-68715000D01*
X60999761Y-67524523D02*
X62285476Y-68381666D01*
X62047380Y-67191190D02*
X61047380Y-67191190D01*
X61047380Y-66810238D01*
X61095000Y-66715000D01*
X61142619Y-66667380D01*
X61237857Y-66619761D01*
X61380714Y-66619761D01*
X61475952Y-66667380D01*
X61523571Y-66715000D01*
X61571190Y-66810238D01*
X61571190Y-67191190D01*
X73841666Y-61017380D02*
X73841666Y-61731666D01*
X73794047Y-61874523D01*
X73698809Y-61969761D01*
X73555952Y-62017380D01*
X73460714Y-62017380D01*
X74222619Y-61017380D02*
X74841666Y-61017380D01*
X74508333Y-61398333D01*
X74651190Y-61398333D01*
X74746428Y-61445952D01*
X74794047Y-61493571D01*
X74841666Y-61588809D01*
X74841666Y-61826904D01*
X74794047Y-61922142D01*
X74746428Y-61969761D01*
X74651190Y-62017380D01*
X74365476Y-62017380D01*
X74270238Y-61969761D01*
X74222619Y-61922142D01*
G04 #@! TO.C,D2*
X72234761Y-54115000D02*
X72139523Y-54067380D01*
X71996666Y-54067380D01*
X71853809Y-54115000D01*
X71758571Y-54210238D01*
X71710952Y-54305476D01*
X71663333Y-54495952D01*
X71663333Y-54638809D01*
X71710952Y-54829285D01*
X71758571Y-54924523D01*
X71853809Y-55019761D01*
X71996666Y-55067380D01*
X72091904Y-55067380D01*
X72234761Y-55019761D01*
X72282380Y-54972142D01*
X72282380Y-54638809D01*
X72091904Y-54638809D01*
X72710952Y-55067380D02*
X72710952Y-54067380D01*
X72949047Y-54067380D01*
X73091904Y-54115000D01*
X73187142Y-54210238D01*
X73234761Y-54305476D01*
X73282380Y-54495952D01*
X73282380Y-54638809D01*
X73234761Y-54829285D01*
X73187142Y-54924523D01*
X73091904Y-55019761D01*
X72949047Y-55067380D01*
X72710952Y-55067380D01*
X73615714Y-54067380D02*
X74282380Y-54067380D01*
X73615714Y-55067380D01*
X74282380Y-55067380D01*
X75139523Y-54067380D02*
X74663333Y-54067380D01*
X74615714Y-54543571D01*
X74663333Y-54495952D01*
X74758571Y-54448333D01*
X74996666Y-54448333D01*
X75091904Y-54495952D01*
X75139523Y-54543571D01*
X75187142Y-54638809D01*
X75187142Y-54876904D01*
X75139523Y-54972142D01*
X75091904Y-55019761D01*
X74996666Y-55067380D01*
X74758571Y-55067380D01*
X74663333Y-55019761D01*
X74615714Y-54972142D01*
X75472857Y-54067380D02*
X75806190Y-55067380D01*
X76139523Y-54067380D01*
X76996666Y-55067380D02*
X76425238Y-55067380D01*
X76710952Y-55067380D02*
X76710952Y-54067380D01*
X76615714Y-54210238D01*
X76520476Y-54305476D01*
X76425238Y-54353095D01*
X77758571Y-54543571D02*
X77901428Y-54591190D01*
X77949047Y-54638809D01*
X77996666Y-54734047D01*
X77996666Y-54876904D01*
X77949047Y-54972142D01*
X77901428Y-55019761D01*
X77806190Y-55067380D01*
X77425238Y-55067380D01*
X77425238Y-54067380D01*
X77758571Y-54067380D01*
X77853809Y-54115000D01*
X77901428Y-54162619D01*
X77949047Y-54257857D01*
X77949047Y-54353095D01*
X77901428Y-54448333D01*
X77853809Y-54495952D01*
X77758571Y-54543571D01*
X77425238Y-54543571D01*
X74191904Y-58817380D02*
X74191904Y-57817380D01*
X74430000Y-57817380D01*
X74572857Y-57865000D01*
X74668095Y-57960238D01*
X74715714Y-58055476D01*
X74763333Y-58245952D01*
X74763333Y-58388809D01*
X74715714Y-58579285D01*
X74668095Y-58674523D01*
X74572857Y-58769761D01*
X74430000Y-58817380D01*
X74191904Y-58817380D01*
X75144285Y-57912619D02*
X75191904Y-57865000D01*
X75287142Y-57817380D01*
X75525238Y-57817380D01*
X75620476Y-57865000D01*
X75668095Y-57912619D01*
X75715714Y-58007857D01*
X75715714Y-58103095D01*
X75668095Y-58245952D01*
X75096666Y-58817380D01*
X75715714Y-58817380D01*
G04 #@! TO.C,Q2*
X35528571Y-59848333D02*
X35528571Y-60181666D01*
X36052380Y-60181666D02*
X35052380Y-60181666D01*
X35052380Y-59705476D01*
X36052380Y-59324523D02*
X35052380Y-59324523D01*
X35052380Y-59086428D01*
X35100000Y-58943571D01*
X35195238Y-58848333D01*
X35290476Y-58800714D01*
X35480952Y-58753095D01*
X35623809Y-58753095D01*
X35814285Y-58800714D01*
X35909523Y-58848333D01*
X36004761Y-58943571D01*
X36052380Y-59086428D01*
X36052380Y-59324523D01*
X36052380Y-58324523D02*
X35052380Y-58324523D01*
X36052380Y-57753095D01*
X35052380Y-57753095D01*
X35052380Y-57372142D02*
X35052380Y-56753095D01*
X35433333Y-57086428D01*
X35433333Y-56943571D01*
X35480952Y-56848333D01*
X35528571Y-56800714D01*
X35623809Y-56753095D01*
X35861904Y-56753095D01*
X35957142Y-56800714D01*
X36004761Y-56848333D01*
X36052380Y-56943571D01*
X36052380Y-57229285D01*
X36004761Y-57324523D01*
X35957142Y-57372142D01*
X35052380Y-55848333D02*
X35052380Y-56324523D01*
X35528571Y-56372142D01*
X35480952Y-56324523D01*
X35433333Y-56229285D01*
X35433333Y-55991190D01*
X35480952Y-55895952D01*
X35528571Y-55848333D01*
X35623809Y-55800714D01*
X35861904Y-55800714D01*
X35957142Y-55848333D01*
X36004761Y-55895952D01*
X36052380Y-55991190D01*
X36052380Y-56229285D01*
X36004761Y-56324523D01*
X35957142Y-56372142D01*
X36052380Y-55324523D02*
X36052380Y-55134047D01*
X36004761Y-55038809D01*
X35957142Y-54991190D01*
X35814285Y-54895952D01*
X35623809Y-54848333D01*
X35242857Y-54848333D01*
X35147619Y-54895952D01*
X35100000Y-54943571D01*
X35052380Y-55038809D01*
X35052380Y-55229285D01*
X35100000Y-55324523D01*
X35147619Y-55372142D01*
X35242857Y-55419761D01*
X35480952Y-55419761D01*
X35576190Y-55372142D01*
X35623809Y-55324523D01*
X35671428Y-55229285D01*
X35671428Y-55038809D01*
X35623809Y-54943571D01*
X35576190Y-54895952D01*
X35480952Y-54848333D01*
X35528571Y-54086428D02*
X35576190Y-53943571D01*
X35623809Y-53895952D01*
X35719047Y-53848333D01*
X35861904Y-53848333D01*
X35957142Y-53895952D01*
X36004761Y-53943571D01*
X36052380Y-54038809D01*
X36052380Y-54419761D01*
X35052380Y-54419761D01*
X35052380Y-54086428D01*
X35100000Y-53991190D01*
X35147619Y-53943571D01*
X35242857Y-53895952D01*
X35338095Y-53895952D01*
X35433333Y-53943571D01*
X35480952Y-53991190D01*
X35528571Y-54086428D01*
X35528571Y-54419761D01*
X36052380Y-53419761D02*
X35052380Y-53419761D01*
X36052380Y-52848333D01*
X35052380Y-52848333D01*
D12*
X38052380Y-56788809D02*
X38004761Y-56765000D01*
X37957142Y-56717380D01*
X37885714Y-56645952D01*
X37838095Y-56622142D01*
X37790476Y-56622142D01*
X37814285Y-56741190D02*
X37766666Y-56717380D01*
X37719047Y-56669761D01*
X37695238Y-56574523D01*
X37695238Y-56407857D01*
X37719047Y-56312619D01*
X37766666Y-56265000D01*
X37814285Y-56241190D01*
X37909523Y-56241190D01*
X37957142Y-56265000D01*
X38004761Y-56312619D01*
X38028571Y-56407857D01*
X38028571Y-56574523D01*
X38004761Y-56669761D01*
X37957142Y-56717380D01*
X37909523Y-56741190D01*
X37814285Y-56741190D01*
X38219047Y-56288809D02*
X38242857Y-56265000D01*
X38290476Y-56241190D01*
X38409523Y-56241190D01*
X38457142Y-56265000D01*
X38480952Y-56288809D01*
X38504761Y-56336428D01*
X38504761Y-56384047D01*
X38480952Y-56455476D01*
X38195238Y-56741190D01*
X38504761Y-56741190D01*
G04 #@! TO.C,Q1*
D11*
X76168571Y-54768333D02*
X76168571Y-55101666D01*
X76692380Y-55101666D02*
X75692380Y-55101666D01*
X75692380Y-54625476D01*
X76692380Y-54244523D02*
X75692380Y-54244523D01*
X75692380Y-54006428D01*
X75740000Y-53863571D01*
X75835238Y-53768333D01*
X75930476Y-53720714D01*
X76120952Y-53673095D01*
X76263809Y-53673095D01*
X76454285Y-53720714D01*
X76549523Y-53768333D01*
X76644761Y-53863571D01*
X76692380Y-54006428D01*
X76692380Y-54244523D01*
X76692380Y-53244523D02*
X75692380Y-53244523D01*
X76692380Y-52673095D01*
X75692380Y-52673095D01*
X75692380Y-52292142D02*
X75692380Y-51673095D01*
X76073333Y-52006428D01*
X76073333Y-51863571D01*
X76120952Y-51768333D01*
X76168571Y-51720714D01*
X76263809Y-51673095D01*
X76501904Y-51673095D01*
X76597142Y-51720714D01*
X76644761Y-51768333D01*
X76692380Y-51863571D01*
X76692380Y-52149285D01*
X76644761Y-52244523D01*
X76597142Y-52292142D01*
X75692380Y-50768333D02*
X75692380Y-51244523D01*
X76168571Y-51292142D01*
X76120952Y-51244523D01*
X76073333Y-51149285D01*
X76073333Y-50911190D01*
X76120952Y-50815952D01*
X76168571Y-50768333D01*
X76263809Y-50720714D01*
X76501904Y-50720714D01*
X76597142Y-50768333D01*
X76644761Y-50815952D01*
X76692380Y-50911190D01*
X76692380Y-51149285D01*
X76644761Y-51244523D01*
X76597142Y-51292142D01*
X76692380Y-50244523D02*
X76692380Y-50054047D01*
X76644761Y-49958809D01*
X76597142Y-49911190D01*
X76454285Y-49815952D01*
X76263809Y-49768333D01*
X75882857Y-49768333D01*
X75787619Y-49815952D01*
X75740000Y-49863571D01*
X75692380Y-49958809D01*
X75692380Y-50149285D01*
X75740000Y-50244523D01*
X75787619Y-50292142D01*
X75882857Y-50339761D01*
X76120952Y-50339761D01*
X76216190Y-50292142D01*
X76263809Y-50244523D01*
X76311428Y-50149285D01*
X76311428Y-49958809D01*
X76263809Y-49863571D01*
X76216190Y-49815952D01*
X76120952Y-49768333D01*
X76168571Y-49006428D02*
X76216190Y-48863571D01*
X76263809Y-48815952D01*
X76359047Y-48768333D01*
X76501904Y-48768333D01*
X76597142Y-48815952D01*
X76644761Y-48863571D01*
X76692380Y-48958809D01*
X76692380Y-49339761D01*
X75692380Y-49339761D01*
X75692380Y-49006428D01*
X75740000Y-48911190D01*
X75787619Y-48863571D01*
X75882857Y-48815952D01*
X75978095Y-48815952D01*
X76073333Y-48863571D01*
X76120952Y-48911190D01*
X76168571Y-49006428D01*
X76168571Y-49339761D01*
X76692380Y-48339761D02*
X75692380Y-48339761D01*
X76692380Y-47768333D01*
X75692380Y-47768333D01*
D12*
X78692380Y-51708809D02*
X78644761Y-51685000D01*
X78597142Y-51637380D01*
X78525714Y-51565952D01*
X78478095Y-51542142D01*
X78430476Y-51542142D01*
X78454285Y-51661190D02*
X78406666Y-51637380D01*
X78359047Y-51589761D01*
X78335238Y-51494523D01*
X78335238Y-51327857D01*
X78359047Y-51232619D01*
X78406666Y-51185000D01*
X78454285Y-51161190D01*
X78549523Y-51161190D01*
X78597142Y-51185000D01*
X78644761Y-51232619D01*
X78668571Y-51327857D01*
X78668571Y-51494523D01*
X78644761Y-51589761D01*
X78597142Y-51637380D01*
X78549523Y-51661190D01*
X78454285Y-51661190D01*
X79144761Y-51661190D02*
X78859047Y-51661190D01*
X79001904Y-51661190D02*
X79001904Y-51161190D01*
X78954285Y-51232619D01*
X78906666Y-51280238D01*
X78859047Y-51304047D01*
G04 #@! TO.C,C1*
D11*
X69237619Y-49267857D02*
X69190000Y-49220238D01*
X69142380Y-49125000D01*
X69142380Y-48886904D01*
X69190000Y-48791666D01*
X69237619Y-48744047D01*
X69332857Y-48696428D01*
X69428095Y-48696428D01*
X69570952Y-48744047D01*
X70142380Y-49315476D01*
X70142380Y-48696428D01*
X69237619Y-48315476D02*
X69190000Y-48267857D01*
X69142380Y-48172619D01*
X69142380Y-47934523D01*
X69190000Y-47839285D01*
X69237619Y-47791666D01*
X69332857Y-47744047D01*
X69428095Y-47744047D01*
X69570952Y-47791666D01*
X70142380Y-48363095D01*
X70142380Y-47744047D01*
X69475714Y-46886904D02*
X70142380Y-46886904D01*
X69475714Y-47315476D02*
X69999523Y-47315476D01*
X70094761Y-47267857D01*
X70142380Y-47172619D01*
X70142380Y-47029761D01*
X70094761Y-46934523D01*
X70047142Y-46886904D01*
X69618571Y-46077380D02*
X69618571Y-46410714D01*
X70142380Y-46410714D02*
X69142380Y-46410714D01*
X69142380Y-45934523D01*
D13*
X71262857Y-47691666D02*
X71281904Y-47710714D01*
X71300952Y-47767857D01*
X71300952Y-47805952D01*
X71281904Y-47863095D01*
X71243809Y-47901190D01*
X71205714Y-47920238D01*
X71129523Y-47939285D01*
X71072380Y-47939285D01*
X70996190Y-47920238D01*
X70958095Y-47901190D01*
X70920000Y-47863095D01*
X70900952Y-47805952D01*
X70900952Y-47767857D01*
X70920000Y-47710714D01*
X70939047Y-47691666D01*
X71300952Y-47310714D02*
X71300952Y-47539285D01*
X71300952Y-47425000D02*
X70900952Y-47425000D01*
X70958095Y-47463095D01*
X70996190Y-47501190D01*
X71015238Y-47539285D01*
G04 #@! TO.C,C2*
D11*
X65427619Y-56887857D02*
X65380000Y-56840238D01*
X65332380Y-56745000D01*
X65332380Y-56506904D01*
X65380000Y-56411666D01*
X65427619Y-56364047D01*
X65522857Y-56316428D01*
X65618095Y-56316428D01*
X65760952Y-56364047D01*
X66332380Y-56935476D01*
X66332380Y-56316428D01*
X65427619Y-55935476D02*
X65380000Y-55887857D01*
X65332380Y-55792619D01*
X65332380Y-55554523D01*
X65380000Y-55459285D01*
X65427619Y-55411666D01*
X65522857Y-55364047D01*
X65618095Y-55364047D01*
X65760952Y-55411666D01*
X66332380Y-55983095D01*
X66332380Y-55364047D01*
X65665714Y-54506904D02*
X66332380Y-54506904D01*
X65665714Y-54935476D02*
X66189523Y-54935476D01*
X66284761Y-54887857D01*
X66332380Y-54792619D01*
X66332380Y-54649761D01*
X66284761Y-54554523D01*
X66237142Y-54506904D01*
X65808571Y-53697380D02*
X65808571Y-54030714D01*
X66332380Y-54030714D02*
X65332380Y-54030714D01*
X65332380Y-53554523D01*
D13*
X67452857Y-55311666D02*
X67471904Y-55330714D01*
X67490952Y-55387857D01*
X67490952Y-55425952D01*
X67471904Y-55483095D01*
X67433809Y-55521190D01*
X67395714Y-55540238D01*
X67319523Y-55559285D01*
X67262380Y-55559285D01*
X67186190Y-55540238D01*
X67148095Y-55521190D01*
X67110000Y-55483095D01*
X67090952Y-55425952D01*
X67090952Y-55387857D01*
X67110000Y-55330714D01*
X67129047Y-55311666D01*
X67129047Y-55159285D02*
X67110000Y-55140238D01*
X67090952Y-55102142D01*
X67090952Y-55006904D01*
X67110000Y-54968809D01*
X67129047Y-54949761D01*
X67167142Y-54930714D01*
X67205238Y-54930714D01*
X67262380Y-54949761D01*
X67490952Y-55178333D01*
X67490952Y-54930714D01*
G04 #@! TO.C,C3*
D11*
X59712619Y-56887857D02*
X59665000Y-56840238D01*
X59617380Y-56745000D01*
X59617380Y-56506904D01*
X59665000Y-56411666D01*
X59712619Y-56364047D01*
X59807857Y-56316428D01*
X59903095Y-56316428D01*
X60045952Y-56364047D01*
X60617380Y-56935476D01*
X60617380Y-56316428D01*
X59712619Y-55935476D02*
X59665000Y-55887857D01*
X59617380Y-55792619D01*
X59617380Y-55554523D01*
X59665000Y-55459285D01*
X59712619Y-55411666D01*
X59807857Y-55364047D01*
X59903095Y-55364047D01*
X60045952Y-55411666D01*
X60617380Y-55983095D01*
X60617380Y-55364047D01*
X59950714Y-54506904D02*
X60617380Y-54506904D01*
X59950714Y-54935476D02*
X60474523Y-54935476D01*
X60569761Y-54887857D01*
X60617380Y-54792619D01*
X60617380Y-54649761D01*
X60569761Y-54554523D01*
X60522142Y-54506904D01*
X60093571Y-53697380D02*
X60093571Y-54030714D01*
X60617380Y-54030714D02*
X59617380Y-54030714D01*
X59617380Y-53554523D01*
D13*
X61737857Y-55311666D02*
X61756904Y-55330714D01*
X61775952Y-55387857D01*
X61775952Y-55425952D01*
X61756904Y-55483095D01*
X61718809Y-55521190D01*
X61680714Y-55540238D01*
X61604523Y-55559285D01*
X61547380Y-55559285D01*
X61471190Y-55540238D01*
X61433095Y-55521190D01*
X61395000Y-55483095D01*
X61375952Y-55425952D01*
X61375952Y-55387857D01*
X61395000Y-55330714D01*
X61414047Y-55311666D01*
X61375952Y-55178333D02*
X61375952Y-54930714D01*
X61528333Y-55064047D01*
X61528333Y-55006904D01*
X61547380Y-54968809D01*
X61566428Y-54949761D01*
X61604523Y-54930714D01*
X61699761Y-54930714D01*
X61737857Y-54949761D01*
X61756904Y-54968809D01*
X61775952Y-55006904D01*
X61775952Y-55121190D01*
X61756904Y-55159285D01*
X61737857Y-55178333D01*
G04 #@! TO.C,C4*
D11*
X57570714Y-56649761D02*
X58237380Y-56649761D01*
X57189761Y-56887857D02*
X57904047Y-57125952D01*
X57904047Y-56506904D01*
X58142142Y-56125952D02*
X58189761Y-56078333D01*
X58237380Y-56125952D01*
X58189761Y-56173571D01*
X58142142Y-56125952D01*
X58237380Y-56125952D01*
X57237380Y-55744999D02*
X57237380Y-55078333D01*
X58237380Y-55506904D01*
X57570714Y-54268809D02*
X58237380Y-54268809D01*
X57570714Y-54697380D02*
X58094523Y-54697380D01*
X58189761Y-54649761D01*
X58237380Y-54554523D01*
X58237380Y-54411666D01*
X58189761Y-54316428D01*
X58142142Y-54268809D01*
X57713571Y-53459285D02*
X57713571Y-53792619D01*
X58237380Y-53792619D02*
X57237380Y-53792619D01*
X57237380Y-53316428D01*
D13*
X56022857Y-55311666D02*
X56041904Y-55330714D01*
X56060952Y-55387857D01*
X56060952Y-55425952D01*
X56041904Y-55483095D01*
X56003809Y-55521190D01*
X55965714Y-55540238D01*
X55889523Y-55559285D01*
X55832380Y-55559285D01*
X55756190Y-55540238D01*
X55718095Y-55521190D01*
X55680000Y-55483095D01*
X55660952Y-55425952D01*
X55660952Y-55387857D01*
X55680000Y-55330714D01*
X55699047Y-55311666D01*
X55794285Y-54968809D02*
X56060952Y-54968809D01*
X55641904Y-55064047D02*
X55927619Y-55159285D01*
X55927619Y-54911666D01*
G04 #@! TO.C,C5*
D11*
X53125952Y-60572380D02*
X53221190Y-60572380D01*
X53316428Y-60620000D01*
X53364047Y-60667619D01*
X53411666Y-60762857D01*
X53459285Y-60953333D01*
X53459285Y-61191428D01*
X53411666Y-61381904D01*
X53364047Y-61477142D01*
X53316428Y-61524761D01*
X53221190Y-61572380D01*
X53125952Y-61572380D01*
X53030714Y-61524761D01*
X52983095Y-61477142D01*
X52935476Y-61381904D01*
X52887857Y-61191428D01*
X52887857Y-60953333D01*
X52935476Y-60762857D01*
X52983095Y-60667619D01*
X53030714Y-60620000D01*
X53125952Y-60572380D01*
X53887857Y-61477142D02*
X53935476Y-61524761D01*
X53887857Y-61572380D01*
X53840238Y-61524761D01*
X53887857Y-61477142D01*
X53887857Y-61572380D01*
X54316428Y-60667619D02*
X54364047Y-60620000D01*
X54459285Y-60572380D01*
X54697380Y-60572380D01*
X54792619Y-60620000D01*
X54840238Y-60667619D01*
X54887857Y-60762857D01*
X54887857Y-60858095D01*
X54840238Y-61000952D01*
X54268809Y-61572380D01*
X54887857Y-61572380D01*
X55268809Y-60667619D02*
X55316428Y-60620000D01*
X55411666Y-60572380D01*
X55649761Y-60572380D01*
X55745000Y-60620000D01*
X55792619Y-60667619D01*
X55840238Y-60762857D01*
X55840238Y-60858095D01*
X55792619Y-61000952D01*
X55221190Y-61572380D01*
X55840238Y-61572380D01*
X56697380Y-60905714D02*
X56697380Y-61572380D01*
X56268809Y-60905714D02*
X56268809Y-61429523D01*
X56316428Y-61524761D01*
X56411666Y-61572380D01*
X56554523Y-61572380D01*
X56649761Y-61524761D01*
X56697380Y-61477142D01*
X57506904Y-61048571D02*
X57173571Y-61048571D01*
X57173571Y-61572380D02*
X57173571Y-60572380D01*
X57649761Y-60572380D01*
D13*
X55178333Y-59832857D02*
X55159285Y-59851904D01*
X55102142Y-59870952D01*
X55064047Y-59870952D01*
X55006904Y-59851904D01*
X54968809Y-59813809D01*
X54949761Y-59775714D01*
X54930714Y-59699523D01*
X54930714Y-59642380D01*
X54949761Y-59566190D01*
X54968809Y-59528095D01*
X55006904Y-59490000D01*
X55064047Y-59470952D01*
X55102142Y-59470952D01*
X55159285Y-59490000D01*
X55178333Y-59509047D01*
X55540238Y-59470952D02*
X55349761Y-59470952D01*
X55330714Y-59661428D01*
X55349761Y-59642380D01*
X55387857Y-59623333D01*
X55483095Y-59623333D01*
X55521190Y-59642380D01*
X55540238Y-59661428D01*
X55559285Y-59699523D01*
X55559285Y-59794761D01*
X55540238Y-59832857D01*
X55521190Y-59851904D01*
X55483095Y-59870952D01*
X55387857Y-59870952D01*
X55349761Y-59851904D01*
X55330714Y-59832857D01*
G04 #@! TO.C,J1*
D11*
X86708571Y-42868809D02*
X86756190Y-42725952D01*
X86803809Y-42678333D01*
X86899047Y-42630714D01*
X87041904Y-42630714D01*
X87137142Y-42678333D01*
X87184761Y-42725952D01*
X87232380Y-42821190D01*
X87232380Y-43202142D01*
X86232380Y-43202142D01*
X86232380Y-42868809D01*
X86280000Y-42773571D01*
X86327619Y-42725952D01*
X86422857Y-42678333D01*
X86518095Y-42678333D01*
X86613333Y-42725952D01*
X86660952Y-42773571D01*
X86708571Y-42868809D01*
X86708571Y-43202142D01*
X87232380Y-41773571D02*
X86708571Y-41773571D01*
X86613333Y-41821190D01*
X86565714Y-41916428D01*
X86565714Y-42106904D01*
X86613333Y-42202142D01*
X87184761Y-41773571D02*
X87232380Y-41868809D01*
X87232380Y-42106904D01*
X87184761Y-42202142D01*
X87089523Y-42249761D01*
X86994285Y-42249761D01*
X86899047Y-42202142D01*
X86851428Y-42106904D01*
X86851428Y-41868809D01*
X86803809Y-41773571D01*
X87232380Y-41297380D02*
X86565714Y-41297380D01*
X86756190Y-41297380D02*
X86660952Y-41249761D01*
X86613333Y-41202142D01*
X86565714Y-41106904D01*
X86565714Y-41011666D01*
X87232380Y-40678333D02*
X86565714Y-40678333D01*
X86756190Y-40678333D02*
X86660952Y-40630714D01*
X86613333Y-40583095D01*
X86565714Y-40487857D01*
X86565714Y-40392619D01*
X87184761Y-39678333D02*
X87232380Y-39773571D01*
X87232380Y-39964047D01*
X87184761Y-40059285D01*
X87089523Y-40106904D01*
X86708571Y-40106904D01*
X86613333Y-40059285D01*
X86565714Y-39964047D01*
X86565714Y-39773571D01*
X86613333Y-39678333D01*
X86708571Y-39630714D01*
X86803809Y-39630714D01*
X86899047Y-40106904D01*
X87232380Y-39059285D02*
X87184761Y-39154523D01*
X87089523Y-39202142D01*
X86232380Y-39202142D01*
X87327619Y-38916428D02*
X87327619Y-38154523D01*
X86232380Y-37630714D02*
X86946666Y-37630714D01*
X87089523Y-37678333D01*
X87184761Y-37773571D01*
X87232380Y-37916428D01*
X87232380Y-38011666D01*
X87232380Y-36725952D02*
X86708571Y-36725952D01*
X86613333Y-36773571D01*
X86565714Y-36868809D01*
X86565714Y-37059285D01*
X86613333Y-37154523D01*
X87184761Y-36725952D02*
X87232380Y-36821190D01*
X87232380Y-37059285D01*
X87184761Y-37154523D01*
X87089523Y-37202142D01*
X86994285Y-37202142D01*
X86899047Y-37154523D01*
X86851428Y-37059285D01*
X86851428Y-36821190D01*
X86803809Y-36725952D01*
X87184761Y-35821190D02*
X87232380Y-35916428D01*
X87232380Y-36106904D01*
X87184761Y-36202142D01*
X87137142Y-36249761D01*
X87041904Y-36297380D01*
X86756190Y-36297380D01*
X86660952Y-36249761D01*
X86613333Y-36202142D01*
X86565714Y-36106904D01*
X86565714Y-35916428D01*
X86613333Y-35821190D01*
X87232380Y-35392619D02*
X86232380Y-35392619D01*
X86851428Y-35297380D02*
X87232380Y-35011666D01*
X86565714Y-35011666D02*
X86946666Y-35392619D01*
X87327619Y-34821190D02*
X87327619Y-34059285D01*
X87184761Y-33868809D02*
X87232380Y-33725952D01*
X87232380Y-33487857D01*
X87184761Y-33392619D01*
X87137142Y-33345000D01*
X87041904Y-33297380D01*
X86946666Y-33297380D01*
X86851428Y-33345000D01*
X86803809Y-33392619D01*
X86756190Y-33487857D01*
X86708571Y-33678333D01*
X86660952Y-33773571D01*
X86613333Y-33821190D01*
X86518095Y-33868809D01*
X86422857Y-33868809D01*
X86327619Y-33821190D01*
X86280000Y-33773571D01*
X86232380Y-33678333D01*
X86232380Y-33440238D01*
X86280000Y-33297380D01*
X86565714Y-32964047D02*
X87232380Y-32773571D01*
X86756190Y-32583095D01*
X87232380Y-32392619D01*
X86565714Y-32202142D01*
X87232380Y-31821190D02*
X86565714Y-31821190D01*
X86232380Y-31821190D02*
X86280000Y-31868809D01*
X86327619Y-31821190D01*
X86280000Y-31773571D01*
X86232380Y-31821190D01*
X86327619Y-31821190D01*
X86565714Y-31487857D02*
X86565714Y-31106904D01*
X86232380Y-31345000D02*
X87089523Y-31345000D01*
X87184761Y-31297380D01*
X87232380Y-31202142D01*
X87232380Y-31106904D01*
X87184761Y-30345000D02*
X87232380Y-30440238D01*
X87232380Y-30630714D01*
X87184761Y-30725952D01*
X87137142Y-30773571D01*
X87041904Y-30821190D01*
X86756190Y-30821190D01*
X86660952Y-30773571D01*
X86613333Y-30725952D01*
X86565714Y-30630714D01*
X86565714Y-30440238D01*
X86613333Y-30345000D01*
X87232380Y-29916428D02*
X86232380Y-29916428D01*
X87232380Y-29487857D02*
X86708571Y-29487857D01*
X86613333Y-29535476D01*
X86565714Y-29630714D01*
X86565714Y-29773571D01*
X86613333Y-29868809D01*
X86660952Y-29916428D01*
X83682380Y-39878333D02*
X84396666Y-39878333D01*
X84539523Y-39925952D01*
X84634761Y-40021190D01*
X84682380Y-40164047D01*
X84682380Y-40259285D01*
X84682380Y-38878333D02*
X84682380Y-39449761D01*
X84682380Y-39164047D02*
X83682380Y-39164047D01*
X83825238Y-39259285D01*
X83920476Y-39354523D01*
X83968095Y-39449761D01*
G04 #@! TO.C,J2*
X51998571Y-72381428D02*
X51998571Y-72048095D01*
X52522380Y-71905238D02*
X52522380Y-72381428D01*
X51522380Y-72381428D01*
X51522380Y-71905238D01*
X52522380Y-71571904D02*
X51855714Y-71048095D01*
X51855714Y-71571904D02*
X52522380Y-71048095D01*
X51855714Y-70810000D02*
X51855714Y-70429047D01*
X51522380Y-70667142D02*
X52379523Y-70667142D01*
X52474761Y-70619523D01*
X52522380Y-70524285D01*
X52522380Y-70429047D01*
X52522380Y-68857619D02*
X52522380Y-69333809D01*
X51522380Y-69333809D01*
X51998571Y-68524285D02*
X51998571Y-68190952D01*
X52522380Y-68048095D02*
X52522380Y-68524285D01*
X51522380Y-68524285D01*
X51522380Y-68048095D01*
X52522380Y-67619523D02*
X51522380Y-67619523D01*
X51522380Y-67381428D01*
X51570000Y-67238571D01*
X51665238Y-67143333D01*
X51760476Y-67095714D01*
X51950952Y-67048095D01*
X52093809Y-67048095D01*
X52284285Y-67095714D01*
X52379523Y-67143333D01*
X52474761Y-67238571D01*
X52522380Y-67381428D01*
X52522380Y-67619523D01*
X52903333Y-65571904D02*
X52855714Y-65619523D01*
X52712857Y-65714761D01*
X52617619Y-65762380D01*
X52474761Y-65810000D01*
X52236666Y-65857619D01*
X52046190Y-65857619D01*
X51808095Y-65810000D01*
X51665238Y-65762380D01*
X51570000Y-65714761D01*
X51427142Y-65619523D01*
X51379523Y-65571904D01*
X52522380Y-64667142D02*
X52522380Y-65238571D01*
X52522380Y-64952857D02*
X51522380Y-64952857D01*
X51665238Y-65048095D01*
X51760476Y-65143333D01*
X51808095Y-65238571D01*
X51617619Y-64286190D02*
X51570000Y-64238571D01*
X51522380Y-64143333D01*
X51522380Y-63905238D01*
X51570000Y-63810000D01*
X51617619Y-63762380D01*
X51712857Y-63714761D01*
X51808095Y-63714761D01*
X51950952Y-63762380D01*
X52522380Y-64333809D01*
X52522380Y-63714761D01*
X51522380Y-63429047D02*
X52522380Y-63095714D01*
X51522380Y-62762380D01*
X52903333Y-62524285D02*
X52855714Y-62476666D01*
X52712857Y-62381428D01*
X52617619Y-62333809D01*
X52474761Y-62286190D01*
X52236666Y-62238571D01*
X52046190Y-62238571D01*
X51808095Y-62286190D01*
X51665238Y-62333809D01*
X51570000Y-62381428D01*
X51427142Y-62476666D01*
X51379523Y-62524285D01*
X49196666Y-59142380D02*
X49196666Y-59856666D01*
X49149047Y-59999523D01*
X49053809Y-60094761D01*
X48910952Y-60142380D01*
X48815714Y-60142380D01*
X49625238Y-59237619D02*
X49672857Y-59190000D01*
X49768095Y-59142380D01*
X50006190Y-59142380D01*
X50101428Y-59190000D01*
X50149047Y-59237619D01*
X50196666Y-59332857D01*
X50196666Y-59428095D01*
X50149047Y-59570952D01*
X49577619Y-60142380D01*
X50196666Y-60142380D01*
G04 #@! TO.C,J4*
X34742380Y-36401190D02*
X33742380Y-36401190D01*
X34647142Y-35353571D02*
X34694761Y-35401190D01*
X34742380Y-35544047D01*
X34742380Y-35639285D01*
X34694761Y-35782142D01*
X34599523Y-35877380D01*
X34504285Y-35925000D01*
X34313809Y-35972619D01*
X34170952Y-35972619D01*
X33980476Y-35925000D01*
X33885238Y-35877380D01*
X33790000Y-35782142D01*
X33742380Y-35639285D01*
X33742380Y-35544047D01*
X33790000Y-35401190D01*
X33837619Y-35353571D01*
X34694761Y-34972619D02*
X34742380Y-34829761D01*
X34742380Y-34591666D01*
X34694761Y-34496428D01*
X34647142Y-34448809D01*
X34551904Y-34401190D01*
X34456666Y-34401190D01*
X34361428Y-34448809D01*
X34313809Y-34496428D01*
X34266190Y-34591666D01*
X34218571Y-34782142D01*
X34170952Y-34877380D01*
X34123333Y-34925000D01*
X34028095Y-34972619D01*
X33932857Y-34972619D01*
X33837619Y-34925000D01*
X33790000Y-34877380D01*
X33742380Y-34782142D01*
X33742380Y-34544047D01*
X33790000Y-34401190D01*
X34742380Y-33972619D02*
X33742380Y-33972619D01*
X33742380Y-33591666D01*
X33790000Y-33496428D01*
X33837619Y-33448809D01*
X33932857Y-33401190D01*
X34075714Y-33401190D01*
X34170952Y-33448809D01*
X34218571Y-33496428D01*
X34266190Y-33591666D01*
X34266190Y-33972619D01*
X54276666Y-40122380D02*
X54276666Y-40836666D01*
X54229047Y-40979523D01*
X54133809Y-41074761D01*
X53990952Y-41122380D01*
X53895714Y-41122380D01*
X55181428Y-40455714D02*
X55181428Y-41122380D01*
X54943333Y-40074761D02*
X54705238Y-40789047D01*
X55324285Y-40789047D01*
G04 #@! TO.C,D4*
X36012380Y-46362857D02*
X36012380Y-46839047D01*
X35012380Y-46839047D01*
X35488571Y-46029523D02*
X35488571Y-45696190D01*
X36012380Y-45553333D02*
X36012380Y-46029523D01*
X35012380Y-46029523D01*
X35012380Y-45553333D01*
X36012380Y-45124761D02*
X35012380Y-45124761D01*
X35012380Y-44886666D01*
X35060000Y-44743809D01*
X35155238Y-44648571D01*
X35250476Y-44600952D01*
X35440952Y-44553333D01*
X35583809Y-44553333D01*
X35774285Y-44600952D01*
X35869523Y-44648571D01*
X35964761Y-44743809D01*
X36012380Y-44886666D01*
X36012380Y-45124761D01*
D13*
X37010952Y-46015238D02*
X36610952Y-46015238D01*
X36610952Y-45920000D01*
X36630000Y-45862857D01*
X36668095Y-45824761D01*
X36706190Y-45805714D01*
X36782380Y-45786666D01*
X36839523Y-45786666D01*
X36915714Y-45805714D01*
X36953809Y-45824761D01*
X36991904Y-45862857D01*
X37010952Y-45920000D01*
X37010952Y-46015238D01*
X36744285Y-45443809D02*
X37010952Y-45443809D01*
X36591904Y-45539047D02*
X36877619Y-45634285D01*
X36877619Y-45386666D01*
G04 #@! TO.C,U2*
D11*
X48403333Y-58732380D02*
X48403333Y-57732380D01*
X48403333Y-58208571D02*
X48974761Y-58208571D01*
X48974761Y-58732380D02*
X48974761Y-57732380D01*
X49450952Y-58732380D02*
X49450952Y-57732380D01*
X49784285Y-58446666D01*
X50117619Y-57732380D01*
X50117619Y-58732380D01*
X51165238Y-58637142D02*
X51117619Y-58684761D01*
X50974761Y-58732380D01*
X50879523Y-58732380D01*
X50736666Y-58684761D01*
X50641428Y-58589523D01*
X50593809Y-58494285D01*
X50546190Y-58303809D01*
X50546190Y-58160952D01*
X50593809Y-57970476D01*
X50641428Y-57875238D01*
X50736666Y-57780000D01*
X50879523Y-57732380D01*
X50974761Y-57732380D01*
X51117619Y-57780000D01*
X51165238Y-57827619D01*
X52070000Y-57732380D02*
X51593809Y-57732380D01*
X51546190Y-58208571D01*
X51593809Y-58160952D01*
X51689047Y-58113333D01*
X51927142Y-58113333D01*
X52022380Y-58160952D01*
X52070000Y-58208571D01*
X52117619Y-58303809D01*
X52117619Y-58541904D01*
X52070000Y-58637142D01*
X52022380Y-58684761D01*
X51927142Y-58732380D01*
X51689047Y-58732380D01*
X51593809Y-58684761D01*
X51546190Y-58637142D01*
X52689047Y-58160952D02*
X52593809Y-58113333D01*
X52546190Y-58065714D01*
X52498571Y-57970476D01*
X52498571Y-57922857D01*
X52546190Y-57827619D01*
X52593809Y-57780000D01*
X52689047Y-57732380D01*
X52879523Y-57732380D01*
X52974761Y-57780000D01*
X53022380Y-57827619D01*
X53070000Y-57922857D01*
X53070000Y-57970476D01*
X53022380Y-58065714D01*
X52974761Y-58113333D01*
X52879523Y-58160952D01*
X52689047Y-58160952D01*
X52593809Y-58208571D01*
X52546190Y-58256190D01*
X52498571Y-58351428D01*
X52498571Y-58541904D01*
X52546190Y-58637142D01*
X52593809Y-58684761D01*
X52689047Y-58732380D01*
X52879523Y-58732380D01*
X52974761Y-58684761D01*
X53022380Y-58637142D01*
X53070000Y-58541904D01*
X53070000Y-58351428D01*
X53022380Y-58256190D01*
X52974761Y-58208571D01*
X52879523Y-58160952D01*
X53641428Y-58160952D02*
X53546190Y-58113333D01*
X53498571Y-58065714D01*
X53450952Y-57970476D01*
X53450952Y-57922857D01*
X53498571Y-57827619D01*
X53546190Y-57780000D01*
X53641428Y-57732380D01*
X53831904Y-57732380D01*
X53927142Y-57780000D01*
X53974761Y-57827619D01*
X54022380Y-57922857D01*
X54022380Y-57970476D01*
X53974761Y-58065714D01*
X53927142Y-58113333D01*
X53831904Y-58160952D01*
X53641428Y-58160952D01*
X53546190Y-58208571D01*
X53498571Y-58256190D01*
X53450952Y-58351428D01*
X53450952Y-58541904D01*
X53498571Y-58637142D01*
X53546190Y-58684761D01*
X53641428Y-58732380D01*
X53831904Y-58732380D01*
X53927142Y-58684761D01*
X53974761Y-58637142D01*
X54022380Y-58541904D01*
X54022380Y-58351428D01*
X53974761Y-58256190D01*
X53927142Y-58208571D01*
X53831904Y-58160952D01*
X54355714Y-57732380D02*
X54974761Y-57732380D01*
X54641428Y-58113333D01*
X54784285Y-58113333D01*
X54879523Y-58160952D01*
X54927142Y-58208571D01*
X54974761Y-58303809D01*
X54974761Y-58541904D01*
X54927142Y-58637142D01*
X54879523Y-58684761D01*
X54784285Y-58732380D01*
X54498571Y-58732380D01*
X54403333Y-58684761D01*
X54355714Y-58637142D01*
X55879523Y-58732380D02*
X55403333Y-58732380D01*
X55403333Y-57732380D01*
D14*
X50716666Y-55046666D02*
X50716666Y-55613333D01*
X50750000Y-55680000D01*
X50783333Y-55713333D01*
X50850000Y-55746666D01*
X50983333Y-55746666D01*
X51050000Y-55713333D01*
X51083333Y-55680000D01*
X51116666Y-55613333D01*
X51116666Y-55046666D01*
X51416666Y-55113333D02*
X51450000Y-55080000D01*
X51516666Y-55046666D01*
X51683333Y-55046666D01*
X51750000Y-55080000D01*
X51783333Y-55113333D01*
X51816666Y-55180000D01*
X51816666Y-55246666D01*
X51783333Y-55346666D01*
X51383333Y-55746666D01*
X51816666Y-55746666D01*
G04 #@! TO.C,U1*
D11*
X36997380Y-54087380D02*
X36997380Y-53087380D01*
X37378333Y-53087380D01*
X37473571Y-53135000D01*
X37521190Y-53182619D01*
X37568809Y-53277857D01*
X37568809Y-53420714D01*
X37521190Y-53515952D01*
X37473571Y-53563571D01*
X37378333Y-53611190D01*
X36997380Y-53611190D01*
X37997380Y-54087380D02*
X37997380Y-53087380D01*
X39045000Y-53992142D02*
X38997380Y-54039761D01*
X38854523Y-54087380D01*
X38759285Y-54087380D01*
X38616428Y-54039761D01*
X38521190Y-53944523D01*
X38473571Y-53849285D01*
X38425952Y-53658809D01*
X38425952Y-53515952D01*
X38473571Y-53325476D01*
X38521190Y-53230238D01*
X38616428Y-53135000D01*
X38759285Y-53087380D01*
X38854523Y-53087380D01*
X38997380Y-53135000D01*
X39045000Y-53182619D01*
X39997380Y-54087380D02*
X39425952Y-54087380D01*
X39711666Y-54087380D02*
X39711666Y-53087380D01*
X39616428Y-53230238D01*
X39521190Y-53325476D01*
X39425952Y-53373095D01*
X40854523Y-53087380D02*
X40664047Y-53087380D01*
X40568809Y-53135000D01*
X40521190Y-53182619D01*
X40425952Y-53325476D01*
X40378333Y-53515952D01*
X40378333Y-53896904D01*
X40425952Y-53992142D01*
X40473571Y-54039761D01*
X40568809Y-54087380D01*
X40759285Y-54087380D01*
X40854523Y-54039761D01*
X40902142Y-53992142D01*
X40949761Y-53896904D01*
X40949761Y-53658809D01*
X40902142Y-53563571D01*
X40854523Y-53515952D01*
X40759285Y-53468333D01*
X40568809Y-53468333D01*
X40473571Y-53515952D01*
X40425952Y-53563571D01*
X40378333Y-53658809D01*
X41711666Y-53563571D02*
X41378333Y-53563571D01*
X41378333Y-54087380D02*
X41378333Y-53087380D01*
X41854523Y-53087380D01*
X42711666Y-53087380D02*
X42235476Y-53087380D01*
X42187857Y-53563571D01*
X42235476Y-53515952D01*
X42330714Y-53468333D01*
X42568809Y-53468333D01*
X42664047Y-53515952D01*
X42711666Y-53563571D01*
X42759285Y-53658809D01*
X42759285Y-53896904D01*
X42711666Y-53992142D01*
X42664047Y-54039761D01*
X42568809Y-54087380D01*
X42330714Y-54087380D01*
X42235476Y-54039761D01*
X42187857Y-53992142D01*
X43378333Y-53087380D02*
X43473571Y-53087380D01*
X43568809Y-53135000D01*
X43616428Y-53182619D01*
X43664047Y-53277857D01*
X43711666Y-53468333D01*
X43711666Y-53706428D01*
X43664047Y-53896904D01*
X43616428Y-53992142D01*
X43568809Y-54039761D01*
X43473571Y-54087380D01*
X43378333Y-54087380D01*
X43283095Y-54039761D01*
X43235476Y-53992142D01*
X43187857Y-53896904D01*
X43140238Y-53706428D01*
X43140238Y-53468333D01*
X43187857Y-53277857D01*
X43235476Y-53182619D01*
X43283095Y-53135000D01*
X43378333Y-53087380D01*
X44616428Y-53087380D02*
X44140238Y-53087380D01*
X44092619Y-53563571D01*
X44140238Y-53515952D01*
X44235476Y-53468333D01*
X44473571Y-53468333D01*
X44568809Y-53515952D01*
X44616428Y-53563571D01*
X44664047Y-53658809D01*
X44664047Y-53896904D01*
X44616428Y-53992142D01*
X44568809Y-54039761D01*
X44473571Y-54087380D01*
X44235476Y-54087380D01*
X44140238Y-54039761D01*
X44092619Y-53992142D01*
X45092619Y-53706428D02*
X45854523Y-53706428D01*
X46330714Y-54087380D02*
X46330714Y-53087380D01*
X46759285Y-54039761D02*
X46902142Y-54087380D01*
X47140238Y-54087380D01*
X47235476Y-54039761D01*
X47283095Y-53992142D01*
X47330714Y-53896904D01*
X47330714Y-53801666D01*
X47283095Y-53706428D01*
X47235476Y-53658809D01*
X47140238Y-53611190D01*
X46949761Y-53563571D01*
X46854523Y-53515952D01*
X46806904Y-53468333D01*
X46759285Y-53373095D01*
X46759285Y-53277857D01*
X46806904Y-53182619D01*
X46854523Y-53135000D01*
X46949761Y-53087380D01*
X47187857Y-53087380D01*
X47330714Y-53135000D01*
X48235476Y-54087380D02*
X47759285Y-54087380D01*
X47759285Y-53087380D01*
D15*
X41859285Y-47767142D02*
X41859285Y-48495714D01*
X41902142Y-48581428D01*
X41945000Y-48624285D01*
X42030714Y-48667142D01*
X42202142Y-48667142D01*
X42287857Y-48624285D01*
X42330714Y-48581428D01*
X42373571Y-48495714D01*
X42373571Y-47767142D01*
X43273571Y-48667142D02*
X42759285Y-48667142D01*
X43016428Y-48667142D02*
X43016428Y-47767142D01*
X42930714Y-47895714D01*
X42845000Y-47981428D01*
X42759285Y-48024285D01*
G04 #@! TO.C,U4*
D11*
X60405000Y-43291666D02*
X60881190Y-43291666D01*
X60309761Y-43577380D02*
X60643095Y-42577380D01*
X60976428Y-43577380D01*
X61309761Y-43577380D02*
X61309761Y-42577380D01*
X61643095Y-43291666D01*
X61976428Y-42577380D01*
X61976428Y-43577380D01*
X62405000Y-43529761D02*
X62547857Y-43577380D01*
X62785952Y-43577380D01*
X62881190Y-43529761D01*
X62928809Y-43482142D01*
X62976428Y-43386904D01*
X62976428Y-43291666D01*
X62928809Y-43196428D01*
X62881190Y-43148809D01*
X62785952Y-43101190D01*
X62595476Y-43053571D01*
X62500238Y-43005952D01*
X62452619Y-42958333D01*
X62405000Y-42863095D01*
X62405000Y-42767857D01*
X62452619Y-42672619D01*
X62500238Y-42625000D01*
X62595476Y-42577380D01*
X62833571Y-42577380D01*
X62976428Y-42625000D01*
X63928809Y-43577380D02*
X63357380Y-43577380D01*
X63643095Y-43577380D02*
X63643095Y-42577380D01*
X63547857Y-42720238D01*
X63452619Y-42815476D01*
X63357380Y-42863095D01*
X64881190Y-43577380D02*
X64309761Y-43577380D01*
X64595476Y-43577380D02*
X64595476Y-42577380D01*
X64500238Y-42720238D01*
X64405000Y-42815476D01*
X64309761Y-42863095D01*
X65833571Y-43577380D02*
X65262142Y-43577380D01*
X65547857Y-43577380D02*
X65547857Y-42577380D01*
X65452619Y-42720238D01*
X65357380Y-42815476D01*
X65262142Y-42863095D01*
X66166904Y-42577380D02*
X66833571Y-42577380D01*
X66404999Y-43577380D01*
X67214523Y-43196428D02*
X67976428Y-43196428D01*
X68928809Y-42577380D02*
X68452619Y-42577380D01*
X68405000Y-43053571D01*
X68452619Y-43005952D01*
X68547857Y-42958333D01*
X68785952Y-42958333D01*
X68881190Y-43005952D01*
X68928809Y-43053571D01*
X68976428Y-43148809D01*
X68976428Y-43386904D01*
X68928809Y-43482142D01*
X68881190Y-43529761D01*
X68785952Y-43577380D01*
X68547857Y-43577380D01*
X68452619Y-43529761D01*
X68405000Y-43482142D01*
X69405000Y-43482142D02*
X69452619Y-43529761D01*
X69405000Y-43577380D01*
X69357380Y-43529761D01*
X69405000Y-43482142D01*
X69405000Y-43577380D01*
X70071666Y-42577380D02*
X70166904Y-42577380D01*
X70262142Y-42625000D01*
X70309761Y-42672619D01*
X70357380Y-42767857D01*
X70405000Y-42958333D01*
X70405000Y-43196428D01*
X70357380Y-43386904D01*
X70309761Y-43482142D01*
X70262142Y-43529761D01*
X70166904Y-43577380D01*
X70071666Y-43577380D01*
X69976428Y-43529761D01*
X69928809Y-43482142D01*
X69881190Y-43386904D01*
X69833571Y-43196428D01*
X69833571Y-42958333D01*
X69881190Y-42767857D01*
X69928809Y-42672619D01*
X69976428Y-42625000D01*
X70071666Y-42577380D01*
D16*
X64331904Y-48234523D02*
X64979523Y-48234523D01*
X65055714Y-48196428D01*
X65093809Y-48158333D01*
X65131904Y-48082142D01*
X65131904Y-47929761D01*
X65093809Y-47853571D01*
X65055714Y-47815476D01*
X64979523Y-47777380D01*
X64331904Y-47777380D01*
X64598571Y-47053571D02*
X65131904Y-47053571D01*
X64293809Y-47244047D02*
X64865238Y-47434523D01*
X64865238Y-46939285D01*
G04 #@! TO.C,U5*
D11*
X49610000Y-43291666D02*
X50086190Y-43291666D01*
X49514761Y-43577380D02*
X49848095Y-42577380D01*
X50181428Y-43577380D01*
X50514761Y-43577380D02*
X50514761Y-42577380D01*
X50848095Y-43291666D01*
X51181428Y-42577380D01*
X51181428Y-43577380D01*
X51610000Y-43529761D02*
X51752857Y-43577380D01*
X51990952Y-43577380D01*
X52086190Y-43529761D01*
X52133809Y-43482142D01*
X52181428Y-43386904D01*
X52181428Y-43291666D01*
X52133809Y-43196428D01*
X52086190Y-43148809D01*
X51990952Y-43101190D01*
X51800476Y-43053571D01*
X51705238Y-43005952D01*
X51657619Y-42958333D01*
X51610000Y-42863095D01*
X51610000Y-42767857D01*
X51657619Y-42672619D01*
X51705238Y-42625000D01*
X51800476Y-42577380D01*
X52038571Y-42577380D01*
X52181428Y-42625000D01*
X53133809Y-43577380D02*
X52562380Y-43577380D01*
X52848095Y-43577380D02*
X52848095Y-42577380D01*
X52752857Y-42720238D01*
X52657619Y-42815476D01*
X52562380Y-42863095D01*
X54086190Y-43577380D02*
X53514761Y-43577380D01*
X53800476Y-43577380D02*
X53800476Y-42577380D01*
X53705238Y-42720238D01*
X53610000Y-42815476D01*
X53514761Y-42863095D01*
X55038571Y-43577380D02*
X54467142Y-43577380D01*
X54752857Y-43577380D02*
X54752857Y-42577380D01*
X54657619Y-42720238D01*
X54562380Y-42815476D01*
X54467142Y-42863095D01*
X55371904Y-42577380D02*
X56038571Y-42577380D01*
X55609999Y-43577380D01*
X56419523Y-43196428D02*
X57181428Y-43196428D01*
X57562380Y-42577380D02*
X58181428Y-42577380D01*
X57848095Y-42958333D01*
X57990952Y-42958333D01*
X58086190Y-43005952D01*
X58133809Y-43053571D01*
X58181428Y-43148809D01*
X58181428Y-43386904D01*
X58133809Y-43482142D01*
X58086190Y-43529761D01*
X57990952Y-43577380D01*
X57705238Y-43577380D01*
X57609999Y-43529761D01*
X57562380Y-43482142D01*
X58610000Y-43482142D02*
X58657619Y-43529761D01*
X58610000Y-43577380D01*
X58562380Y-43529761D01*
X58610000Y-43482142D01*
X58610000Y-43577380D01*
X58990952Y-42577380D02*
X59609999Y-42577380D01*
X59276666Y-42958333D01*
X59419523Y-42958333D01*
X59514761Y-43005952D01*
X59562380Y-43053571D01*
X59609999Y-43148809D01*
X59609999Y-43386904D01*
X59562380Y-43482142D01*
X59514761Y-43529761D01*
X59419523Y-43577380D01*
X59133809Y-43577380D01*
X59038571Y-43529761D01*
X58990952Y-43482142D01*
D16*
X54806904Y-48234523D02*
X55454523Y-48234523D01*
X55530714Y-48196428D01*
X55568809Y-48158333D01*
X55606904Y-48082142D01*
X55606904Y-47929761D01*
X55568809Y-47853571D01*
X55530714Y-47815476D01*
X55454523Y-47777380D01*
X54806904Y-47777380D01*
X54806904Y-47015476D02*
X54806904Y-47396428D01*
X55187857Y-47434523D01*
X55149761Y-47396428D01*
X55111666Y-47320238D01*
X55111666Y-47129761D01*
X55149761Y-47053571D01*
X55187857Y-47015476D01*
X55264047Y-46977380D01*
X55454523Y-46977380D01*
X55530714Y-47015476D01*
X55568809Y-47053571D01*
X55606904Y-47129761D01*
X55606904Y-47320238D01*
X55568809Y-47396428D01*
X55530714Y-47434523D01*
G04 #@! TO.C,R1*
D11*
X82207380Y-52109523D02*
X82207380Y-51919047D01*
X82159761Y-51823809D01*
X82112142Y-51776190D01*
X81969285Y-51680952D01*
X81778809Y-51633333D01*
X81397857Y-51633333D01*
X81302619Y-51680952D01*
X81255000Y-51728571D01*
X81207380Y-51823809D01*
X81207380Y-52014285D01*
X81255000Y-52109523D01*
X81302619Y-52157142D01*
X81397857Y-52204761D01*
X81635952Y-52204761D01*
X81731190Y-52157142D01*
X81778809Y-52109523D01*
X81826428Y-52014285D01*
X81826428Y-51823809D01*
X81778809Y-51728571D01*
X81731190Y-51680952D01*
X81635952Y-51633333D01*
X82112142Y-51204761D02*
X82159761Y-51157142D01*
X82207380Y-51204761D01*
X82159761Y-51252380D01*
X82112142Y-51204761D01*
X82207380Y-51204761D01*
X82207380Y-50204761D02*
X82207380Y-50776190D01*
X82207380Y-50490476D02*
X81207380Y-50490476D01*
X81350238Y-50585714D01*
X81445476Y-50680952D01*
X81493095Y-50776190D01*
X82207380Y-49776190D02*
X81207380Y-49776190D01*
X81826428Y-49680952D02*
X82207380Y-49395238D01*
X81540714Y-49395238D02*
X81921666Y-49776190D01*
D13*
X83365952Y-50866666D02*
X83175476Y-51000000D01*
X83365952Y-51095238D02*
X82965952Y-51095238D01*
X82965952Y-50942857D01*
X82985000Y-50904761D01*
X83004047Y-50885714D01*
X83042142Y-50866666D01*
X83099285Y-50866666D01*
X83137380Y-50885714D01*
X83156428Y-50904761D01*
X83175476Y-50942857D01*
X83175476Y-51095238D01*
X83365952Y-50485714D02*
X83365952Y-50714285D01*
X83365952Y-50600000D02*
X82965952Y-50600000D01*
X83023095Y-50638095D01*
X83061190Y-50676190D01*
X83080238Y-50714285D01*
G04 #@! TO.C,R2*
D11*
X81207380Y-56173571D02*
X81207380Y-56364047D01*
X81255000Y-56459285D01*
X81302619Y-56506904D01*
X81445476Y-56602142D01*
X81635952Y-56649761D01*
X82016904Y-56649761D01*
X82112142Y-56602142D01*
X82159761Y-56554523D01*
X82207380Y-56459285D01*
X82207380Y-56268809D01*
X82159761Y-56173571D01*
X82112142Y-56125952D01*
X82016904Y-56078333D01*
X81778809Y-56078333D01*
X81683571Y-56125952D01*
X81635952Y-56173571D01*
X81588333Y-56268809D01*
X81588333Y-56459285D01*
X81635952Y-56554523D01*
X81683571Y-56602142D01*
X81778809Y-56649761D01*
X82112142Y-55649761D02*
X82159761Y-55602142D01*
X82207380Y-55649761D01*
X82159761Y-55697380D01*
X82112142Y-55649761D01*
X82207380Y-55649761D01*
X81635952Y-55030714D02*
X81588333Y-55125952D01*
X81540714Y-55173571D01*
X81445476Y-55221190D01*
X81397857Y-55221190D01*
X81302619Y-55173571D01*
X81255000Y-55125952D01*
X81207380Y-55030714D01*
X81207380Y-54840238D01*
X81255000Y-54745000D01*
X81302619Y-54697380D01*
X81397857Y-54649761D01*
X81445476Y-54649761D01*
X81540714Y-54697380D01*
X81588333Y-54745000D01*
X81635952Y-54840238D01*
X81635952Y-55030714D01*
X81683571Y-55125952D01*
X81731190Y-55173571D01*
X81826428Y-55221190D01*
X82016904Y-55221190D01*
X82112142Y-55173571D01*
X82159761Y-55125952D01*
X82207380Y-55030714D01*
X82207380Y-54840238D01*
X82159761Y-54745000D01*
X82112142Y-54697380D01*
X82016904Y-54649761D01*
X81826428Y-54649761D01*
X81731190Y-54697380D01*
X81683571Y-54745000D01*
X81635952Y-54840238D01*
X82207380Y-54221190D02*
X81207380Y-54221190D01*
X81826428Y-54125952D02*
X82207380Y-53840238D01*
X81540714Y-53840238D02*
X81921666Y-54221190D01*
D13*
X83365952Y-55311666D02*
X83175476Y-55445000D01*
X83365952Y-55540238D02*
X82965952Y-55540238D01*
X82965952Y-55387857D01*
X82985000Y-55349761D01*
X83004047Y-55330714D01*
X83042142Y-55311666D01*
X83099285Y-55311666D01*
X83137380Y-55330714D01*
X83156428Y-55349761D01*
X83175476Y-55387857D01*
X83175476Y-55540238D01*
X83004047Y-55159285D02*
X82985000Y-55140238D01*
X82965952Y-55102142D01*
X82965952Y-55006904D01*
X82985000Y-54968809D01*
X83004047Y-54949761D01*
X83042142Y-54930714D01*
X83080238Y-54930714D01*
X83137380Y-54949761D01*
X83365952Y-55178333D01*
X83365952Y-54930714D01*
G04 #@! TO.C,R3*
D11*
X46935714Y-58078571D02*
X47602380Y-58078571D01*
X46554761Y-58316666D02*
X47269047Y-58554761D01*
X47269047Y-57935714D01*
X47507142Y-57554761D02*
X47554761Y-57507142D01*
X47602380Y-57554761D01*
X47554761Y-57602380D01*
X47507142Y-57554761D01*
X47602380Y-57554761D01*
X46602380Y-57173809D02*
X46602380Y-56507142D01*
X47602380Y-56935714D01*
X47602380Y-56126190D02*
X46602380Y-56126190D01*
X47221428Y-56030952D02*
X47602380Y-55745238D01*
X46935714Y-55745238D02*
X47316666Y-56126190D01*
D13*
X45900952Y-57216666D02*
X45710476Y-57350000D01*
X45900952Y-57445238D02*
X45500952Y-57445238D01*
X45500952Y-57292857D01*
X45520000Y-57254761D01*
X45539047Y-57235714D01*
X45577142Y-57216666D01*
X45634285Y-57216666D01*
X45672380Y-57235714D01*
X45691428Y-57254761D01*
X45710476Y-57292857D01*
X45710476Y-57445238D01*
X45500952Y-57083333D02*
X45500952Y-56835714D01*
X45653333Y-56969047D01*
X45653333Y-56911904D01*
X45672380Y-56873809D01*
X45691428Y-56854761D01*
X45729523Y-56835714D01*
X45824761Y-56835714D01*
X45862857Y-56854761D01*
X45881904Y-56873809D01*
X45900952Y-56911904D01*
X45900952Y-57026190D01*
X45881904Y-57064285D01*
X45862857Y-57083333D01*
G04 #@! TO.C,R4*
D11*
X47966428Y-49155714D02*
X47966428Y-49822380D01*
X47728333Y-48774761D02*
X47490238Y-49489047D01*
X48109285Y-49489047D01*
X48490238Y-49727142D02*
X48537857Y-49774761D01*
X48490238Y-49822380D01*
X48442619Y-49774761D01*
X48490238Y-49727142D01*
X48490238Y-49822380D01*
X48871190Y-48822380D02*
X49537857Y-48822380D01*
X49109285Y-49822380D01*
X49918809Y-49822380D02*
X49918809Y-48822380D01*
X50014047Y-49441428D02*
X50299761Y-49822380D01*
X50299761Y-49155714D02*
X49918809Y-49536666D01*
D13*
X48828333Y-50980952D02*
X48695000Y-50790476D01*
X48599761Y-50980952D02*
X48599761Y-50580952D01*
X48752142Y-50580952D01*
X48790238Y-50600000D01*
X48809285Y-50619047D01*
X48828333Y-50657142D01*
X48828333Y-50714285D01*
X48809285Y-50752380D01*
X48790238Y-50771428D01*
X48752142Y-50790476D01*
X48599761Y-50790476D01*
X49171190Y-50714285D02*
X49171190Y-50980952D01*
X49075952Y-50561904D02*
X48980714Y-50847619D01*
X49228333Y-50847619D01*
G04 #@! TO.C,R5*
D11*
X34852380Y-50879285D02*
X34852380Y-51355476D01*
X35328571Y-51403095D01*
X35280952Y-51355476D01*
X35233333Y-51260238D01*
X35233333Y-51022142D01*
X35280952Y-50926904D01*
X35328571Y-50879285D01*
X35423809Y-50831666D01*
X35661904Y-50831666D01*
X35757142Y-50879285D01*
X35804761Y-50926904D01*
X35852380Y-51022142D01*
X35852380Y-51260238D01*
X35804761Y-51355476D01*
X35757142Y-51403095D01*
X34852380Y-49974523D02*
X34852380Y-50165000D01*
X34900000Y-50260238D01*
X34947619Y-50307857D01*
X35090476Y-50403095D01*
X35280952Y-50450714D01*
X35661904Y-50450714D01*
X35757142Y-50403095D01*
X35804761Y-50355476D01*
X35852380Y-50260238D01*
X35852380Y-50069761D01*
X35804761Y-49974523D01*
X35757142Y-49926904D01*
X35661904Y-49879285D01*
X35423809Y-49879285D01*
X35328571Y-49926904D01*
X35280952Y-49974523D01*
X35233333Y-50069761D01*
X35233333Y-50260238D01*
X35280952Y-50355476D01*
X35328571Y-50403095D01*
X35423809Y-50450714D01*
X34852380Y-49260238D02*
X34852380Y-49165000D01*
X34900000Y-49069761D01*
X34947619Y-49022142D01*
X35042857Y-48974523D01*
X35233333Y-48926904D01*
X35471428Y-48926904D01*
X35661904Y-48974523D01*
X35757142Y-49022142D01*
X35804761Y-49069761D01*
X35852380Y-49165000D01*
X35852380Y-49260238D01*
X35804761Y-49355476D01*
X35757142Y-49403095D01*
X35661904Y-49450714D01*
X35471428Y-49498333D01*
X35233333Y-49498333D01*
X35042857Y-49450714D01*
X34947619Y-49403095D01*
X34900000Y-49355476D01*
X34852380Y-49260238D01*
D13*
X37010952Y-50231666D02*
X36820476Y-50365000D01*
X37010952Y-50460238D02*
X36610952Y-50460238D01*
X36610952Y-50307857D01*
X36630000Y-50269761D01*
X36649047Y-50250714D01*
X36687142Y-50231666D01*
X36744285Y-50231666D01*
X36782380Y-50250714D01*
X36801428Y-50269761D01*
X36820476Y-50307857D01*
X36820476Y-50460238D01*
X36610952Y-49869761D02*
X36610952Y-50060238D01*
X36801428Y-50079285D01*
X36782380Y-50060238D01*
X36763333Y-50022142D01*
X36763333Y-49926904D01*
X36782380Y-49888809D01*
X36801428Y-49869761D01*
X36839523Y-49850714D01*
X36934761Y-49850714D01*
X36972857Y-49869761D01*
X36991904Y-49888809D01*
X37010952Y-49926904D01*
X37010952Y-50022142D01*
X36991904Y-50060238D01*
X36972857Y-50079285D01*
G04 #@! TD*
M02*
