%FSLAX45Y45*%
G04 Gerber Fmt 4.5, Leading zero omitted, Abs format (unit mm)*
G04 Created by KiCad (PCBNEW (5.0.2)-1) date 04/22/19 21:16:26*
%MOMM*%
%LPD*%
G01*
G04 APERTURE LIST*
%ADD10C,0.100000*%
%ADD11C,0.200000*%
%ADD12C,0.300000*%
G04 APERTURE END LIST*
D10*
X9271000Y-7493000D02*
X2921000Y-7493000D01*
X9271000Y-2730500D02*
X9271000Y-7493000D01*
X2921000Y-2730500D02*
X9271000Y-2730500D01*
X2921000Y-7493000D02*
X2921000Y-2730500D01*
D11*
D12*
X3202428Y-7963714D02*
X3202428Y-7663714D01*
X3273857Y-7663714D01*
X3316714Y-7678000D01*
X3345286Y-7706571D01*
X3359571Y-7735143D01*
X3373857Y-7792286D01*
X3373857Y-7835143D01*
X3359571Y-7892286D01*
X3345286Y-7920857D01*
X3316714Y-7949429D01*
X3273857Y-7963714D01*
X3202428Y-7963714D01*
X3502428Y-7963714D02*
X3502428Y-7763714D01*
X3502428Y-7820857D02*
X3516714Y-7792286D01*
X3531000Y-7778000D01*
X3559571Y-7763714D01*
X3588143Y-7763714D01*
X3688143Y-7963714D02*
X3688143Y-7763714D01*
X3688143Y-7663714D02*
X3673857Y-7678000D01*
X3688143Y-7692286D01*
X3702428Y-7678000D01*
X3688143Y-7663714D01*
X3688143Y-7692286D01*
X3873857Y-7963714D02*
X3845286Y-7949429D01*
X3831000Y-7920857D01*
X3831000Y-7663714D01*
X4031000Y-7963714D02*
X4002428Y-7949429D01*
X3988143Y-7920857D01*
X3988143Y-7663714D01*
X4373857Y-7963714D02*
X4373857Y-7663714D01*
X4473857Y-7878000D01*
X4573857Y-7663714D01*
X4573857Y-7963714D01*
X4845286Y-7963714D02*
X4845286Y-7806571D01*
X4831000Y-7778000D01*
X4802428Y-7763714D01*
X4745286Y-7763714D01*
X4716714Y-7778000D01*
X4845286Y-7949429D02*
X4816714Y-7963714D01*
X4745286Y-7963714D01*
X4716714Y-7949429D01*
X4702428Y-7920857D01*
X4702428Y-7892286D01*
X4716714Y-7863714D01*
X4745286Y-7849429D01*
X4816714Y-7849429D01*
X4845286Y-7835143D01*
X4988143Y-7763714D02*
X4988143Y-8063714D01*
X4988143Y-7778000D02*
X5016714Y-7763714D01*
X5073857Y-7763714D01*
X5102428Y-7778000D01*
X5116714Y-7792286D01*
X5131000Y-7820857D01*
X5131000Y-7906571D01*
X5116714Y-7935143D01*
X5102428Y-7949429D01*
X5073857Y-7963714D01*
X5016714Y-7963714D01*
X4988143Y-7949429D01*
X5259571Y-7935143D02*
X5273857Y-7949429D01*
X5259571Y-7963714D01*
X5245286Y-7949429D01*
X5259571Y-7935143D01*
X5259571Y-7963714D01*
X5259571Y-7778000D02*
X5273857Y-7792286D01*
X5259571Y-7806571D01*
X5245286Y-7792286D01*
X5259571Y-7778000D01*
X5259571Y-7806571D01*
M02*
