M48
;DRILL file {KiCad (5.0.2)-1} date 04/22/19 21:16:18
;FORMAT={-:-/ absolute / metric / decimal}
FMAT,2
METRIC,TZ
T1C0.400
T2C1.000
T3C1.400
T4C3.000
%
G90
G05
T1
X38.1Y-48.26
X46.99Y-53.34
X47.625Y-45.72
X47.625Y-46.99
X53.34Y-52.705
X57.785Y-59.69
X78.105Y-45.72
T3
X39.37Y-39.37
X46.99Y-39.37
X54.61Y-39.37
X62.23Y-39.37
X69.85Y-39.37
X66.675Y-62.865
X74.175Y-62.865
X81.675Y-62.865
X39.37Y-62.865
X46.87Y-62.865
T4
X32.385Y-30.48
X32.385Y-71.755
X89.535Y-30.48
X89.535Y-71.755
T2
X76.58Y-38.545G85X76.58Y-40.545
G05
X82.28Y-36.545G85X80.28Y-36.545
G05
X82.28Y-42.545G85X80.28Y-42.545
G05
T0
M30
