G04 #@! TF.GenerationSoftware,KiCad,Pcbnew,(5.0.2)-1*
G04 #@! TF.CreationDate,2019-04-27T09:30:46+05:30*
G04 #@! TF.ProjectId,parking_sense_1,7061726b-696e-4675-9f73-656e73655f31,rev?*
G04 #@! TF.SameCoordinates,Original*
G04 #@! TF.FileFunction,Legend,Top*
G04 #@! TF.FilePolarity,Positive*
%FSLAX46Y46*%
G04 Gerber Fmt 4.6, Leading zero omitted, Abs format (unit mm)*
G04 Created by KiCad (PCBNEW (5.0.2)-1) date 04/27/19 09:30:46*
%MOMM*%
%LPD*%
G01*
G04 APERTURE LIST*
%ADD10C,0.120000*%
%ADD11C,0.150000*%
G04 APERTURE END LIST*
D10*
G04 #@! TO.C,D1*
X82545000Y-47840000D02*
X79395000Y-47840000D01*
X82545000Y-46140000D02*
X79395000Y-46140000D01*
X82545000Y-47840000D02*
X82545000Y-46140000D01*
G04 #@! TO.C,D3*
X75780000Y-45725000D02*
X75780000Y-48875000D01*
X74080000Y-45725000D02*
X74080000Y-48875000D01*
X75780000Y-45725000D02*
X74080000Y-45725000D01*
G04 #@! TO.C,J3*
X66375000Y-59955000D02*
X66975000Y-59955000D01*
X66675000Y-60555000D02*
X66375000Y-59955000D01*
X66975000Y-59955000D02*
X66675000Y-60555000D01*
X80925000Y-71475000D02*
X80675000Y-72975000D01*
X82425000Y-71475000D02*
X80925000Y-71475000D01*
X82675000Y-72975000D02*
X82425000Y-71475000D01*
X80675000Y-72975000D02*
X82675000Y-72975000D01*
X73425000Y-71475000D02*
X73175000Y-72975000D01*
X74925000Y-71475000D02*
X73425000Y-71475000D01*
X75175000Y-72975000D02*
X74925000Y-71475000D01*
X73175000Y-72975000D02*
X75175000Y-72975000D01*
X65925000Y-71475000D02*
X65675000Y-72975000D01*
X67425000Y-71475000D02*
X65925000Y-71475000D01*
X67675000Y-72975000D02*
X67425000Y-71475000D01*
X65675000Y-72975000D02*
X67675000Y-72975000D01*
X85535000Y-71475000D02*
X62815000Y-71475000D01*
X85535000Y-69675000D02*
X85535000Y-71475000D01*
X62815000Y-69675000D02*
X85535000Y-69675000D01*
X62815000Y-71475000D02*
X62815000Y-69675000D01*
X85535000Y-60755000D02*
X62815000Y-60755000D01*
X85535000Y-72975000D02*
X85535000Y-60755000D01*
X62815000Y-72975000D02*
X85535000Y-72975000D01*
X62815000Y-60755000D02*
X62815000Y-72975000D01*
G04 #@! TO.C,D2*
X76830000Y-57365000D02*
X76830000Y-55665000D01*
X76830000Y-55665000D02*
X73680000Y-55665000D01*
X76830000Y-57365000D02*
X73680000Y-57365000D01*
G04 #@! TO.C,Q2*
X36520000Y-57275000D02*
X36520000Y-55815000D01*
X39680000Y-57275000D02*
X39680000Y-55115000D01*
X39680000Y-57275000D02*
X38750000Y-57275000D01*
X36520000Y-57275000D02*
X37450000Y-57275000D01*
G04 #@! TO.C,Q1*
X77160000Y-52195000D02*
X78090000Y-52195000D01*
X80320000Y-52195000D02*
X79390000Y-52195000D01*
X80320000Y-52195000D02*
X80320000Y-50035000D01*
X77160000Y-52195000D02*
X77160000Y-50735000D01*
G04 #@! TO.C,C1*
X71630000Y-47453733D02*
X71630000Y-47796267D01*
X70610000Y-47453733D02*
X70610000Y-47796267D01*
G04 #@! TO.C,C2*
X66800000Y-55073733D02*
X66800000Y-55416267D01*
X67820000Y-55073733D02*
X67820000Y-55416267D01*
G04 #@! TO.C,C3*
X62105000Y-55073733D02*
X62105000Y-55416267D01*
X61085000Y-55073733D02*
X61085000Y-55416267D01*
G04 #@! TO.C,C4*
X56390000Y-55416267D02*
X56390000Y-55073733D01*
X55370000Y-55416267D02*
X55370000Y-55073733D01*
G04 #@! TO.C,C5*
X55073733Y-59180000D02*
X55416267Y-59180000D01*
X55073733Y-60200000D02*
X55416267Y-60200000D01*
G04 #@! TO.C,J1*
X85030000Y-43645000D02*
X86080000Y-43645000D01*
X86080000Y-42595000D02*
X86080000Y-43645000D01*
X76680000Y-37545000D02*
X76680000Y-28745000D01*
X76680000Y-28745000D02*
X85880000Y-28745000D01*
X79380000Y-43445000D02*
X76680000Y-43445000D01*
X76680000Y-43445000D02*
X76680000Y-41545000D01*
X85880000Y-28745000D02*
X85880000Y-43445000D01*
X85880000Y-43445000D02*
X83280000Y-43445000D01*
G04 #@! TO.C,J2*
X35510000Y-60755000D02*
X35510000Y-72975000D01*
X35510000Y-72975000D02*
X50730000Y-72975000D01*
X50730000Y-72975000D02*
X50730000Y-60755000D01*
X50730000Y-60755000D02*
X35510000Y-60755000D01*
X35510000Y-71475000D02*
X35510000Y-69675000D01*
X35510000Y-69675000D02*
X50730000Y-69675000D01*
X50730000Y-69675000D02*
X50730000Y-71475000D01*
X50730000Y-71475000D02*
X35510000Y-71475000D01*
X38370000Y-72975000D02*
X40370000Y-72975000D01*
X40370000Y-72975000D02*
X40120000Y-71475000D01*
X40120000Y-71475000D02*
X38620000Y-71475000D01*
X38620000Y-71475000D02*
X38370000Y-72975000D01*
X45870000Y-72975000D02*
X47870000Y-72975000D01*
X47870000Y-72975000D02*
X47620000Y-71475000D01*
X47620000Y-71475000D02*
X46120000Y-71475000D01*
X46120000Y-71475000D02*
X45870000Y-72975000D01*
X39670000Y-59955000D02*
X39370000Y-60555000D01*
X39370000Y-60555000D02*
X39070000Y-59955000D01*
X39070000Y-59955000D02*
X39670000Y-59955000D01*
G04 #@! TO.C,J4*
X73770000Y-41480000D02*
X73770000Y-29260000D01*
X73770000Y-29260000D02*
X35450000Y-29260000D01*
X35450000Y-29260000D02*
X35450000Y-41480000D01*
X35450000Y-41480000D02*
X73770000Y-41480000D01*
X73770000Y-30760000D02*
X73770000Y-32560000D01*
X73770000Y-32560000D02*
X35450000Y-32560000D01*
X35450000Y-32560000D02*
X35450000Y-30760000D01*
X35450000Y-30760000D02*
X73770000Y-30760000D01*
X70850000Y-29260000D02*
X68850000Y-29260000D01*
X68850000Y-29260000D02*
X69100000Y-30760000D01*
X69100000Y-30760000D02*
X70600000Y-30760000D01*
X70600000Y-30760000D02*
X70850000Y-29260000D01*
X63230000Y-29260000D02*
X61230000Y-29260000D01*
X61230000Y-29260000D02*
X61480000Y-30760000D01*
X61480000Y-30760000D02*
X62980000Y-30760000D01*
X62980000Y-30760000D02*
X63230000Y-29260000D01*
X55610000Y-29260000D02*
X53610000Y-29260000D01*
X53610000Y-29260000D02*
X53860000Y-30760000D01*
X53860000Y-30760000D02*
X55360000Y-30760000D01*
X55360000Y-30760000D02*
X55610000Y-29260000D01*
X47990000Y-29260000D02*
X45990000Y-29260000D01*
X45990000Y-29260000D02*
X46240000Y-30760000D01*
X46240000Y-30760000D02*
X47740000Y-30760000D01*
X47740000Y-30760000D02*
X47990000Y-29260000D01*
X40370000Y-29260000D02*
X38370000Y-29260000D01*
X38370000Y-29260000D02*
X38620000Y-30760000D01*
X38620000Y-30760000D02*
X40120000Y-30760000D01*
X40120000Y-30760000D02*
X40370000Y-29260000D01*
X69550000Y-42280000D02*
X69850000Y-41680000D01*
X69850000Y-41680000D02*
X70150000Y-42280000D01*
X70150000Y-42280000D02*
X69550000Y-42280000D01*
G04 #@! TO.C,D4*
X36095000Y-44920000D02*
X36095000Y-47205000D01*
X36095000Y-47205000D02*
X37565000Y-47205000D01*
X37565000Y-47205000D02*
X37565000Y-44920000D01*
D11*
G04 #@! TO.C,U2*
X52875000Y-53805000D02*
X52875000Y-54305000D01*
X49625000Y-57055000D02*
X49625000Y-56555000D01*
X52875000Y-57055000D02*
X52875000Y-56555000D01*
X49625000Y-53805000D02*
X50125000Y-53805000D01*
X49625000Y-57055000D02*
X50125000Y-57055000D01*
X52875000Y-57055000D02*
X52375000Y-57055000D01*
X52875000Y-53805000D02*
X52375000Y-53805000D01*
G04 #@! TO.C,U1*
X40470000Y-43810000D02*
X40470000Y-43835000D01*
X44620000Y-43810000D02*
X44620000Y-43925000D01*
X44620000Y-52710000D02*
X44620000Y-52595000D01*
X40470000Y-52710000D02*
X40470000Y-52595000D01*
X40470000Y-43810000D02*
X44620000Y-43810000D01*
X40470000Y-52710000D02*
X44620000Y-52710000D01*
X40470000Y-43835000D02*
X39095000Y-43835000D01*
D10*
G04 #@! TO.C,U4*
X68870000Y-51035000D02*
X62860000Y-51035000D01*
X66620000Y-44215000D02*
X62860000Y-44215000D01*
X62860000Y-51035000D02*
X62860000Y-49775000D01*
X62860000Y-44215000D02*
X62860000Y-45475000D01*
G04 #@! TO.C,U5*
X53335000Y-44215000D02*
X53335000Y-45475000D01*
X53335000Y-51035000D02*
X53335000Y-49775000D01*
X57095000Y-44215000D02*
X53335000Y-44215000D01*
X59345000Y-51035000D02*
X53335000Y-51035000D01*
G04 #@! TO.C,R1*
X83695000Y-50628733D02*
X83695000Y-50971267D01*
X82675000Y-50628733D02*
X82675000Y-50971267D01*
G04 #@! TO.C,R2*
X82675000Y-55073733D02*
X82675000Y-55416267D01*
X83695000Y-55073733D02*
X83695000Y-55416267D01*
G04 #@! TO.C,R3*
X45210000Y-57321267D02*
X45210000Y-56978733D01*
X46230000Y-57321267D02*
X46230000Y-56978733D01*
G04 #@! TO.C,R4*
X49066267Y-50290000D02*
X48723733Y-50290000D01*
X49066267Y-51310000D02*
X48723733Y-51310000D01*
G04 #@! TO.C,R5*
X37340000Y-49993733D02*
X37340000Y-50336267D01*
X36320000Y-49993733D02*
X36320000Y-50336267D01*
G04 #@! TO.C,D1*
D11*
X79906904Y-49292380D02*
X79906904Y-48292380D01*
X80145000Y-48292380D01*
X80287857Y-48340000D01*
X80383095Y-48435238D01*
X80430714Y-48530476D01*
X80478333Y-48720952D01*
X80478333Y-48863809D01*
X80430714Y-49054285D01*
X80383095Y-49149523D01*
X80287857Y-49244761D01*
X80145000Y-49292380D01*
X79906904Y-49292380D01*
X81430714Y-49292380D02*
X80859285Y-49292380D01*
X81145000Y-49292380D02*
X81145000Y-48292380D01*
X81049761Y-48435238D01*
X80954523Y-48530476D01*
X80859285Y-48578095D01*
G04 #@! TO.C,D3*
X77232380Y-48363095D02*
X76232380Y-48363095D01*
X76232380Y-48125000D01*
X76280000Y-47982142D01*
X76375238Y-47886904D01*
X76470476Y-47839285D01*
X76660952Y-47791666D01*
X76803809Y-47791666D01*
X76994285Y-47839285D01*
X77089523Y-47886904D01*
X77184761Y-47982142D01*
X77232380Y-48125000D01*
X77232380Y-48363095D01*
X76232380Y-47458333D02*
X76232380Y-46839285D01*
X76613333Y-47172619D01*
X76613333Y-47029761D01*
X76660952Y-46934523D01*
X76708571Y-46886904D01*
X76803809Y-46839285D01*
X77041904Y-46839285D01*
X77137142Y-46886904D01*
X77184761Y-46934523D01*
X77232380Y-47029761D01*
X77232380Y-47315476D01*
X77184761Y-47410714D01*
X77137142Y-47458333D01*
G04 #@! TO.C,J3*
X73841666Y-59117380D02*
X73841666Y-59831666D01*
X73794047Y-59974523D01*
X73698809Y-60069761D01*
X73555952Y-60117380D01*
X73460714Y-60117380D01*
X74222619Y-59117380D02*
X74841666Y-59117380D01*
X74508333Y-59498333D01*
X74651190Y-59498333D01*
X74746428Y-59545952D01*
X74794047Y-59593571D01*
X74841666Y-59688809D01*
X74841666Y-59926904D01*
X74794047Y-60022142D01*
X74746428Y-60069761D01*
X74651190Y-60117380D01*
X74365476Y-60117380D01*
X74270238Y-60069761D01*
X74222619Y-60022142D01*
X61523571Y-71762619D02*
X61523571Y-71429285D01*
X62047380Y-71286428D02*
X62047380Y-71762619D01*
X61047380Y-71762619D01*
X61047380Y-71286428D01*
X62047380Y-70953095D02*
X61380714Y-70429285D01*
X61380714Y-70953095D02*
X62047380Y-70429285D01*
X61380714Y-70191190D02*
X61380714Y-69810238D01*
X61047380Y-70048333D02*
X61904523Y-70048333D01*
X61999761Y-70000714D01*
X62047380Y-69905476D01*
X62047380Y-69810238D01*
X62047380Y-68715000D02*
X61047380Y-68715000D01*
X60999761Y-67524523D02*
X62285476Y-68381666D01*
X62047380Y-67191190D02*
X61047380Y-67191190D01*
X61047380Y-66810238D01*
X61095000Y-66715000D01*
X61142619Y-66667380D01*
X61237857Y-66619761D01*
X61380714Y-66619761D01*
X61475952Y-66667380D01*
X61523571Y-66715000D01*
X61571190Y-66810238D01*
X61571190Y-67191190D01*
G04 #@! TO.C,D2*
X74191904Y-58817380D02*
X74191904Y-57817380D01*
X74430000Y-57817380D01*
X74572857Y-57865000D01*
X74668095Y-57960238D01*
X74715714Y-58055476D01*
X74763333Y-58245952D01*
X74763333Y-58388809D01*
X74715714Y-58579285D01*
X74668095Y-58674523D01*
X74572857Y-58769761D01*
X74430000Y-58817380D01*
X74191904Y-58817380D01*
X75144285Y-57912619D02*
X75191904Y-57865000D01*
X75287142Y-57817380D01*
X75525238Y-57817380D01*
X75620476Y-57865000D01*
X75668095Y-57912619D01*
X75715714Y-58007857D01*
X75715714Y-58103095D01*
X75668095Y-58245952D01*
X75096666Y-58817380D01*
X75715714Y-58817380D01*
G04 #@! TO.C,Q2*
X41147619Y-56610238D02*
X41100000Y-56705476D01*
X41004761Y-56800714D01*
X40861904Y-56943571D01*
X40814285Y-57038809D01*
X40814285Y-57134047D01*
X41052380Y-57086428D02*
X41004761Y-57181666D01*
X40909523Y-57276904D01*
X40719047Y-57324523D01*
X40385714Y-57324523D01*
X40195238Y-57276904D01*
X40100000Y-57181666D01*
X40052380Y-57086428D01*
X40052380Y-56895952D01*
X40100000Y-56800714D01*
X40195238Y-56705476D01*
X40385714Y-56657857D01*
X40719047Y-56657857D01*
X40909523Y-56705476D01*
X41004761Y-56800714D01*
X41052380Y-56895952D01*
X41052380Y-57086428D01*
X40147619Y-56276904D02*
X40100000Y-56229285D01*
X40052380Y-56134047D01*
X40052380Y-55895952D01*
X40100000Y-55800714D01*
X40147619Y-55753095D01*
X40242857Y-55705476D01*
X40338095Y-55705476D01*
X40480952Y-55753095D01*
X41052380Y-56324523D01*
X41052380Y-55705476D01*
G04 #@! TO.C,Q1*
X81192619Y-53435238D02*
X81145000Y-53530476D01*
X81049761Y-53625714D01*
X80906904Y-53768571D01*
X80859285Y-53863809D01*
X80859285Y-53959047D01*
X81097380Y-53911428D02*
X81049761Y-54006666D01*
X80954523Y-54101904D01*
X80764047Y-54149523D01*
X80430714Y-54149523D01*
X80240238Y-54101904D01*
X80145000Y-54006666D01*
X80097380Y-53911428D01*
X80097380Y-53720952D01*
X80145000Y-53625714D01*
X80240238Y-53530476D01*
X80430714Y-53482857D01*
X80764047Y-53482857D01*
X80954523Y-53530476D01*
X81049761Y-53625714D01*
X81097380Y-53720952D01*
X81097380Y-53911428D01*
X81097380Y-52530476D02*
X81097380Y-53101904D01*
X81097380Y-52816190D02*
X80097380Y-52816190D01*
X80240238Y-52911428D01*
X80335476Y-53006666D01*
X80383095Y-53101904D01*
G04 #@! TO.C,C1*
X71477142Y-45251666D02*
X71524761Y-45299285D01*
X71572380Y-45442142D01*
X71572380Y-45537380D01*
X71524761Y-45680238D01*
X71429523Y-45775476D01*
X71334285Y-45823095D01*
X71143809Y-45870714D01*
X71000952Y-45870714D01*
X70810476Y-45823095D01*
X70715238Y-45775476D01*
X70620000Y-45680238D01*
X70572380Y-45537380D01*
X70572380Y-45442142D01*
X70620000Y-45299285D01*
X70667619Y-45251666D01*
X71572380Y-44299285D02*
X71572380Y-44870714D01*
X71572380Y-44585000D02*
X70572380Y-44585000D01*
X70715238Y-44680238D01*
X70810476Y-44775476D01*
X70858095Y-44870714D01*
G04 #@! TO.C,C2*
X69097142Y-55411666D02*
X69144761Y-55459285D01*
X69192380Y-55602142D01*
X69192380Y-55697380D01*
X69144761Y-55840238D01*
X69049523Y-55935476D01*
X68954285Y-55983095D01*
X68763809Y-56030714D01*
X68620952Y-56030714D01*
X68430476Y-55983095D01*
X68335238Y-55935476D01*
X68240000Y-55840238D01*
X68192380Y-55697380D01*
X68192380Y-55602142D01*
X68240000Y-55459285D01*
X68287619Y-55411666D01*
X68287619Y-55030714D02*
X68240000Y-54983095D01*
X68192380Y-54887857D01*
X68192380Y-54649761D01*
X68240000Y-54554523D01*
X68287619Y-54506904D01*
X68382857Y-54459285D01*
X68478095Y-54459285D01*
X68620952Y-54506904D01*
X69192380Y-55078333D01*
X69192380Y-54459285D01*
G04 #@! TO.C,C3*
X63382142Y-55411666D02*
X63429761Y-55459285D01*
X63477380Y-55602142D01*
X63477380Y-55697380D01*
X63429761Y-55840238D01*
X63334523Y-55935476D01*
X63239285Y-55983095D01*
X63048809Y-56030714D01*
X62905952Y-56030714D01*
X62715476Y-55983095D01*
X62620238Y-55935476D01*
X62525000Y-55840238D01*
X62477380Y-55697380D01*
X62477380Y-55602142D01*
X62525000Y-55459285D01*
X62572619Y-55411666D01*
X62477380Y-55078333D02*
X62477380Y-54459285D01*
X62858333Y-54792619D01*
X62858333Y-54649761D01*
X62905952Y-54554523D01*
X62953571Y-54506904D01*
X63048809Y-54459285D01*
X63286904Y-54459285D01*
X63382142Y-54506904D01*
X63429761Y-54554523D01*
X63477380Y-54649761D01*
X63477380Y-54935476D01*
X63429761Y-55030714D01*
X63382142Y-55078333D01*
G04 #@! TO.C,C4*
X54807142Y-55411666D02*
X54854761Y-55459285D01*
X54902380Y-55602142D01*
X54902380Y-55697380D01*
X54854761Y-55840238D01*
X54759523Y-55935476D01*
X54664285Y-55983095D01*
X54473809Y-56030714D01*
X54330952Y-56030714D01*
X54140476Y-55983095D01*
X54045238Y-55935476D01*
X53950000Y-55840238D01*
X53902380Y-55697380D01*
X53902380Y-55602142D01*
X53950000Y-55459285D01*
X53997619Y-55411666D01*
X54235714Y-54554523D02*
X54902380Y-54554523D01*
X53854761Y-54792619D02*
X54569047Y-55030714D01*
X54569047Y-54411666D01*
G04 #@! TO.C,C5*
X55078333Y-58617142D02*
X55030714Y-58664761D01*
X54887857Y-58712380D01*
X54792619Y-58712380D01*
X54649761Y-58664761D01*
X54554523Y-58569523D01*
X54506904Y-58474285D01*
X54459285Y-58283809D01*
X54459285Y-58140952D01*
X54506904Y-57950476D01*
X54554523Y-57855238D01*
X54649761Y-57760000D01*
X54792619Y-57712380D01*
X54887857Y-57712380D01*
X55030714Y-57760000D01*
X55078333Y-57807619D01*
X55983095Y-57712380D02*
X55506904Y-57712380D01*
X55459285Y-58188571D01*
X55506904Y-58140952D01*
X55602142Y-58093333D01*
X55840238Y-58093333D01*
X55935476Y-58140952D01*
X55983095Y-58188571D01*
X56030714Y-58283809D01*
X56030714Y-58521904D01*
X55983095Y-58617142D01*
X55935476Y-58664761D01*
X55840238Y-58712380D01*
X55602142Y-58712380D01*
X55506904Y-58664761D01*
X55459285Y-58617142D01*
G04 #@! TO.C,J1*
X74982380Y-34428333D02*
X75696666Y-34428333D01*
X75839523Y-34475952D01*
X75934761Y-34571190D01*
X75982380Y-34714047D01*
X75982380Y-34809285D01*
X75982380Y-33428333D02*
X75982380Y-33999761D01*
X75982380Y-33714047D02*
X74982380Y-33714047D01*
X75125238Y-33809285D01*
X75220476Y-33904523D01*
X75268095Y-33999761D01*
G04 #@! TO.C,J2*
X49196666Y-59142380D02*
X49196666Y-59856666D01*
X49149047Y-59999523D01*
X49053809Y-60094761D01*
X48910952Y-60142380D01*
X48815714Y-60142380D01*
X49625238Y-59237619D02*
X49672857Y-59190000D01*
X49768095Y-59142380D01*
X50006190Y-59142380D01*
X50101428Y-59190000D01*
X50149047Y-59237619D01*
X50196666Y-59332857D01*
X50196666Y-59428095D01*
X50149047Y-59570952D01*
X49577619Y-60142380D01*
X50196666Y-60142380D01*
X51998571Y-72381428D02*
X51998571Y-72048095D01*
X52522380Y-71905238D02*
X52522380Y-72381428D01*
X51522380Y-72381428D01*
X51522380Y-71905238D01*
X52522380Y-71571904D02*
X51855714Y-71048095D01*
X51855714Y-71571904D02*
X52522380Y-71048095D01*
X51855714Y-70810000D02*
X51855714Y-70429047D01*
X51522380Y-70667142D02*
X52379523Y-70667142D01*
X52474761Y-70619523D01*
X52522380Y-70524285D01*
X52522380Y-70429047D01*
X52522380Y-68857619D02*
X52522380Y-69333809D01*
X51522380Y-69333809D01*
X51998571Y-68524285D02*
X51998571Y-68190952D01*
X52522380Y-68048095D02*
X52522380Y-68524285D01*
X51522380Y-68524285D01*
X51522380Y-68048095D01*
X52522380Y-67619523D02*
X51522380Y-67619523D01*
X51522380Y-67381428D01*
X51570000Y-67238571D01*
X51665238Y-67143333D01*
X51760476Y-67095714D01*
X51950952Y-67048095D01*
X52093809Y-67048095D01*
X52284285Y-67095714D01*
X52379523Y-67143333D01*
X52474761Y-67238571D01*
X52522380Y-67381428D01*
X52522380Y-67619523D01*
X52903333Y-65571904D02*
X52855714Y-65619523D01*
X52712857Y-65714761D01*
X52617619Y-65762380D01*
X52474761Y-65810000D01*
X52236666Y-65857619D01*
X52046190Y-65857619D01*
X51808095Y-65810000D01*
X51665238Y-65762380D01*
X51570000Y-65714761D01*
X51427142Y-65619523D01*
X51379523Y-65571904D01*
X52522380Y-64667142D02*
X52522380Y-65238571D01*
X52522380Y-64952857D02*
X51522380Y-64952857D01*
X51665238Y-65048095D01*
X51760476Y-65143333D01*
X51808095Y-65238571D01*
X51617619Y-64286190D02*
X51570000Y-64238571D01*
X51522380Y-64143333D01*
X51522380Y-63905238D01*
X51570000Y-63810000D01*
X51617619Y-63762380D01*
X51712857Y-63714761D01*
X51808095Y-63714761D01*
X51950952Y-63762380D01*
X52522380Y-64333809D01*
X52522380Y-63714761D01*
X51522380Y-63429047D02*
X52522380Y-63095714D01*
X51522380Y-62762380D01*
X52903333Y-62524285D02*
X52855714Y-62476666D01*
X52712857Y-62381428D01*
X52617619Y-62333809D01*
X52474761Y-62286190D01*
X52236666Y-62238571D01*
X52046190Y-62238571D01*
X51808095Y-62286190D01*
X51665238Y-62333809D01*
X51570000Y-62381428D01*
X51427142Y-62476666D01*
X51379523Y-62524285D01*
G04 #@! TO.C,J4*
X54276666Y-42022380D02*
X54276666Y-42736666D01*
X54229047Y-42879523D01*
X54133809Y-42974761D01*
X53990952Y-43022380D01*
X53895714Y-43022380D01*
X55181428Y-42355714D02*
X55181428Y-43022380D01*
X54943333Y-41974761D02*
X54705238Y-42689047D01*
X55324285Y-42689047D01*
X34742380Y-36401190D02*
X33742380Y-36401190D01*
X34647142Y-35353571D02*
X34694761Y-35401190D01*
X34742380Y-35544047D01*
X34742380Y-35639285D01*
X34694761Y-35782142D01*
X34599523Y-35877380D01*
X34504285Y-35925000D01*
X34313809Y-35972619D01*
X34170952Y-35972619D01*
X33980476Y-35925000D01*
X33885238Y-35877380D01*
X33790000Y-35782142D01*
X33742380Y-35639285D01*
X33742380Y-35544047D01*
X33790000Y-35401190D01*
X33837619Y-35353571D01*
X34694761Y-34972619D02*
X34742380Y-34829761D01*
X34742380Y-34591666D01*
X34694761Y-34496428D01*
X34647142Y-34448809D01*
X34551904Y-34401190D01*
X34456666Y-34401190D01*
X34361428Y-34448809D01*
X34313809Y-34496428D01*
X34266190Y-34591666D01*
X34218571Y-34782142D01*
X34170952Y-34877380D01*
X34123333Y-34925000D01*
X34028095Y-34972619D01*
X33932857Y-34972619D01*
X33837619Y-34925000D01*
X33790000Y-34877380D01*
X33742380Y-34782142D01*
X33742380Y-34544047D01*
X33790000Y-34401190D01*
X34742380Y-33972619D02*
X33742380Y-33972619D01*
X33742380Y-33591666D01*
X33790000Y-33496428D01*
X33837619Y-33448809D01*
X33932857Y-33401190D01*
X34075714Y-33401190D01*
X34170952Y-33448809D01*
X34218571Y-33496428D01*
X34266190Y-33591666D01*
X34266190Y-33972619D01*
G04 #@! TO.C,D4*
X38552380Y-46458095D02*
X37552380Y-46458095D01*
X37552380Y-46220000D01*
X37600000Y-46077142D01*
X37695238Y-45981904D01*
X37790476Y-45934285D01*
X37980952Y-45886666D01*
X38123809Y-45886666D01*
X38314285Y-45934285D01*
X38409523Y-45981904D01*
X38504761Y-46077142D01*
X38552380Y-46220000D01*
X38552380Y-46458095D01*
X37885714Y-45029523D02*
X38552380Y-45029523D01*
X37504761Y-45267619D02*
X38219047Y-45505714D01*
X38219047Y-44886666D01*
G04 #@! TO.C,U2*
X50488095Y-52032380D02*
X50488095Y-52841904D01*
X50535714Y-52937142D01*
X50583333Y-52984761D01*
X50678571Y-53032380D01*
X50869047Y-53032380D01*
X50964285Y-52984761D01*
X51011904Y-52937142D01*
X51059523Y-52841904D01*
X51059523Y-52032380D01*
X51488095Y-52127619D02*
X51535714Y-52080000D01*
X51630952Y-52032380D01*
X51869047Y-52032380D01*
X51964285Y-52080000D01*
X52011904Y-52127619D01*
X52059523Y-52222857D01*
X52059523Y-52318095D01*
X52011904Y-52460952D01*
X51440476Y-53032380D01*
X52059523Y-53032380D01*
G04 #@! TO.C,U1*
X41783095Y-42337380D02*
X41783095Y-43146904D01*
X41830714Y-43242142D01*
X41878333Y-43289761D01*
X41973571Y-43337380D01*
X42164047Y-43337380D01*
X42259285Y-43289761D01*
X42306904Y-43242142D01*
X42354523Y-43146904D01*
X42354523Y-42337380D01*
X43354523Y-43337380D02*
X42783095Y-43337380D01*
X43068809Y-43337380D02*
X43068809Y-42337380D01*
X42973571Y-42480238D01*
X42878333Y-42575476D01*
X42783095Y-42623095D01*
G04 #@! TO.C,U4*
X64008095Y-51577380D02*
X64008095Y-52386904D01*
X64055714Y-52482142D01*
X64103333Y-52529761D01*
X64198571Y-52577380D01*
X64389047Y-52577380D01*
X64484285Y-52529761D01*
X64531904Y-52482142D01*
X64579523Y-52386904D01*
X64579523Y-51577380D01*
X65484285Y-51910714D02*
X65484285Y-52577380D01*
X65246190Y-51529761D02*
X65008095Y-52244047D01*
X65627142Y-52244047D01*
G04 #@! TO.C,U5*
X54483095Y-51577380D02*
X54483095Y-52386904D01*
X54530714Y-52482142D01*
X54578333Y-52529761D01*
X54673571Y-52577380D01*
X54864047Y-52577380D01*
X54959285Y-52529761D01*
X55006904Y-52482142D01*
X55054523Y-52386904D01*
X55054523Y-51577380D01*
X56006904Y-51577380D02*
X55530714Y-51577380D01*
X55483095Y-52053571D01*
X55530714Y-52005952D01*
X55625952Y-51958333D01*
X55864047Y-51958333D01*
X55959285Y-52005952D01*
X56006904Y-52053571D01*
X56054523Y-52148809D01*
X56054523Y-52386904D01*
X56006904Y-52482142D01*
X55959285Y-52529761D01*
X55864047Y-52577380D01*
X55625952Y-52577380D01*
X55530714Y-52529761D01*
X55483095Y-52482142D01*
G04 #@! TO.C,R1*
X85067380Y-50966666D02*
X84591190Y-51300000D01*
X85067380Y-51538095D02*
X84067380Y-51538095D01*
X84067380Y-51157142D01*
X84115000Y-51061904D01*
X84162619Y-51014285D01*
X84257857Y-50966666D01*
X84400714Y-50966666D01*
X84495952Y-51014285D01*
X84543571Y-51061904D01*
X84591190Y-51157142D01*
X84591190Y-51538095D01*
X85067380Y-50014285D02*
X85067380Y-50585714D01*
X85067380Y-50300000D02*
X84067380Y-50300000D01*
X84210238Y-50395238D01*
X84305476Y-50490476D01*
X84353095Y-50585714D01*
G04 #@! TO.C,R2*
X85067380Y-55411666D02*
X84591190Y-55745000D01*
X85067380Y-55983095D02*
X84067380Y-55983095D01*
X84067380Y-55602142D01*
X84115000Y-55506904D01*
X84162619Y-55459285D01*
X84257857Y-55411666D01*
X84400714Y-55411666D01*
X84495952Y-55459285D01*
X84543571Y-55506904D01*
X84591190Y-55602142D01*
X84591190Y-55983095D01*
X84162619Y-55030714D02*
X84115000Y-54983095D01*
X84067380Y-54887857D01*
X84067380Y-54649761D01*
X84115000Y-54554523D01*
X84162619Y-54506904D01*
X84257857Y-54459285D01*
X84353095Y-54459285D01*
X84495952Y-54506904D01*
X85067380Y-55078333D01*
X85067380Y-54459285D01*
G04 #@! TO.C,R3*
X44742380Y-57316666D02*
X44266190Y-57650000D01*
X44742380Y-57888095D02*
X43742380Y-57888095D01*
X43742380Y-57507142D01*
X43790000Y-57411904D01*
X43837619Y-57364285D01*
X43932857Y-57316666D01*
X44075714Y-57316666D01*
X44170952Y-57364285D01*
X44218571Y-57411904D01*
X44266190Y-57507142D01*
X44266190Y-57888095D01*
X43742380Y-56983333D02*
X43742380Y-56364285D01*
X44123333Y-56697619D01*
X44123333Y-56554761D01*
X44170952Y-56459523D01*
X44218571Y-56411904D01*
X44313809Y-56364285D01*
X44551904Y-56364285D01*
X44647142Y-56411904D01*
X44694761Y-56459523D01*
X44742380Y-56554761D01*
X44742380Y-56840476D01*
X44694761Y-56935714D01*
X44647142Y-56983333D01*
G04 #@! TO.C,R4*
X48728333Y-52682380D02*
X48395000Y-52206190D01*
X48156904Y-52682380D02*
X48156904Y-51682380D01*
X48537857Y-51682380D01*
X48633095Y-51730000D01*
X48680714Y-51777619D01*
X48728333Y-51872857D01*
X48728333Y-52015714D01*
X48680714Y-52110952D01*
X48633095Y-52158571D01*
X48537857Y-52206190D01*
X48156904Y-52206190D01*
X49585476Y-52015714D02*
X49585476Y-52682380D01*
X49347380Y-51634761D02*
X49109285Y-52349047D01*
X49728333Y-52349047D01*
G04 #@! TO.C,R5*
X38712380Y-50331666D02*
X38236190Y-50665000D01*
X38712380Y-50903095D02*
X37712380Y-50903095D01*
X37712380Y-50522142D01*
X37760000Y-50426904D01*
X37807619Y-50379285D01*
X37902857Y-50331666D01*
X38045714Y-50331666D01*
X38140952Y-50379285D01*
X38188571Y-50426904D01*
X38236190Y-50522142D01*
X38236190Y-50903095D01*
X37712380Y-49426904D02*
X37712380Y-49903095D01*
X38188571Y-49950714D01*
X38140952Y-49903095D01*
X38093333Y-49807857D01*
X38093333Y-49569761D01*
X38140952Y-49474523D01*
X38188571Y-49426904D01*
X38283809Y-49379285D01*
X38521904Y-49379285D01*
X38617142Y-49426904D01*
X38664761Y-49474523D01*
X38712380Y-49569761D01*
X38712380Y-49807857D01*
X38664761Y-49903095D01*
X38617142Y-49950714D01*
G04 #@! TD*
M02*
