G04 #@! TF.GenerationSoftware,KiCad,Pcbnew,(5.0.2)-1*
G04 #@! TF.CreationDate,2019-04-27T09:30:46+05:30*
G04 #@! TF.ProjectId,parking_sense_1,7061726b-696e-4675-9f73-656e73655f31,rev?*
G04 #@! TF.SameCoordinates,Original*
G04 #@! TF.FileFunction,Soldermask,Bot*
G04 #@! TF.FilePolarity,Negative*
%FSLAX46Y46*%
G04 Gerber Fmt 4.6, Leading zero omitted, Abs format (unit mm)*
G04 Created by KiCad (PCBNEW (5.0.2)-1) date 04/27/19 09:30:46*
%MOMM*%
%LPD*%
G01*
G04 APERTURE LIST*
%ADD10C,0.100000*%
G04 APERTURE END LIST*
D10*
G36*
X74371029Y-61079469D02*
X74371032Y-61079470D01*
X74371033Y-61079470D01*
X74559534Y-61136651D01*
X74559536Y-61136652D01*
X74559539Y-61136653D01*
X74733258Y-61229507D01*
X74885528Y-61354472D01*
X75010491Y-61506740D01*
X75103348Y-61680463D01*
X75160531Y-61868970D01*
X75175000Y-62015876D01*
X75175000Y-63714124D01*
X75160531Y-63861030D01*
X75160530Y-63861033D01*
X75160530Y-63861034D01*
X75103350Y-64049533D01*
X75103348Y-64049537D01*
X75010491Y-64223260D01*
X74885528Y-64375528D01*
X74733260Y-64500491D01*
X74660998Y-64539116D01*
X74559535Y-64593349D01*
X74371034Y-64650530D01*
X74371033Y-64650530D01*
X74371030Y-64650531D01*
X74175000Y-64669838D01*
X73978971Y-64650531D01*
X73978968Y-64650530D01*
X73978967Y-64650530D01*
X73790466Y-64593349D01*
X73689003Y-64539116D01*
X73616741Y-64500491D01*
X73464473Y-64375528D01*
X73339510Y-64223260D01*
X73246651Y-64049533D01*
X73189469Y-63861035D01*
X73175000Y-63714124D01*
X73175000Y-62015877D01*
X73189469Y-61868971D01*
X73189470Y-61868967D01*
X73246651Y-61680466D01*
X73246652Y-61680464D01*
X73246653Y-61680461D01*
X73339507Y-61506742D01*
X73464472Y-61354472D01*
X73616740Y-61229509D01*
X73790463Y-61136652D01*
X73790465Y-61136651D01*
X73978966Y-61079470D01*
X73978967Y-61079470D01*
X73978970Y-61079469D01*
X74175000Y-61060162D01*
X74371029Y-61079469D01*
X74371029Y-61079469D01*
G37*
G36*
X47066029Y-61079469D02*
X47066032Y-61079470D01*
X47066033Y-61079470D01*
X47254534Y-61136651D01*
X47254536Y-61136652D01*
X47254539Y-61136653D01*
X47428258Y-61229507D01*
X47580528Y-61354472D01*
X47705491Y-61506740D01*
X47798348Y-61680463D01*
X47855531Y-61868970D01*
X47870000Y-62015876D01*
X47870000Y-63714124D01*
X47855531Y-63861030D01*
X47855530Y-63861033D01*
X47855530Y-63861034D01*
X47798350Y-64049533D01*
X47798348Y-64049537D01*
X47705491Y-64223260D01*
X47580528Y-64375528D01*
X47428260Y-64500491D01*
X47355998Y-64539116D01*
X47254535Y-64593349D01*
X47066034Y-64650530D01*
X47066033Y-64650530D01*
X47066030Y-64650531D01*
X46870000Y-64669838D01*
X46673971Y-64650531D01*
X46673968Y-64650530D01*
X46673967Y-64650530D01*
X46485466Y-64593349D01*
X46384003Y-64539116D01*
X46311741Y-64500491D01*
X46159473Y-64375528D01*
X46034510Y-64223260D01*
X45941651Y-64049533D01*
X45884469Y-63861035D01*
X45870000Y-63714124D01*
X45870000Y-62015877D01*
X45884469Y-61868971D01*
X45884470Y-61868967D01*
X45941651Y-61680466D01*
X45941652Y-61680464D01*
X45941653Y-61680461D01*
X46034507Y-61506742D01*
X46159472Y-61354472D01*
X46311740Y-61229509D01*
X46485463Y-61136652D01*
X46485465Y-61136651D01*
X46673966Y-61079470D01*
X46673967Y-61079470D01*
X46673970Y-61079469D01*
X46870000Y-61060162D01*
X47066029Y-61079469D01*
X47066029Y-61079469D01*
G37*
G36*
X81871029Y-61079469D02*
X81871032Y-61079470D01*
X81871033Y-61079470D01*
X82059534Y-61136651D01*
X82059536Y-61136652D01*
X82059539Y-61136653D01*
X82233258Y-61229507D01*
X82385528Y-61354472D01*
X82510491Y-61506740D01*
X82603348Y-61680463D01*
X82660531Y-61868970D01*
X82675000Y-62015876D01*
X82675000Y-63714124D01*
X82660531Y-63861030D01*
X82660530Y-63861033D01*
X82660530Y-63861034D01*
X82603350Y-64049533D01*
X82603348Y-64049537D01*
X82510491Y-64223260D01*
X82385528Y-64375528D01*
X82233260Y-64500491D01*
X82160998Y-64539116D01*
X82059535Y-64593349D01*
X81871034Y-64650530D01*
X81871033Y-64650530D01*
X81871030Y-64650531D01*
X81675000Y-64669838D01*
X81478971Y-64650531D01*
X81478968Y-64650530D01*
X81478967Y-64650530D01*
X81290466Y-64593349D01*
X81189003Y-64539116D01*
X81116741Y-64500491D01*
X80964473Y-64375528D01*
X80839510Y-64223260D01*
X80746651Y-64049533D01*
X80689469Y-63861035D01*
X80675000Y-63714124D01*
X80675000Y-62015877D01*
X80689469Y-61868971D01*
X80689470Y-61868967D01*
X80746651Y-61680466D01*
X80746652Y-61680464D01*
X80746653Y-61680461D01*
X80839507Y-61506742D01*
X80964472Y-61354472D01*
X81116740Y-61229509D01*
X81290463Y-61136652D01*
X81290465Y-61136651D01*
X81478966Y-61079470D01*
X81478967Y-61079470D01*
X81478970Y-61079469D01*
X81675000Y-61060162D01*
X81871029Y-61079469D01*
X81871029Y-61079469D01*
G37*
G36*
X40244116Y-61068595D02*
X40273313Y-61077452D01*
X40300218Y-61091833D01*
X40323808Y-61111192D01*
X40343167Y-61134782D01*
X40357548Y-61161687D01*
X40366405Y-61190884D01*
X40370000Y-61227390D01*
X40370000Y-64502610D01*
X40366405Y-64539116D01*
X40357548Y-64568313D01*
X40343167Y-64595218D01*
X40323808Y-64618808D01*
X40300218Y-64638167D01*
X40273313Y-64652548D01*
X40244116Y-64661405D01*
X40207610Y-64665000D01*
X38532390Y-64665000D01*
X38495884Y-64661405D01*
X38466687Y-64652548D01*
X38439782Y-64638167D01*
X38416192Y-64618808D01*
X38396833Y-64595218D01*
X38382452Y-64568313D01*
X38373595Y-64539116D01*
X38370000Y-64502610D01*
X38370000Y-61227390D01*
X38373595Y-61190884D01*
X38382452Y-61161687D01*
X38396833Y-61134782D01*
X38416192Y-61111192D01*
X38439782Y-61091833D01*
X38466687Y-61077452D01*
X38495884Y-61068595D01*
X38532390Y-61065000D01*
X40207610Y-61065000D01*
X40244116Y-61068595D01*
X40244116Y-61068595D01*
G37*
G36*
X67549116Y-61068595D02*
X67578313Y-61077452D01*
X67605218Y-61091833D01*
X67628808Y-61111192D01*
X67648167Y-61134782D01*
X67662548Y-61161687D01*
X67671405Y-61190884D01*
X67675000Y-61227390D01*
X67675000Y-64502610D01*
X67671405Y-64539116D01*
X67662548Y-64568313D01*
X67648167Y-64595218D01*
X67628808Y-64618808D01*
X67605218Y-64638167D01*
X67578313Y-64652548D01*
X67549116Y-64661405D01*
X67512610Y-64665000D01*
X65837390Y-64665000D01*
X65800884Y-64661405D01*
X65771687Y-64652548D01*
X65744782Y-64638167D01*
X65721192Y-64618808D01*
X65701833Y-64595218D01*
X65687452Y-64568313D01*
X65678595Y-64539116D01*
X65675000Y-64502610D01*
X65675000Y-61227390D01*
X65678595Y-61190884D01*
X65687452Y-61161687D01*
X65701833Y-61134782D01*
X65721192Y-61111192D01*
X65744782Y-61091833D01*
X65771687Y-61077452D01*
X65800884Y-61068595D01*
X65837390Y-61065000D01*
X67512610Y-61065000D01*
X67549116Y-61068595D01*
X67549116Y-61068595D01*
G37*
G36*
X83030000Y-44295000D02*
X79530000Y-44295000D01*
X79530000Y-40795000D01*
X83030000Y-40795000D01*
X83030000Y-44295000D01*
X83030000Y-44295000D01*
G37*
G36*
X77675891Y-37811205D02*
X77828200Y-37857407D01*
X77968567Y-37932435D01*
X78091597Y-38033403D01*
X78192565Y-38156433D01*
X78267593Y-38296800D01*
X78313795Y-38449109D01*
X78330000Y-38613640D01*
X78330000Y-40476360D01*
X78313795Y-40640891D01*
X78267593Y-40793200D01*
X78192565Y-40933567D01*
X78091597Y-41056597D01*
X77968567Y-41157565D01*
X77828200Y-41232593D01*
X77675891Y-41278795D01*
X77511360Y-41295000D01*
X75648640Y-41295000D01*
X75484109Y-41278795D01*
X75331800Y-41232593D01*
X75191433Y-41157565D01*
X75068403Y-41056597D01*
X74967435Y-40933567D01*
X74892407Y-40793200D01*
X74846205Y-40640891D01*
X74830000Y-40476360D01*
X74830000Y-38613640D01*
X74846205Y-38449109D01*
X74892407Y-38296800D01*
X74967435Y-38156433D01*
X75068403Y-38033403D01*
X75191433Y-37932435D01*
X75331800Y-37857407D01*
X75484109Y-37811205D01*
X75648640Y-37795000D01*
X77511360Y-37795000D01*
X77675891Y-37811205D01*
X77675891Y-37811205D01*
G37*
G36*
X62435836Y-37585193D02*
X62536589Y-37615756D01*
X62633763Y-37645233D01*
X62816172Y-37742733D01*
X62976054Y-37873946D01*
X63107267Y-38033828D01*
X63204767Y-38216237D01*
X63204767Y-38216238D01*
X63264807Y-38414164D01*
X63280000Y-38568422D01*
X63280000Y-40171578D01*
X63264807Y-40325836D01*
X63236243Y-40420000D01*
X63204767Y-40523763D01*
X63107267Y-40706172D01*
X63067319Y-40754848D01*
X62976054Y-40866054D01*
X62816171Y-40997267D01*
X62705172Y-41056597D01*
X62633762Y-41094767D01*
X62613593Y-41100885D01*
X62435835Y-41154807D01*
X62230000Y-41175080D01*
X62024164Y-41154807D01*
X61846406Y-41100885D01*
X61826237Y-41094767D01*
X61643828Y-40997267D01*
X61483946Y-40866054D01*
X61352733Y-40706171D01*
X61255234Y-40523763D01*
X61255233Y-40523762D01*
X61223758Y-40420000D01*
X61195193Y-40325835D01*
X61180000Y-40171577D01*
X61180000Y-38568420D01*
X61195193Y-38414168D01*
X61255235Y-38216236D01*
X61352734Y-38033828D01*
X61483947Y-37873946D01*
X61643829Y-37742733D01*
X61826238Y-37645233D01*
X61923412Y-37615756D01*
X62024165Y-37585193D01*
X62230000Y-37564920D01*
X62435836Y-37585193D01*
X62435836Y-37585193D01*
G37*
G36*
X54815836Y-37585193D02*
X54916589Y-37615756D01*
X55013763Y-37645233D01*
X55196172Y-37742733D01*
X55356054Y-37873946D01*
X55487267Y-38033828D01*
X55584767Y-38216237D01*
X55584767Y-38216238D01*
X55644807Y-38414164D01*
X55660000Y-38568422D01*
X55660000Y-40171578D01*
X55644807Y-40325836D01*
X55616243Y-40420000D01*
X55584767Y-40523763D01*
X55487267Y-40706172D01*
X55447319Y-40754848D01*
X55356054Y-40866054D01*
X55196171Y-40997267D01*
X55085172Y-41056597D01*
X55013762Y-41094767D01*
X54993593Y-41100885D01*
X54815835Y-41154807D01*
X54610000Y-41175080D01*
X54404164Y-41154807D01*
X54226406Y-41100885D01*
X54206237Y-41094767D01*
X54023828Y-40997267D01*
X53863946Y-40866054D01*
X53732733Y-40706171D01*
X53635234Y-40523763D01*
X53635233Y-40523762D01*
X53603758Y-40420000D01*
X53575193Y-40325835D01*
X53560000Y-40171577D01*
X53560000Y-38568420D01*
X53575193Y-38414168D01*
X53635235Y-38216236D01*
X53732734Y-38033828D01*
X53863947Y-37873946D01*
X54023829Y-37742733D01*
X54206238Y-37645233D01*
X54303412Y-37615756D01*
X54404165Y-37585193D01*
X54610000Y-37564920D01*
X54815836Y-37585193D01*
X54815836Y-37585193D01*
G37*
G36*
X47195836Y-37585193D02*
X47296589Y-37615756D01*
X47393763Y-37645233D01*
X47576172Y-37742733D01*
X47736054Y-37873946D01*
X47867267Y-38033828D01*
X47964767Y-38216237D01*
X47964767Y-38216238D01*
X48024807Y-38414164D01*
X48040000Y-38568422D01*
X48040000Y-40171578D01*
X48024807Y-40325836D01*
X47996243Y-40420000D01*
X47964767Y-40523763D01*
X47867267Y-40706172D01*
X47827319Y-40754848D01*
X47736054Y-40866054D01*
X47576171Y-40997267D01*
X47465172Y-41056597D01*
X47393762Y-41094767D01*
X47373593Y-41100885D01*
X47195835Y-41154807D01*
X46990000Y-41175080D01*
X46784164Y-41154807D01*
X46606406Y-41100885D01*
X46586237Y-41094767D01*
X46403828Y-40997267D01*
X46243946Y-40866054D01*
X46112733Y-40706171D01*
X46015234Y-40523763D01*
X46015233Y-40523762D01*
X45983758Y-40420000D01*
X45955193Y-40325835D01*
X45940000Y-40171577D01*
X45940000Y-38568420D01*
X45955193Y-38414168D01*
X46015235Y-38216236D01*
X46112734Y-38033828D01*
X46243947Y-37873946D01*
X46403829Y-37742733D01*
X46586238Y-37645233D01*
X46683412Y-37615756D01*
X46784165Y-37585193D01*
X46990000Y-37564920D01*
X47195836Y-37585193D01*
X47195836Y-37585193D01*
G37*
G36*
X39575836Y-37585193D02*
X39676589Y-37615756D01*
X39773763Y-37645233D01*
X39956172Y-37742733D01*
X40116054Y-37873946D01*
X40247267Y-38033828D01*
X40344767Y-38216237D01*
X40344767Y-38216238D01*
X40404807Y-38414164D01*
X40420000Y-38568422D01*
X40420000Y-40171578D01*
X40404807Y-40325836D01*
X40376243Y-40420000D01*
X40344767Y-40523763D01*
X40247267Y-40706172D01*
X40207319Y-40754848D01*
X40116054Y-40866054D01*
X39956171Y-40997267D01*
X39845172Y-41056597D01*
X39773762Y-41094767D01*
X39753593Y-41100885D01*
X39575835Y-41154807D01*
X39370000Y-41175080D01*
X39164164Y-41154807D01*
X38986406Y-41100885D01*
X38966237Y-41094767D01*
X38783828Y-40997267D01*
X38623946Y-40866054D01*
X38492733Y-40706171D01*
X38395234Y-40523763D01*
X38395233Y-40523762D01*
X38363758Y-40420000D01*
X38335193Y-40325835D01*
X38320000Y-40171577D01*
X38320000Y-38568420D01*
X38335193Y-38414168D01*
X38395235Y-38216236D01*
X38492734Y-38033828D01*
X38623947Y-37873946D01*
X38783829Y-37742733D01*
X38966238Y-37645233D01*
X39063412Y-37615756D01*
X39164165Y-37585193D01*
X39370000Y-37564920D01*
X39575836Y-37585193D01*
X39575836Y-37585193D01*
G37*
G36*
X70775309Y-37573567D02*
X70804234Y-37582341D01*
X70830885Y-37596586D01*
X70854244Y-37615756D01*
X70873414Y-37639115D01*
X70887659Y-37665766D01*
X70896433Y-37694691D01*
X70900000Y-37730903D01*
X70900000Y-41009097D01*
X70896433Y-41045309D01*
X70887659Y-41074234D01*
X70873414Y-41100885D01*
X70854244Y-41124244D01*
X70830885Y-41143414D01*
X70804234Y-41157659D01*
X70775309Y-41166433D01*
X70739097Y-41170000D01*
X68960903Y-41170000D01*
X68924691Y-41166433D01*
X68895766Y-41157659D01*
X68869115Y-41143414D01*
X68845756Y-41124244D01*
X68826586Y-41100885D01*
X68812341Y-41074234D01*
X68803567Y-41045309D01*
X68800000Y-41009097D01*
X68800000Y-37730903D01*
X68803567Y-37694691D01*
X68812341Y-37665766D01*
X68826586Y-37639115D01*
X68845756Y-37615756D01*
X68869115Y-37596586D01*
X68895766Y-37582341D01*
X68924691Y-37573567D01*
X68960903Y-37570000D01*
X70739097Y-37570000D01*
X70775309Y-37573567D01*
X70775309Y-37573567D01*
G37*
G36*
X82476508Y-35058803D02*
X82605363Y-35097891D01*
X82724119Y-35161367D01*
X82828208Y-35246792D01*
X82913633Y-35350881D01*
X82977109Y-35469637D01*
X83016197Y-35598492D01*
X83030000Y-35738640D01*
X83030000Y-37351360D01*
X83016197Y-37491508D01*
X82977109Y-37620363D01*
X82913633Y-37739119D01*
X82828208Y-37843208D01*
X82724119Y-37928633D01*
X82605363Y-37992109D01*
X82476508Y-38031197D01*
X82336360Y-38045000D01*
X80223640Y-38045000D01*
X80083492Y-38031197D01*
X79954637Y-37992109D01*
X79835881Y-37928633D01*
X79731792Y-37843208D01*
X79646367Y-37739119D01*
X79582891Y-37620363D01*
X79543803Y-37491508D01*
X79530000Y-37351360D01*
X79530000Y-35738640D01*
X79543803Y-35598492D01*
X79582891Y-35469637D01*
X79646367Y-35350881D01*
X79731792Y-35246792D01*
X79835881Y-35161367D01*
X79954637Y-35097891D01*
X80083492Y-35058803D01*
X80223640Y-35045000D01*
X82336360Y-35045000D01*
X82476508Y-35058803D01*
X82476508Y-35058803D01*
G37*
M02*
